<svg width="84" height="81" viewBox="0 0 84 81" fill="none" xmlns="http://www.w3.org/2000/svg">
<path d="M76.4188 44.7717C74.1076 62.5514 56.942 75.2505 37.7804 72.7597C18.6189 70.2689 5.27033 53.6033 7.58147 35.8237C9.89262 18.044 27.0582 5.34492 46.2198 7.8357C65.3814 10.3265 78.7299 26.9921 76.4188 44.7717Z" fill="black" fill-opacity="0.87" stroke="black" stroke-width="6"/>
<path d="M38.3323 5.16747L39.4315 4.98949L42.0772 5.01254L43.3898 5.10294L44.7736 5.28282L47.9481 5.69546L49.6344 6.02634L51.3065 6.46704L49.5851 17.299L37.0499 15.6696L38.3323 5.16747Z" fill="#C4C4C4"/>
<path d="M8.19876 22.7519L8.74007 21.7878L10.4003 19.7591L11.2864 18.8037L12.2875 17.8512L14.5842 15.6659L15.8926 14.5772L17.279 13.5706L24.7825 21.903L15.7137 30.532L8.19876 22.7519Z" fill="#C4C4C4"/>
<path d="M10.8353 60.1298L10.1105 59.2949L8.76128 57.0473L8.16104 55.8907L7.60231 54.6268L6.32051 51.7273L5.73739 50.1283L5.25782 48.4834L15.634 44.2328L20.6954 55.682L10.8353 60.1298Z" fill="#C4C4C4"/>
<path d="M74.9944 57.471L74.5233 58.4713L73.0122 60.6133L72.1965 61.6296L71.266 62.6512L69.1312 64.9948L67.9039 66.1741L66.5928 67.2772L58.5136 59.5017L66.9432 50.2473L74.9944 57.471Z" fill="#C4C4C4"/>
<path d="M72.475 20.9334L73.2279 21.7431L74.6531 23.9432L75.2925 25.0787L75.8941 26.3227L77.2742 29.1767L77.9116 30.755L78.4471 32.3825L68.2222 36.9851L62.7726 25.7154L72.475 20.9334Z" fill="#C4C4C4"/>
<path d="M29.3917 73.9449L30.4073 74.4101L32.9694 75.0763L34.2611 75.3276L35.6449 75.5074L38.8194 75.9201L40.5349 76.0271L42.2651 76.0201L43.4246 64.6898L30.8894 63.0604L29.3917 73.9449Z" fill="#C4C4C4"/>
<path fill-rule="evenodd" clip-rule="evenodd" d="M39.1472 61.2466C51.8092 62.8925 63.1538 54.7945 64.6412 43.3513C66.1287 31.9081 57.2315 21.1789 44.5694 19.533C31.9074 17.8871 20.5628 25.9851 19.0753 37.4283C17.5879 48.8715 26.4851 59.6007 39.1472 61.2466ZM39.0022 62.3619C52.2078 64.0785 64.1917 55.6328 65.7691 43.4979C67.3465 31.3631 57.92 20.1343 44.7144 18.4177C31.5088 16.7011 19.5249 25.1468 17.9475 37.2817C16.3701 49.4165 25.7966 60.6453 39.0022 62.3619Z" fill="white"/>
</svg>
