<svg width="1213" height="1087" viewBox="0 0 1213 1087" fill="none" xmlns="http://www.w3.org/2000/svg">
<path d="M297 417.76V424H270.984V390.4H296.376V396.64H278.712V403.936H294.312V409.984H278.712V417.76H297ZM335.022 390.4L320.478 424H312.798L298.302 390.4H306.702L316.926 414.4L327.294 390.4H335.022ZM363.844 417.76V424H337.828V390.4H363.22V396.64H345.556V403.936H361.156V409.984H345.556V417.76H363.844ZM400.847 390.4V424H394.463L377.711 403.6V424H370.031V390.4H376.463L393.167 410.8V390.4H400.847Z" fill="black"/>
<path d="M903.568 329.08C906.512 329.56 908.768 330.664 910.336 332.392C911.904 334.088 912.688 336.2 912.688 338.728C912.688 340.68 912.176 342.488 911.152 344.152C910.128 345.784 908.56 347.096 906.448 348.088C904.368 349.08 901.808 349.576 898.768 349.576C896.4 349.576 894.064 349.272 891.76 348.664C889.488 348.024 887.552 347.128 885.952 345.976L888.976 340.024C890.256 340.984 891.728 341.736 893.392 342.28C895.088 342.792 896.816 343.048 898.576 343.048C900.528 343.048 902.064 342.68 903.184 341.944C904.304 341.176 904.864 340.104 904.864 338.728C904.864 335.976 902.768 334.6 898.576 334.6H895.024V329.464L901.936 321.64H887.632V315.4H911.152V320.44L903.568 329.08Z" fill="black"/>
<path d="M207.832 315.4V349H200.056V321.64H193.336V315.4H207.832Z" fill="black"/>
<path d="M219.512 332.288C218.184 332.288 216.896 332.112 215.648 331.76C214.416 331.392 213.424 330.92 212.672 330.344L213.992 327.416C214.712 327.944 215.568 328.368 216.56 328.688C217.552 329.008 218.544 329.168 219.536 329.168C220.64 329.168 221.456 329.008 221.984 328.688C222.512 328.352 222.776 327.912 222.776 327.368C222.776 326.968 222.616 326.64 222.296 326.384C221.992 326.112 221.592 325.896 221.096 325.736C220.616 325.576 219.96 325.4 219.128 325.208C217.848 324.904 216.8 324.6 215.984 324.296C215.168 323.992 214.464 323.504 213.872 322.832C213.296 322.16 213.008 321.264 213.008 320.144C213.008 319.168 213.272 318.288 213.8 317.504C214.328 316.704 215.12 316.072 216.176 315.608C217.248 315.144 218.552 314.912 220.088 314.912C221.16 314.912 222.208 315.04 223.232 315.296C224.256 315.552 225.152 315.92 225.92 316.4L224.72 319.352C223.168 318.472 221.616 318.032 220.064 318.032C218.976 318.032 218.168 318.208 217.64 318.56C217.128 318.912 216.872 319.376 216.872 319.952C216.872 320.528 217.168 320.96 217.76 321.248C218.368 321.52 219.288 321.792 220.52 322.064C221.8 322.368 222.848 322.672 223.664 322.976C224.48 323.28 225.176 323.76 225.752 324.416C226.344 325.072 226.64 325.96 226.64 327.08C226.64 328.04 226.368 328.92 225.824 329.72C225.296 330.504 224.496 331.128 223.424 331.592C222.352 332.056 221.048 332.288 219.512 332.288ZM232.542 318.368H227.166V315.2H241.806V318.368H236.43V332H232.542V318.368Z" fill="black"/>
<path d="M272.832 315.4V349H265.056V321.64H258.336V315.4H272.832ZM303.773 342.664V349H278.381V343.96L291.341 331.72C292.717 330.408 293.645 329.288 294.125 328.36C294.605 327.4 294.845 326.456 294.845 325.528C294.845 324.184 294.381 323.16 293.453 322.456C292.557 321.72 291.229 321.352 289.469 321.352C287.997 321.352 286.669 321.64 285.485 322.216C284.301 322.76 283.309 323.592 282.509 324.712L276.845 321.064C278.157 319.112 279.965 317.592 282.269 316.504C284.573 315.384 287.213 314.824 290.189 314.824C292.685 314.824 294.861 315.24 296.717 316.072C298.605 316.872 300.061 318.024 301.085 319.528C302.141 321 302.669 322.744 302.669 324.76C302.669 326.584 302.285 328.296 301.517 329.896C300.749 331.496 299.261 333.32 297.053 335.368L289.325 342.664H303.773Z" fill="black"/>
<path d="M628.832 313.4V347H621.056V319.64H614.336V313.4H628.832ZM659.773 340.664V347H634.381V341.96L647.341 329.72C648.717 328.408 649.645 327.288 650.125 326.36C650.605 325.4 650.845 324.456 650.845 323.528C650.845 322.184 650.381 321.16 649.453 320.456C648.557 319.72 647.229 319.352 645.469 319.352C643.997 319.352 642.669 319.64 641.485 320.216C640.301 320.76 639.309 321.592 638.509 322.712L632.845 319.064C634.157 317.112 635.965 315.592 638.269 314.504C640.573 313.384 643.213 312.824 646.189 312.824C648.685 312.824 650.861 313.24 652.717 314.072C654.605 314.872 656.061 316.024 657.085 317.528C658.141 319 658.669 320.744 658.669 322.76C658.669 324.584 658.285 326.296 657.517 327.896C656.749 329.496 655.261 331.32 653.053 333.368L645.325 340.664H659.773Z" fill="black"/>
<path d="M975.832 314.4V348H968.056V320.64H961.336V314.4H975.832ZM1006.77 341.664V348H981.381V342.96L994.341 330.72C995.717 329.408 996.645 328.288 997.125 327.36C997.605 326.4 997.845 325.456 997.845 324.528C997.845 323.184 997.381 322.16 996.453 321.456C995.557 320.72 994.229 320.352 992.469 320.352C990.997 320.352 989.669 320.64 988.485 321.216C987.301 321.76 986.309 322.592 985.509 323.712L979.845 320.064C981.157 318.112 982.965 316.592 985.269 315.504C987.573 314.384 990.213 313.824 993.189 313.824C995.685 313.824 997.861 314.24 999.717 315.072C1001.6 315.872 1003.06 317.024 1004.08 318.528C1005.14 320 1005.67 321.744 1005.67 323.76C1005.67 325.584 1005.28 327.296 1004.52 328.896C1003.75 330.496 1002.26 332.32 1000.05 334.368L992.325 341.664H1006.77Z" fill="black"/>
<line x1="599.5" y1="373" x2="599.5" y2="452" stroke="black" stroke-width="5"/>
<path d="M560.976 341.664V348H535.584V342.96L548.544 330.72C549.92 329.408 550.848 328.288 551.328 327.36C551.808 326.4 552.048 325.456 552.048 324.528C552.048 323.184 551.584 322.16 550.656 321.456C549.76 320.72 548.432 320.352 546.672 320.352C545.2 320.352 543.872 320.64 542.688 321.216C541.504 321.76 540.512 322.592 539.712 323.712L534.048 320.064C535.36 318.112 537.168 316.592 539.472 315.504C541.776 314.384 544.416 313.824 547.392 313.824C549.888 313.824 552.064 314.24 553.92 315.072C555.808 315.872 557.264 317.024 558.288 318.528C559.344 320 559.872 321.744 559.872 323.76C559.872 325.584 559.488 327.296 558.72 328.896C557.952 330.496 556.464 332.32 554.256 334.368L546.528 341.664H560.976Z" fill="black"/>
<path d="M1177.67 257.058L1184 257.046L1184.05 282.438L1179.01 282.447L1166.75 269.51C1165.43 268.136 1164.31 267.211 1163.38 266.732C1162.42 266.254 1161.48 266.016 1160.55 266.018C1159.2 266.02 1158.18 266.486 1157.48 267.415C1156.74 268.313 1156.38 269.641 1156.38 271.401C1156.38 272.873 1156.68 274.201 1157.25 275.384C1157.8 276.567 1158.63 277.557 1159.75 278.355L1156.12 284.026C1154.16 282.717 1152.64 280.912 1151.55 278.61C1150.42 276.308 1149.86 273.669 1149.85 270.693C1149.85 268.197 1150.26 266.02 1151.09 264.163C1151.89 262.273 1153.03 260.815 1154.54 259.789C1156.01 258.73 1157.75 258.199 1159.77 258.195C1161.59 258.192 1163.3 258.572 1164.9 259.337C1166.51 260.102 1168.33 261.587 1170.38 263.791L1177.69 271.506L1177.67 257.058Z" fill="black"/>
<path d="M579.4 314.2V331H576.208L567.832 320.8V331H563.992V314.2H567.208L575.56 324.4V314.2H579.4ZM583.375 314.2H591.007C592.831 314.2 594.439 314.552 595.831 315.256C597.239 315.944 598.327 316.92 599.095 318.184C599.879 319.448 600.271 320.92 600.271 322.6C600.271 324.28 599.879 325.752 599.095 327.016C598.327 328.28 597.239 329.264 595.831 329.968C594.439 330.656 592.831 331 591.007 331H583.375V314.2ZM590.815 327.808C592.495 327.808 593.831 327.344 594.823 326.416C595.831 325.472 596.335 324.2 596.335 322.6C596.335 321 595.831 319.736 594.823 318.808C593.831 317.864 592.495 317.392 590.815 317.392H587.263V327.808H590.815Z" fill="black"/>
<path d="M925.696 331L922.456 326.32H922.264H918.88V331H914.992V314.2H922.264C923.752 314.2 925.04 314.448 926.128 314.944C927.232 315.44 928.08 316.144 928.672 317.056C929.264 317.968 929.56 319.048 929.56 320.296C929.56 321.544 929.256 322.624 928.648 323.536C928.056 324.432 927.208 325.12 926.104 325.6L929.872 331H925.696ZM925.624 320.296C925.624 319.352 925.32 318.632 924.712 318.136C924.104 317.624 923.216 317.368 922.048 317.368H918.88V323.224H922.048C923.216 323.224 924.104 322.968 924.712 322.456C925.32 321.944 925.624 321.224 925.624 320.296ZM932.64 314.2H940.272C942.096 314.2 943.704 314.552 945.096 315.256C946.504 315.944 947.592 316.92 948.36 318.184C949.144 319.448 949.536 320.92 949.536 322.6C949.536 324.28 949.144 325.752 948.36 327.016C947.592 328.28 946.504 329.264 945.096 329.968C943.704 330.656 942.096 331 940.272 331H932.64V314.2ZM940.08 327.808C941.76 327.808 943.096 327.344 944.088 326.416C945.096 325.472 945.6 324.2 945.6 322.6C945.6 321 945.096 319.736 944.088 318.808C943.096 317.864 941.76 317.392 940.08 317.392H936.528V327.808H940.08Z" fill="black"/>
<path d="M1169.37 254.528V259.904H1166.2V245.264H1169.37V250.64H1183V254.528H1169.37ZM1183.29 235.27C1183.29 237.014 1182.91 238.59 1182.16 239.998C1181.41 241.39 1180.38 242.486 1179.06 243.286C1177.74 244.07 1176.25 244.462 1174.6 244.462C1172.95 244.462 1171.47 244.07 1170.16 243.286C1168.83 242.486 1167.79 241.39 1167.04 239.998C1166.29 238.59 1165.91 237.014 1165.91 235.27C1165.91 233.526 1166.29 231.958 1167.04 230.566C1167.79 229.174 1168.83 228.078 1170.16 227.278C1171.47 226.478 1172.95 226.078 1174.6 226.078C1176.25 226.078 1177.74 226.478 1179.06 227.278C1180.38 228.078 1181.41 229.174 1182.16 230.566C1182.91 231.958 1183.29 233.526 1183.29 235.27ZM1179.98 235.27C1179.98 234.278 1179.75 233.382 1179.3 232.582C1178.84 231.782 1178.2 231.158 1177.38 230.71C1176.57 230.246 1175.64 230.014 1174.6 230.014C1173.56 230.014 1172.63 230.246 1171.82 230.71C1171 231.158 1170.37 231.782 1169.92 232.582C1169.46 233.382 1169.22 234.278 1169.22 235.27C1169.22 236.262 1169.46 237.158 1169.92 237.958C1170.37 238.758 1171 239.39 1171.82 239.854C1172.63 240.302 1173.56 240.526 1174.6 240.526C1175.64 240.526 1176.57 240.302 1177.38 239.854C1178.2 239.39 1178.84 238.758 1179.3 237.958C1179.75 237.158 1179.98 236.262 1179.98 235.27Z" fill="black"/>
<path d="M1150.4 214.168H1184V221.944H1156.64V228.664H1150.4V214.168Z" fill="black"/>
<path d="M1177.67 158.058L1184 158.046L1184.05 183.438L1179.01 183.447L1166.75 170.51C1165.43 169.136 1164.31 168.211 1163.38 167.732C1162.42 167.254 1161.48 167.016 1160.55 167.018C1159.2 167.02 1158.18 167.486 1157.48 168.415C1156.74 169.313 1156.38 170.641 1156.38 172.401C1156.38 173.873 1156.68 175.201 1157.25 176.384C1157.8 177.567 1158.63 178.557 1159.75 179.355L1156.12 185.026C1154.16 183.717 1152.64 181.912 1151.55 179.61C1150.42 177.308 1149.86 174.669 1149.85 171.693C1149.85 169.197 1150.26 167.02 1151.09 165.163C1151.89 163.273 1153.03 161.815 1154.54 160.789C1156.01 159.73 1157.75 159.199 1159.77 159.195C1161.59 159.192 1163.3 159.572 1164.9 160.337C1166.51 161.102 1168.33 162.587 1170.38 164.791L1177.69 172.506L1177.67 158.058Z" fill="black"/>
<path d="M1169.37 155.528V160.904H1166.2V146.264H1169.37V151.64H1183V155.528H1169.37ZM1183.29 136.27C1183.29 138.014 1182.91 139.59 1182.16 140.998C1181.41 142.39 1180.38 143.486 1179.06 144.286C1177.74 145.07 1176.25 145.462 1174.6 145.462C1172.95 145.462 1171.47 145.07 1170.16 144.286C1168.83 143.486 1167.79 142.39 1167.04 140.998C1166.29 139.59 1165.91 138.014 1165.91 136.27C1165.91 134.526 1166.29 132.958 1167.04 131.566C1167.79 130.174 1168.83 129.078 1170.16 128.278C1171.47 127.478 1172.95 127.078 1174.6 127.078C1176.25 127.078 1177.74 127.478 1179.06 128.278C1180.38 129.078 1181.41 130.174 1182.16 131.566C1182.91 132.958 1183.29 134.526 1183.29 136.27ZM1179.98 136.27C1179.98 135.278 1179.75 134.382 1179.3 133.582C1178.84 132.782 1178.2 132.158 1177.38 131.71C1176.57 131.246 1175.64 131.014 1174.6 131.014C1173.56 131.014 1172.63 131.246 1171.82 131.71C1171 132.158 1170.37 132.782 1169.92 133.582C1169.46 134.382 1169.22 135.278 1169.22 136.27C1169.22 137.262 1169.46 138.158 1169.92 138.958C1170.37 139.758 1171 140.39 1171.82 140.854C1172.63 141.302 1173.56 141.526 1174.6 141.526C1175.64 141.526 1176.57 141.302 1177.38 140.854C1178.2 140.39 1178.84 139.758 1179.3 138.958C1179.75 138.158 1179.98 137.262 1179.98 136.27Z" fill="black"/>
<path d="M1150.4 115.168L1184 115.168V122.944L1156.64 122.944V129.664H1150.4V115.168Z" fill="black"/>
<path d="M1177.67 62.0579L1184 62.0462L1184.05 87.4382L1179.01 87.4475L1166.75 74.5101C1165.43 73.1365 1164.31 72.2106 1163.38 71.7323C1162.42 71.254 1161.48 71.0158 1160.55 71.0175C1159.2 71.02 1158.18 71.4859 1157.48 72.4152C1156.74 73.3125 1156.38 74.6412 1156.38 76.4012C1156.38 77.8732 1156.68 79.2007 1157.25 80.3836C1157.8 81.5666 1158.63 82.5571 1159.75 83.355L1156.12 89.0257C1154.16 87.7173 1152.64 85.9121 1151.55 83.6101C1150.42 81.3082 1149.86 78.6692 1149.85 75.6932C1149.85 73.1972 1150.26 71.0205 1151.09 69.163C1151.89 67.2735 1153.03 65.8154 1154.54 64.7886C1156.01 63.7299 1157.75 63.1987 1159.77 63.1949C1161.59 63.1916 1163.3 63.5724 1164.9 64.3375C1166.51 65.1025 1168.33 66.5871 1170.38 68.7913L1177.69 76.5059L1177.67 62.0579Z" fill="black"/>
<path d="M1169.37 59.528V64.904H1166.2V50.264H1169.37V55.64H1183V59.528H1169.37ZM1183.29 40.2704C1183.29 42.0144 1182.91 43.5904 1182.16 44.9984C1181.41 46.3904 1180.38 47.4864 1179.06 48.2864C1177.74 49.0704 1176.25 49.4624 1174.6 49.4624C1172.95 49.4624 1171.47 49.0704 1170.16 48.2864C1168.83 47.4864 1167.79 46.3904 1167.04 44.9984C1166.29 43.5904 1165.91 42.0144 1165.91 40.2704C1165.91 38.5264 1166.29 36.9584 1167.04 35.5664C1167.79 34.1744 1168.83 33.0784 1170.16 32.2784C1171.47 31.4784 1172.95 31.0784 1174.6 31.0784C1176.25 31.0784 1177.74 31.4784 1179.06 32.2784C1180.38 33.0784 1181.41 34.1744 1182.16 35.5664C1182.91 36.9584 1183.29 38.5264 1183.29 40.2704ZM1179.98 40.2704C1179.98 39.2784 1179.75 38.3824 1179.3 37.5824C1178.84 36.7824 1178.2 36.1584 1177.38 35.7104C1176.57 35.2464 1175.64 35.0144 1174.6 35.0144C1173.56 35.0144 1172.63 35.2464 1171.82 35.7104C1171 36.1584 1170.37 36.7824 1169.92 37.5824C1169.46 38.3824 1169.22 39.2784 1169.22 40.2704C1169.22 41.2624 1169.46 42.1584 1169.92 42.9584C1170.37 43.7584 1171 44.3904 1171.82 44.8544C1172.63 45.3024 1173.56 45.5264 1174.6 45.5264C1175.64 45.5264 1176.57 45.3024 1177.38 44.8544C1178.2 44.3904 1178.84 43.7584 1179.3 42.9584C1179.75 42.1584 1179.98 41.2624 1179.98 40.2704Z" fill="black"/>
<path d="M1150.4 19.168L1184 19.168V26.944L1156.64 26.944V33.664L1150.4 33.664V19.168Z" fill="black"/>
<path d="M115.832 391.4V425H108.056V397.64H101.336V391.4H115.832Z" fill="black"/>
<path d="M137.472 411.368H132.096V408.2H146.736V411.368H141.36V425H137.472V411.368ZM156.73 425.288C154.986 425.288 153.41 424.912 152.002 424.16C150.61 423.408 149.514 422.376 148.714 421.064C147.93 419.736 147.538 418.248 147.538 416.6C147.538 414.952 147.93 413.472 148.714 412.16C149.514 410.832 150.61 409.792 152.002 409.04C153.41 408.288 154.986 407.912 156.73 407.912C158.474 407.912 160.042 408.288 161.434 409.04C162.826 409.792 163.922 410.832 164.722 412.16C165.522 413.472 165.922 414.952 165.922 416.6C165.922 418.248 165.522 419.736 164.722 421.064C163.922 422.376 162.826 423.408 161.434 424.16C160.042 424.912 158.474 425.288 156.73 425.288ZM156.73 421.976C157.722 421.976 158.618 421.752 159.418 421.304C160.218 420.84 160.842 420.2 161.29 419.384C161.754 418.568 161.986 417.64 161.986 416.6C161.986 415.56 161.754 414.632 161.29 413.816C160.842 413 160.218 412.368 159.418 411.92C158.618 411.456 157.722 411.224 156.73 411.224C155.738 411.224 154.842 411.456 154.042 411.92C153.242 412.368 152.61 413 152.146 413.816C151.698 414.632 151.474 415.56 151.474 416.6C151.474 417.64 151.698 418.568 152.146 419.384C152.61 420.2 153.242 420.84 154.042 421.304C154.842 421.752 155.738 421.976 156.73 421.976Z" fill="black"/>
<path d="M193.832 391.4V425H186.056V397.64H179.336V391.4H193.832ZM222.661 407.336C224.325 408.168 225.589 409.256 226.453 410.6C227.349 411.944 227.797 413.496 227.797 415.256C227.797 417.336 227.205 419.16 226.021 420.728C224.837 422.264 223.173 423.464 221.029 424.328C218.885 425.16 216.405 425.576 213.589 425.576C210.773 425.576 208.293 425.16 206.149 424.328C204.037 423.464 202.389 422.264 201.205 420.728C200.053 419.16 199.477 417.336 199.477 415.256C199.477 413.496 199.909 411.944 200.773 410.6C201.669 409.256 202.933 408.168 204.565 407.336C203.317 406.568 202.357 405.608 201.685 404.456C201.013 403.272 200.677 401.928 200.677 400.424C200.677 398.472 201.221 396.776 202.309 395.336C203.397 393.896 204.917 392.792 206.869 392.024C208.821 391.224 211.061 390.824 213.589 390.824C216.149 390.824 218.405 391.224 220.357 392.024C222.341 392.792 223.877 393.896 224.965 395.336C226.053 396.776 226.597 398.472 226.597 400.424C226.597 401.928 226.261 403.272 225.589 404.456C224.917 405.608 223.941 406.568 222.661 407.336ZM213.589 396.536C212.021 396.536 210.757 396.92 209.797 397.688C208.869 398.424 208.405 399.448 208.405 400.76C208.405 402.04 208.869 403.048 209.797 403.784C210.725 404.52 211.989 404.888 213.589 404.888C215.189 404.888 216.469 404.52 217.429 403.784C218.389 403.048 218.869 402.04 218.869 400.76C218.869 399.448 218.389 398.424 217.429 397.688C216.469 396.92 215.189 396.536 213.589 396.536ZM213.589 419.864C215.541 419.864 217.077 419.432 218.197 418.568C219.349 417.672 219.925 416.488 219.925 415.016C219.925 413.544 219.349 412.376 218.197 411.512C217.077 410.648 215.541 410.216 213.589 410.216C211.669 410.216 210.149 410.648 209.029 411.512C207.909 412.376 207.349 413.544 207.349 415.016C207.349 416.52 207.909 417.704 209.029 418.568C210.149 419.432 211.669 419.864 213.589 419.864Z" fill="black"/>
<path d="M975.832 393.4V427H968.056V399.64H961.336V393.4H975.832ZM993.477 392.824C998.181 392.824 1001.86 394.264 1004.52 397.144C1007.17 399.992 1008.5 404.104 1008.5 409.48C1008.5 413.288 1007.78 416.552 1006.34 419.272C1004.93 421.992 1002.93 424.056 1000.34 425.464C997.749 426.872 994.757 427.576 991.365 427.576C989.573 427.576 987.861 427.384 986.229 427C984.597 426.584 983.205 426.008 982.053 425.272L984.933 419.56C986.565 420.68 988.661 421.24 991.221 421.24C994.069 421.24 996.325 420.408 997.989 418.744C999.653 417.048 1000.55 414.616 1000.68 411.448C998.661 413.464 995.877 414.472 992.325 414.472C990.181 414.472 988.229 414.04 986.469 413.176C984.709 412.312 983.317 411.096 982.293 409.528C981.269 407.928 980.757 406.088 980.757 404.008C980.757 401.768 981.317 399.8 982.437 398.104C983.557 396.408 985.077 395.112 986.997 394.216C988.949 393.288 991.109 392.824 993.477 392.824ZM994.053 408.664C995.749 408.664 997.125 408.2 998.181 407.272C999.269 406.312 999.813 405.096 999.813 403.624C999.813 402.152 999.285 400.952 998.229 400.024C997.205 399.096 995.781 398.632 993.957 398.632C992.293 398.632 990.933 399.08 989.877 399.976C988.853 400.872 988.341 402.088 988.341 403.624C988.341 405.16 988.853 406.392 989.877 407.32C990.933 408.216 992.325 408.664 994.053 408.664Z" fill="black"/>
<path d="M1025.47 408.368H1020.1V405.2H1034.74V408.368H1029.36V422H1025.47V408.368ZM1044.73 422.288C1042.99 422.288 1041.41 421.912 1040 421.16C1038.61 420.408 1037.51 419.376 1036.71 418.064C1035.93 416.736 1035.54 415.248 1035.54 413.6C1035.54 411.952 1035.93 410.472 1036.71 409.16C1037.51 407.832 1038.61 406.792 1040 406.04C1041.41 405.288 1042.99 404.912 1044.73 404.912C1046.47 404.912 1048.04 405.288 1049.43 406.04C1050.83 406.792 1051.92 407.832 1052.72 409.16C1053.52 410.472 1053.92 411.952 1053.92 413.6C1053.92 415.248 1053.52 416.736 1052.72 418.064C1051.92 419.376 1050.83 420.408 1049.43 421.16C1048.04 421.912 1046.47 422.288 1044.73 422.288ZM1044.73 418.976C1045.72 418.976 1046.62 418.752 1047.42 418.304C1048.22 417.84 1048.84 417.2 1049.29 416.384C1049.75 415.568 1049.99 414.64 1049.99 413.6C1049.99 412.56 1049.75 411.632 1049.29 410.816C1048.84 410 1048.22 409.368 1047.42 408.92C1046.62 408.456 1045.72 408.224 1044.73 408.224C1043.74 408.224 1042.84 408.456 1042.04 408.92C1041.24 409.368 1040.61 410 1040.15 410.816C1039.7 411.632 1039.47 412.56 1039.47 413.6C1039.47 414.64 1039.7 415.568 1040.15 416.384C1040.61 417.2 1041.24 417.84 1042.04 418.304C1042.84 418.752 1043.74 418.976 1044.73 418.976Z" fill="black"/>
<path d="M1072.57 407.08C1075.51 407.56 1077.77 408.664 1079.34 410.392C1080.9 412.088 1081.69 414.2 1081.69 416.728C1081.69 418.68 1081.18 420.488 1080.15 422.152C1079.13 423.784 1077.56 425.096 1075.45 426.088C1073.37 427.08 1070.81 427.576 1067.77 427.576C1065.4 427.576 1063.06 427.272 1060.76 426.664C1058.49 426.024 1056.55 425.128 1054.95 423.976L1057.98 418.024C1059.26 418.984 1060.73 419.736 1062.39 420.28C1064.09 420.792 1065.82 421.048 1067.58 421.048C1069.53 421.048 1071.06 420.68 1072.18 419.944C1073.3 419.176 1073.86 418.104 1073.86 416.728C1073.86 413.976 1071.77 412.6 1067.58 412.6H1064.02V407.464L1070.94 399.64H1056.63V393.4H1080.15V398.44L1072.57 407.08ZM1101.45 405.928C1103.6 405.928 1105.55 406.36 1107.31 407.224C1109.07 408.088 1110.46 409.32 1111.49 410.92C1112.51 412.488 1113.02 414.312 1113.02 416.392C1113.02 418.632 1112.46 420.6 1111.34 422.296C1110.22 423.992 1108.69 425.304 1106.73 426.232C1104.81 427.128 1102.67 427.576 1100.3 427.576C1095.6 427.576 1091.92 426.136 1089.26 423.256C1086.61 420.376 1085.28 416.264 1085.28 410.92C1085.28 407.112 1086 403.848 1087.44 401.128C1088.88 398.408 1090.88 396.344 1093.44 394.936C1096.03 393.528 1099.02 392.824 1102.41 392.824C1104.21 392.824 1105.92 393.032 1107.55 393.448C1109.21 393.832 1110.62 394.392 1111.77 395.128L1108.89 400.84C1107.23 399.72 1105.13 399.16 1102.61 399.16C1099.76 399.16 1097.5 399.992 1095.84 401.656C1094.17 403.32 1093.28 405.736 1093.15 408.904C1095.13 406.92 1097.9 405.928 1101.45 405.928ZM1099.87 421.768C1101.53 421.768 1102.88 421.32 1103.9 420.424C1104.96 419.528 1105.49 418.312 1105.49 416.776C1105.49 415.24 1104.96 414.024 1103.9 413.128C1102.88 412.2 1101.5 411.736 1099.77 411.736C1098.08 411.736 1096.69 412.216 1095.6 413.176C1094.51 414.104 1093.97 415.304 1093.97 416.776C1093.97 418.248 1094.49 419.448 1095.55 420.376C1096.61 421.304 1098.05 421.768 1099.87 421.768Z" fill="black"/>
<path d="M825.256 424.576C821.768 424.576 818.616 423.824 815.8 422.32C813.016 420.816 810.824 418.752 809.224 416.128C807.656 413.472 806.872 410.496 806.872 407.2C806.872 403.904 807.656 400.944 809.224 398.32C810.824 395.664 813.016 393.584 815.8 392.08C818.616 390.576 821.768 389.824 825.256 389.824C828.744 389.824 831.88 390.576 834.664 392.08C837.448 393.584 839.64 395.664 841.24 398.32C842.84 400.944 843.64 403.904 843.64 407.2C843.64 410.496 842.84 413.472 841.24 416.128C839.64 418.752 837.448 420.816 834.664 422.32C831.88 423.824 828.744 424.576 825.256 424.576ZM825.256 417.952C827.24 417.952 829.032 417.504 830.632 416.608C832.232 415.68 833.48 414.4 834.376 412.768C835.304 411.136 835.768 409.28 835.768 407.2C835.768 405.12 835.304 403.264 834.376 401.632C833.48 400 832.232 398.736 830.632 397.84C829.032 396.912 827.24 396.448 825.256 396.448C823.272 396.448 821.48 396.912 819.88 397.84C818.28 398.736 817.016 400 816.088 401.632C815.192 403.264 814.744 405.12 814.744 407.2C814.744 409.28 815.192 411.136 816.088 412.768C817.016 414.4 818.28 415.68 819.88 416.608C821.48 417.504 823.272 417.952 825.256 417.952ZM849.484 390.4H864.748C868.396 390.4 871.612 391.104 874.396 392.512C877.212 393.888 879.388 395.84 880.924 398.368C882.492 400.896 883.276 403.84 883.276 407.2C883.276 410.56 882.492 413.504 880.924 416.032C879.388 418.56 877.212 420.528 874.396 421.936C871.612 423.312 868.396 424 864.748 424H849.484V390.4ZM864.364 417.616C867.724 417.616 870.396 416.688 872.38 414.832C874.396 412.944 875.404 410.4 875.404 407.2C875.404 404 874.396 401.472 872.38 399.616C870.396 397.728 867.724 396.784 864.364 396.784H857.26V417.616H864.364ZM889.14 390.4H904.404C908.052 390.4 911.268 391.104 914.052 392.512C916.868 393.888 919.044 395.84 920.58 398.368C922.148 400.896 922.932 403.84 922.932 407.2C922.932 410.56 922.148 413.504 920.58 416.032C919.044 418.56 916.868 420.528 914.052 421.936C911.268 423.312 908.052 424 904.404 424H889.14V390.4ZM904.02 417.616C907.38 417.616 910.052 416.688 912.036 414.832C914.052 412.944 915.06 410.4 915.06 407.2C915.06 404 914.052 401.472 912.036 399.616C910.052 397.728 907.38 396.784 904.02 396.784H896.916V417.616H904.02Z" fill="black"/>
<path d="M641.312 170.864C636.08 170.864 631.352 169.736 627.128 167.48C622.952 165.224 619.664 162.128 617.264 158.192C614.912 154.208 613.736 149.744 613.736 144.8C613.736 139.856 614.912 135.416 617.264 131.48C619.664 127.496 622.952 124.376 627.128 122.12C631.352 119.864 636.08 118.736 641.312 118.736C646.544 118.736 651.248 119.864 655.424 122.12C659.6 124.376 662.888 127.496 665.288 131.48C667.688 135.416 668.888 139.856 668.888 144.8C668.888 149.744 667.688 154.208 665.288 158.192C662.888 162.128 659.6 165.224 655.424 167.48C651.248 169.736 646.544 170.864 641.312 170.864ZM641.312 160.928C644.288 160.928 646.976 160.256 649.376 158.912C651.776 157.52 653.648 155.6 654.992 153.152C656.384 150.704 657.08 147.92 657.08 144.8C657.08 141.68 656.384 138.896 654.992 136.448C653.648 134 651.776 132.104 649.376 130.76C646.976 129.368 644.288 128.672 641.312 128.672C638.336 128.672 635.648 129.368 633.248 130.76C630.848 132.104 628.952 134 627.56 136.448C626.216 138.896 625.544 141.68 625.544 144.8C625.544 147.92 626.216 150.704 627.56 153.152C628.952 155.6 630.848 157.52 633.248 158.912C635.648 160.256 638.336 160.928 641.312 160.928Z" fill="black"/>
<path d="M577.784 129.104H561.656V170H550.136V129.104H534.08V119.6H577.784V129.104Z" fill="black"/>
<path d="M361.264 119.6H372.856V152.432L396.904 119.6H407.848V170H396.328V137.24L372.28 170H361.264V119.6Z" fill="black"/>
<path d="M794.264 123.6H805.856V156.432L829.904 123.6H840.848V174H829.328V141.24L805.28 174H794.264V123.6Z" fill="black"/>
<path d="M924.512 121.6V172H912.992V158.608H902.336L893.408 172H881.096L891.608 156.808C888.2 155.416 885.584 153.328 883.76 150.544C881.936 147.712 881.024 144.328 881.024 140.392C881.024 136.504 881.912 133.168 883.688 130.384C885.464 127.552 887.984 125.392 891.248 123.904C894.512 122.368 898.352 121.6 902.768 121.6H924.512ZM903.056 131.104C899.744 131.104 897.2 131.872 895.424 133.408C893.696 134.944 892.832 137.224 892.832 140.248C892.832 143.176 893.672 145.432 895.352 147.016C897.032 148.6 899.504 149.392 902.768 149.392H912.992V131.104H903.056Z" fill="black"/>
<path d="M729.08 121.6C733.544 121.6 737.408 122.344 740.672 123.832C743.984 125.32 746.528 127.432 748.304 130.168C750.08 132.904 750.968 136.144 750.968 139.888C750.968 143.584 750.08 146.824 748.304 149.608C746.528 152.344 743.984 154.456 740.672 155.944C737.408 157.384 733.544 158.104 729.08 158.104H718.928V172H707.264V121.6H729.08ZM728.432 148.6C731.936 148.6 734.6 147.856 736.424 146.368C738.248 144.832 739.16 142.672 739.16 139.888C739.16 137.056 738.248 134.896 736.424 133.408C734.6 131.872 731.936 131.104 728.432 131.104H718.928V148.6H728.432Z" fill="#FF0000"/>
<path d="M469.096 170.864C463.96 170.864 459.304 169.76 455.128 167.552C451 165.296 447.736 162.2 445.336 158.264C442.984 154.28 441.808 149.792 441.808 144.8C441.808 139.808 442.984 135.344 445.336 131.408C447.736 127.424 451 124.328 455.128 122.12C459.304 119.864 463.984 118.736 469.168 118.736C473.536 118.736 477.472 119.504 480.976 121.04C484.528 122.576 487.504 124.784 489.904 127.664L482.416 134.576C479.008 130.64 474.784 128.672 469.744 128.672C466.624 128.672 463.84 129.368 461.392 130.76C458.944 132.104 457.024 134 455.632 136.448C454.288 138.896 453.616 141.68 453.616 144.8C453.616 147.92 454.288 150.704 455.632 153.152C457.024 155.6 458.944 157.52 461.392 158.912C463.84 160.256 466.624 160.928 469.744 160.928C474.784 160.928 479.008 158.936 482.416 154.952L489.904 161.864C487.504 164.792 484.528 167.024 480.976 168.56C477.424 170.096 473.464 170.864 469.096 170.864Z" fill="#FF0000"/>
<path d="M119.568 46.08C122.512 46.56 124.768 47.664 126.336 49.392C127.904 51.088 128.688 53.2 128.688 55.728C128.688 57.68 128.176 59.488 127.152 61.152C126.128 62.784 124.56 64.096 122.448 65.088C120.368 66.08 117.808 66.576 114.768 66.576C112.4 66.576 110.064 66.272 107.76 65.664C105.488 65.024 103.552 64.128 101.952 62.976L104.976 57.024C106.256 57.984 107.728 58.736 109.392 59.28C111.088 59.792 112.816 60.048 114.576 60.048C116.528 60.048 118.064 59.68 119.184 58.944C120.304 58.176 120.864 57.104 120.864 55.728C120.864 52.976 118.768 51.6 114.576 51.6H111.024V46.464L117.936 38.64H103.632V32.4H127.152V37.44L119.568 46.08Z" fill="#FF0000"/>
<path d="M121.832 227.4V261H114.056V233.64H107.336V227.4H121.832Z" fill="#FF0000"/>
<path d="M203.392 140.024C208.128 140.024 211.616 140.968 213.856 142.856C216.128 144.744 217.264 147.272 217.264 150.44C217.264 152.488 216.752 154.36 215.728 156.056C214.704 157.72 213.136 159.064 211.024 160.088C208.944 161.08 206.368 161.576 203.296 161.576C200.928 161.576 198.592 161.272 196.288 160.664C194.016 160.024 192.08 159.128 190.48 157.976L193.552 152.024C194.832 152.984 196.304 153.736 197.968 154.28C199.632 154.792 201.344 155.048 203.104 155.048C205.056 155.048 206.592 154.664 207.712 153.896C208.832 153.128 209.392 152.056 209.392 150.68C209.392 149.24 208.8 148.152 207.616 147.416C206.464 146.68 204.448 146.312 201.568 146.312H192.976L194.704 127.4H215.2V133.64H201.184L200.656 140.024H203.392Z" fill="#FF0000"/>
<path d="M288.68 31.824C293.384 31.824 297.064 33.264 299.72 36.144C302.376 38.992 303.704 43.104 303.704 48.48C303.704 52.288 302.984 55.552 301.544 58.272C300.136 60.992 298.136 63.056 295.544 64.464C292.952 65.872 289.96 66.576 286.568 66.576C284.776 66.576 283.064 66.384 281.432 66C279.8 65.584 278.408 65.008 277.256 64.272L280.136 58.56C281.768 59.68 283.864 60.24 286.424 60.24C289.272 60.24 291.528 59.408 293.192 57.744C294.856 56.048 295.752 53.616 295.88 50.448C293.864 52.464 291.08 53.472 287.528 53.472C285.384 53.472 283.432 53.04 281.672 52.176C279.912 51.312 278.52 50.096 277.496 48.528C276.472 46.928 275.96 45.088 275.96 43.008C275.96 40.768 276.52 38.8 277.64 37.104C278.76 35.408 280.28 34.112 282.2 33.216C284.152 32.288 286.312 31.824 288.68 31.824ZM289.256 47.664C290.952 47.664 292.328 47.2 293.384 46.272C294.472 45.312 295.016 44.096 295.016 42.624C295.016 41.152 294.488 39.952 293.432 39.024C292.408 38.096 290.984 37.632 289.16 37.632C287.496 37.632 286.136 38.08 285.08 38.976C284.056 39.872 283.544 41.088 283.544 42.624C283.544 44.16 284.056 45.392 285.08 46.32C286.136 47.216 287.528 47.664 289.256 47.664Z" fill="#FF0000"/>
<path d="M304.176 227.4V232.44L291.696 261H283.248L295.296 233.736H284.16V239.208H277.248V227.4H304.176Z" fill="#FF0000"/>
<path d="M547.832 227.4V261H540.056V233.64H533.336V227.4H547.832ZM569.845 239.928C571.989 239.928 573.941 240.36 575.701 241.224C577.461 242.088 578.853 243.32 579.877 244.92C580.901 246.488 581.413 248.312 581.413 250.392C581.413 252.632 580.853 254.6 579.733 256.296C578.613 257.992 577.077 259.304 575.125 260.232C573.205 261.128 571.061 261.576 568.693 261.576C563.989 261.576 560.309 260.136 557.653 257.256C554.997 254.376 553.669 250.264 553.669 244.92C553.669 241.112 554.389 237.848 555.829 235.128C557.269 232.408 559.269 230.344 561.829 228.936C564.421 227.528 567.413 226.824 570.805 226.824C572.597 226.824 574.309 227.032 575.941 227.448C577.605 227.832 579.013 228.392 580.165 229.128L577.285 234.84C575.621 233.72 573.525 233.16 570.997 233.16C568.149 233.16 565.893 233.992 564.229 235.656C562.565 237.32 561.669 239.736 561.541 242.904C563.525 240.92 566.293 239.928 569.845 239.928ZM568.261 255.768C569.925 255.768 571.269 255.32 572.293 254.424C573.349 253.528 573.877 252.312 573.877 250.776C573.877 249.24 573.349 248.024 572.293 247.128C571.269 246.2 569.893 245.736 568.165 245.736C566.469 245.736 565.077 246.216 563.989 247.176C562.901 248.104 562.357 249.304 562.357 250.776C562.357 252.248 562.885 253.448 563.941 254.376C564.997 255.304 566.437 255.768 568.261 255.768Z" fill="#FF0000"/>
<path d="M632.832 227.4V261H625.056V233.64H618.336V227.4H632.832ZM650.477 226.824C655.181 226.824 658.861 228.264 661.517 231.144C664.173 233.992 665.501 238.104 665.501 243.48C665.501 247.288 664.781 250.552 663.341 253.272C661.933 255.992 659.933 258.056 657.341 259.464C654.749 260.872 651.757 261.576 648.365 261.576C646.573 261.576 644.861 261.384 643.229 261C641.597 260.584 640.205 260.008 639.053 259.272L641.933 253.56C643.565 254.68 645.661 255.24 648.221 255.24C651.069 255.24 653.325 254.408 654.989 252.744C656.653 251.048 657.549 248.616 657.677 245.448C655.661 247.464 652.877 248.472 649.325 248.472C647.181 248.472 645.229 248.04 643.469 247.176C641.709 246.312 640.317 245.096 639.293 243.528C638.269 241.928 637.757 240.088 637.757 238.008C637.757 235.768 638.317 233.8 639.437 232.104C640.557 230.408 642.077 229.112 643.997 228.216C645.949 227.288 648.109 226.824 650.477 226.824ZM651.053 242.664C652.749 242.664 654.125 242.2 655.181 241.272C656.269 240.312 656.813 239.096 656.813 237.624C656.813 236.152 656.285 234.952 655.229 234.024C654.205 233.096 652.781 232.632 650.957 232.632C649.293 232.632 647.933 233.08 646.877 233.976C645.853 234.872 645.341 236.088 645.341 237.624C645.341 239.16 645.853 240.392 646.877 241.32C647.933 242.216 649.325 242.664 651.053 242.664Z" fill="#FF0000"/>
<path d="M372.832 32.4V66H365.056V38.64H358.336V32.4H372.832ZM403.773 59.664V66H378.381V60.96L391.341 48.72C392.717 47.408 393.645 46.288 394.125 45.36C394.605 44.4 394.845 43.456 394.845 42.528C394.845 41.184 394.381 40.16 393.453 39.456C392.557 38.72 391.229 38.352 389.469 38.352C387.997 38.352 386.669 38.64 385.485 39.216C384.301 39.76 383.309 40.592 382.509 41.712L376.845 38.064C378.157 36.112 379.965 34.592 382.269 33.504C384.573 32.384 387.213 31.824 390.189 31.824C392.685 31.824 394.861 32.24 396.717 33.072C398.605 33.872 400.061 35.024 401.085 36.528C402.141 38 402.669 39.744 402.669 41.76C402.669 43.584 402.285 45.296 401.517 46.896C400.749 48.496 399.261 50.32 397.053 52.368L389.325 59.664H403.773Z" fill="#FF0000"/>
<path d="M545.832 32.4V66H538.056V38.64H531.336V32.4H545.832ZM574.661 48.336C576.325 49.168 577.589 50.256 578.453 51.6C579.349 52.944 579.797 54.496 579.797 56.256C579.797 58.336 579.205 60.16 578.021 61.728C576.837 63.264 575.173 64.464 573.029 65.328C570.885 66.16 568.405 66.576 565.589 66.576C562.773 66.576 560.293 66.16 558.149 65.328C556.037 64.464 554.389 63.264 553.205 61.728C552.053 60.16 551.477 58.336 551.477 56.256C551.477 54.496 551.909 52.944 552.773 51.6C553.669 50.256 554.933 49.168 556.565 48.336C555.317 47.568 554.357 46.608 553.685 45.456C553.013 44.272 552.677 42.928 552.677 41.424C552.677 39.472 553.221 37.776 554.309 36.336C555.397 34.896 556.917 33.792 558.869 33.024C560.821 32.224 563.061 31.824 565.589 31.824C568.149 31.824 570.405 32.224 572.357 33.024C574.341 33.792 575.877 34.896 576.965 36.336C578.053 37.776 578.597 39.472 578.597 41.424C578.597 42.928 578.261 44.272 577.589 45.456C576.917 46.608 575.941 47.568 574.661 48.336ZM565.589 37.536C564.021 37.536 562.757 37.92 561.797 38.688C560.869 39.424 560.405 40.448 560.405 41.76C560.405 43.04 560.869 44.048 561.797 44.784C562.725 45.52 563.989 45.888 565.589 45.888C567.189 45.888 568.469 45.52 569.429 44.784C570.389 44.048 570.869 43.04 570.869 41.76C570.869 40.448 570.389 39.424 569.429 38.688C568.469 37.92 567.189 37.536 565.589 37.536ZM565.589 60.864C567.541 60.864 569.077 60.432 570.197 59.568C571.349 58.672 571.925 57.488 571.925 56.016C571.925 54.544 571.349 53.376 570.197 52.512C569.077 51.648 567.541 51.216 565.589 51.216C563.669 51.216 562.149 51.648 561.029 52.512C559.909 53.376 559.349 54.544 559.349 56.016C559.349 57.52 559.909 58.704 561.029 59.568C562.149 60.432 563.669 60.864 565.589 60.864Z" fill="#FF0000"/>
<path d="M643.976 59.664V66H618.584V60.96L631.544 48.72C632.92 47.408 633.848 46.288 634.328 45.36C634.808 44.4 635.048 43.456 635.048 42.528C635.048 41.184 634.584 40.16 633.656 39.456C632.76 38.72 631.432 38.352 629.672 38.352C628.2 38.352 626.872 38.64 625.688 39.216C624.504 39.76 623.512 40.592 622.712 41.712L617.048 38.064C618.36 36.112 620.168 34.592 622.472 33.504C624.776 32.384 627.416 31.824 630.392 31.824C632.888 31.824 635.064 32.24 636.92 33.072C638.808 33.872 640.264 35.024 641.288 36.528C642.344 38 642.872 39.744 642.872 41.76C642.872 43.584 642.488 45.296 641.72 46.896C640.952 48.496 639.464 50.32 637.256 52.368L629.528 59.664H643.976ZM660.145 32.4V66H652.368V38.64H645.649V32.4H660.145Z" fill="#FF0000"/>
<path d="M816.976 59.664V66H791.584V60.96L804.544 48.72C805.92 47.408 806.848 46.288 807.328 45.36C807.808 44.4 808.048 43.456 808.048 42.528C808.048 41.184 807.584 40.16 806.656 39.456C805.76 38.72 804.432 38.352 802.672 38.352C801.2 38.352 799.872 38.64 798.688 39.216C797.504 39.76 796.512 40.592 795.712 41.712L790.048 38.064C791.36 36.112 793.168 34.592 795.472 33.504C797.776 32.384 800.416 31.824 803.392 31.824C805.888 31.824 808.064 32.24 809.92 33.072C811.808 33.872 813.264 35.024 814.288 36.528C815.344 38 815.872 39.744 815.872 41.76C815.872 43.584 815.488 45.296 814.72 46.896C813.952 48.496 812.464 50.32 810.256 52.368L802.528 59.664H816.976ZM846.395 32.4V37.44L833.915 66H825.467L837.515 38.736H826.379V44.208H819.467V32.4H846.395Z" fill="#FF0000"/>
<path d="M815.976 253.664V260H790.584V254.96L803.544 242.72C804.92 241.408 805.848 240.288 806.328 239.36C806.808 238.4 807.048 237.456 807.048 236.528C807.048 235.184 806.584 234.16 805.656 233.456C804.76 232.72 803.432 232.352 801.672 232.352C800.2 232.352 798.872 232.64 797.688 233.216C796.504 233.76 795.512 234.592 794.712 235.712L789.048 232.064C790.36 230.112 792.168 228.592 794.472 227.504C796.776 226.384 799.416 225.824 802.392 225.824C804.888 225.824 807.064 226.24 808.92 227.072C810.808 227.872 812.264 229.024 813.288 230.528C814.344 232 814.872 233.744 814.872 235.76C814.872 237.584 814.488 239.296 813.72 240.896C812.952 242.496 811.464 244.32 809.256 246.368L801.528 253.664H815.976ZM830.705 239.024C835.441 239.024 838.929 239.968 841.169 241.856C843.441 243.744 844.577 246.272 844.577 249.44C844.577 251.488 844.065 253.36 843.041 255.056C842.017 256.72 840.449 258.064 838.337 259.088C836.257 260.08 833.681 260.576 830.609 260.576C828.241 260.576 825.905 260.272 823.601 259.664C821.329 259.024 819.393 258.128 817.793 256.976L820.865 251.024C822.145 251.984 823.617 252.736 825.281 253.28C826.945 253.792 828.657 254.048 830.417 254.048C832.369 254.048 833.905 253.664 835.025 252.896C836.145 252.128 836.705 251.056 836.705 249.68C836.705 248.24 836.113 247.152 834.929 246.416C833.777 245.68 831.761 245.312 828.881 245.312H820.289L822.017 226.4H842.513V232.64H828.497L827.969 239.024H830.705Z" fill="#FF0000"/>
<path d="M895.568 45.08C898.512 45.56 900.768 46.664 902.336 48.392C903.904 50.088 904.688 52.2 904.688 54.728C904.688 56.68 904.176 58.488 903.152 60.152C902.128 61.784 900.56 63.096 898.448 64.088C896.368 65.08 893.808 65.576 890.768 65.576C888.4 65.576 886.064 65.272 883.76 64.664C881.488 64.024 879.552 63.128 877.952 61.976L880.976 56.024C882.256 56.984 883.728 57.736 885.392 58.28C887.088 58.792 888.816 59.048 890.576 59.048C892.528 59.048 894.064 58.68 895.184 57.944C896.304 57.176 896.864 56.104 896.864 54.728C896.864 51.976 894.768 50.6 890.576 50.6H887.024V45.464L893.936 37.64H879.632V31.4H903.152V36.44L895.568 45.08ZM922.678 65.576C919.894 65.576 917.414 64.888 915.238 63.512C913.062 62.136 911.35 60.152 910.102 57.56C908.886 54.936 908.278 51.816 908.278 48.2C908.278 44.584 908.886 41.48 910.102 38.888C911.35 36.264 913.062 34.264 915.238 32.888C917.414 31.512 919.894 30.824 922.678 30.824C925.462 30.824 927.942 31.512 930.118 32.888C932.294 34.264 933.99 36.264 935.206 38.888C936.454 41.48 937.078 44.584 937.078 48.2C937.078 51.816 936.454 54.936 935.206 57.56C933.99 60.152 932.294 62.136 930.118 63.512C927.942 64.888 925.462 65.576 922.678 65.576ZM922.678 59C924.726 59 926.326 58.12 927.478 56.36C928.662 54.6 929.254 51.88 929.254 48.2C929.254 44.52 928.662 41.8 927.478 40.04C926.326 38.28 924.726 37.4 922.678 37.4C920.662 37.4 919.062 38.28 917.878 40.04C916.726 41.8 916.15 44.52 916.15 48.2C916.15 51.88 916.726 54.6 917.878 56.36C919.062 58.12 920.662 59 922.678 59Z" fill="#FF0000"/>
<path d="M982.568 141.08C985.512 141.56 987.768 142.664 989.336 144.392C990.904 146.088 991.688 148.2 991.688 150.728C991.688 152.68 991.176 154.488 990.152 156.152C989.128 157.784 987.56 159.096 985.448 160.088C983.368 161.08 980.808 161.576 977.768 161.576C975.4 161.576 973.064 161.272 970.76 160.664C968.488 160.024 966.552 159.128 964.952 157.976L967.976 152.024C969.256 152.984 970.728 153.736 972.392 154.28C974.088 154.792 975.816 155.048 977.576 155.048C979.528 155.048 981.064 154.68 982.184 153.944C983.304 153.176 983.864 152.104 983.864 150.728C983.864 147.976 981.768 146.6 977.576 146.6H974.024V141.464L980.936 133.64H966.632V127.4H990.152V132.44L982.568 141.08ZM1020.15 154.664V161H994.756V155.96L1007.72 143.72C1009.09 142.408 1010.02 141.288 1010.5 140.36C1010.98 139.4 1011.22 138.456 1011.22 137.528C1011.22 136.184 1010.76 135.16 1009.83 134.456C1008.93 133.72 1007.6 133.352 1005.84 133.352C1004.37 133.352 1003.04 133.64 1001.86 134.216C1000.68 134.76 999.684 135.592 998.884 136.712L993.22 133.064C994.532 131.112 996.34 129.592 998.644 128.504C1000.95 127.384 1003.59 126.824 1006.56 126.824C1009.06 126.824 1011.24 127.24 1013.09 128.072C1014.98 128.872 1016.44 130.024 1017.46 131.528C1018.52 133 1019.04 134.744 1019.04 136.76C1019.04 138.584 1018.66 140.296 1017.89 141.896C1017.12 143.496 1015.64 145.32 1013.43 147.368L1005.7 154.664H1020.15Z" fill="#FF0000"/>
<path d="M1072.57 45.08C1075.51 45.56 1077.77 46.664 1079.34 48.392C1080.9 50.088 1081.69 52.2 1081.69 54.728C1081.69 56.68 1081.18 58.488 1080.15 60.152C1079.13 61.784 1077.56 63.096 1075.45 64.088C1073.37 65.08 1070.81 65.576 1067.77 65.576C1065.4 65.576 1063.06 65.272 1060.76 64.664C1058.49 64.024 1056.55 63.128 1054.95 61.976L1057.98 56.024C1059.26 56.984 1060.73 57.736 1062.39 58.28C1064.09 58.792 1065.82 59.048 1067.58 59.048C1069.53 59.048 1071.06 58.68 1072.18 57.944C1073.3 57.176 1073.86 56.104 1073.86 54.728C1073.86 51.976 1071.77 50.6 1067.58 50.6H1064.02V45.464L1070.94 37.64H1056.63V31.4H1080.15V36.44L1072.57 45.08ZM1101.45 43.928C1103.6 43.928 1105.55 44.36 1107.31 45.224C1109.07 46.088 1110.46 47.32 1111.49 48.92C1112.51 50.488 1113.02 52.312 1113.02 54.392C1113.02 56.632 1112.46 58.6 1111.34 60.296C1110.22 61.992 1108.69 63.304 1106.73 64.232C1104.81 65.128 1102.67 65.576 1100.3 65.576C1095.6 65.576 1091.92 64.136 1089.26 61.256C1086.61 58.376 1085.28 54.264 1085.28 48.92C1085.28 45.112 1086 41.848 1087.44 39.128C1088.88 36.408 1090.88 34.344 1093.44 32.936C1096.03 31.528 1099.02 30.824 1102.41 30.824C1104.21 30.824 1105.92 31.032 1107.55 31.448C1109.21 31.832 1110.62 32.392 1111.77 33.128L1108.89 38.84C1107.23 37.72 1105.13 37.16 1102.61 37.16C1099.76 37.16 1097.5 37.992 1095.84 39.656C1094.17 41.32 1093.28 43.736 1093.15 46.904C1095.13 44.92 1097.9 43.928 1101.45 43.928ZM1099.87 59.768C1101.53 59.768 1102.88 59.32 1103.9 58.424C1104.96 57.528 1105.49 56.312 1105.49 54.776C1105.49 53.24 1104.96 52.024 1103.9 51.128C1102.88 50.2 1101.5 49.736 1099.77 49.736C1098.08 49.736 1096.69 50.216 1095.6 51.176C1094.51 52.104 1093.97 53.304 1093.97 54.776C1093.97 56.248 1094.49 57.448 1095.55 58.376C1096.61 59.304 1098.05 59.768 1099.87 59.768Z" fill="#FF0000"/>
<path d="M1070.57 240.08C1073.51 240.56 1075.77 241.664 1077.34 243.392C1078.9 245.088 1079.69 247.2 1079.69 249.728C1079.69 251.68 1079.18 253.488 1078.15 255.152C1077.13 256.784 1075.56 258.096 1073.45 259.088C1071.37 260.08 1068.81 260.576 1065.77 260.576C1063.4 260.576 1061.06 260.272 1058.76 259.664C1056.49 259.024 1054.55 258.128 1052.95 256.976L1055.98 251.024C1057.26 251.984 1058.73 252.736 1060.39 253.28C1062.09 253.792 1063.82 254.048 1065.58 254.048C1067.53 254.048 1069.06 253.68 1070.18 252.944C1071.3 252.176 1071.86 251.104 1071.86 249.728C1071.86 246.976 1069.77 245.6 1065.58 245.6H1062.02V240.464L1068.94 232.64H1054.63V226.4H1078.15V231.44L1070.57 240.08ZM1114.05 252.944H1108.57V260H1100.99V252.944H1082.89V247.712L1098.73 226.4H1106.89L1092.21 246.608H1101.23V240.32H1108.57V246.608H1114.05V252.944Z" fill="#FF0000"/>
<path d="M132.976 154.664V161H107.584V155.96L120.544 143.72C121.92 142.408 122.848 141.288 123.328 140.36C123.808 139.4 124.048 138.456 124.048 137.528C124.048 136.184 123.584 135.16 122.656 134.456C121.76 133.72 120.432 133.352 118.672 133.352C117.2 133.352 115.872 133.64 114.688 134.216C113.504 134.76 112.512 135.592 111.712 136.712L106.048 133.064C107.36 131.112 109.168 129.592 111.472 128.504C113.776 127.384 116.416 126.824 119.392 126.824C121.888 126.824 124.064 127.24 125.92 128.072C127.808 128.872 129.264 130.024 130.288 131.528C131.344 133 131.872 134.744 131.872 136.76C131.872 138.584 131.488 140.296 130.72 141.896C129.952 143.496 128.464 145.32 126.256 147.368L118.528 154.664H132.976Z" fill="black"/>
<path d="M211.048 44.928C213.192 44.928 215.144 45.36 216.904 46.224C218.664 47.088 220.056 48.32 221.08 49.92C222.104 51.488 222.616 53.312 222.616 55.392C222.616 57.632 222.056 59.6 220.936 61.296C219.816 62.992 218.28 64.304 216.328 65.232C214.408 66.128 212.264 66.576 209.896 66.576C205.192 66.576 201.512 65.136 198.856 62.256C196.2 59.376 194.872 55.264 194.872 49.92C194.872 46.112 195.592 42.848 197.032 40.128C198.472 37.408 200.472 35.344 203.032 33.936C205.624 32.528 208.616 31.824 212.008 31.824C213.8 31.824 215.512 32.032 217.144 32.448C218.808 32.832 220.216 33.392 221.368 34.128L218.488 39.84C216.824 38.72 214.728 38.16 212.2 38.16C209.352 38.16 207.096 38.992 205.432 40.656C203.768 42.32 202.872 44.736 202.744 47.904C204.728 45.92 207.496 44.928 211.048 44.928ZM209.464 60.768C211.128 60.768 212.472 60.32 213.496 59.424C214.552 58.528 215.08 57.312 215.08 55.776C215.08 54.24 214.552 53.024 213.496 52.128C212.472 51.2 211.096 50.736 209.368 50.736C207.672 50.736 206.28 51.216 205.192 52.176C204.104 53.104 203.56 54.304 203.56 55.776C203.56 57.248 204.088 58.448 205.144 59.376C206.2 60.304 207.64 60.768 209.464 60.768Z" fill="black"/>
<path d="M223.64 253.944H218.168V261H210.584V253.944H192.488V248.712L208.328 227.4H216.488L201.8 247.608H210.824V241.32H218.168V247.608H223.64V253.944Z" fill="black"/>
<path d="M301.864 143.336C303.528 144.168 304.792 145.256 305.656 146.6C306.552 147.944 307 149.496 307 151.256C307 153.336 306.408 155.16 305.224 156.728C304.04 158.264 302.376 159.464 300.232 160.328C298.088 161.16 295.608 161.576 292.792 161.576C289.976 161.576 287.496 161.16 285.352 160.328C283.24 159.464 281.592 158.264 280.408 156.728C279.256 155.16 278.68 153.336 278.68 151.256C278.68 149.496 279.112 147.944 279.976 146.6C280.872 145.256 282.136 144.168 283.768 143.336C282.52 142.568 281.56 141.608 280.888 140.456C280.216 139.272 279.88 137.928 279.88 136.424C279.88 134.472 280.424 132.776 281.512 131.336C282.6 129.896 284.12 128.792 286.072 128.024C288.024 127.224 290.264 126.824 292.792 126.824C295.352 126.824 297.608 127.224 299.56 128.024C301.544 128.792 303.08 129.896 304.168 131.336C305.256 132.776 305.8 134.472 305.8 136.424C305.8 137.928 305.464 139.272 304.792 140.456C304.12 141.608 303.144 142.568 301.864 143.336ZM292.792 132.536C291.224 132.536 289.96 132.92 289 133.688C288.072 134.424 287.608 135.448 287.608 136.76C287.608 138.04 288.072 139.048 289 139.784C289.928 140.52 291.192 140.888 292.792 140.888C294.392 140.888 295.672 140.52 296.632 139.784C297.592 139.048 298.072 138.04 298.072 136.76C298.072 135.448 297.592 134.424 296.632 133.688C295.672 132.92 294.392 132.536 292.792 132.536ZM292.792 155.864C294.744 155.864 296.28 155.432 297.4 154.568C298.552 153.672 299.128 152.488 299.128 151.016C299.128 149.544 298.552 148.376 297.4 147.512C296.28 146.648 294.744 146.216 292.792 146.216C290.872 146.216 289.352 146.648 288.232 147.512C287.112 148.376 286.552 149.544 286.552 151.016C286.552 152.52 287.112 153.704 288.232 154.568C289.352 155.432 290.872 155.864 292.792 155.864Z" fill="black"/>
<path d="M373.832 227.4V261H366.056V233.64H359.336V227.4H373.832ZM394.069 261.576C391.285 261.576 388.805 260.888 386.629 259.512C384.453 258.136 382.741 256.152 381.493 253.56C380.277 250.936 379.669 247.816 379.669 244.2C379.669 240.584 380.277 237.48 381.493 234.888C382.741 232.264 384.453 230.264 386.629 228.888C388.805 227.512 391.285 226.824 394.069 226.824C396.853 226.824 399.333 227.512 401.509 228.888C403.685 230.264 405.381 232.264 406.597 234.888C407.845 237.48 408.469 240.584 408.469 244.2C408.469 247.816 407.845 250.936 406.597 253.56C405.381 256.152 403.685 258.136 401.509 259.512C399.333 260.888 396.853 261.576 394.069 261.576ZM394.069 255C396.117 255 397.717 254.12 398.869 252.36C400.053 250.6 400.645 247.88 400.645 244.2C400.645 240.52 400.053 237.8 398.869 236.04C397.717 234.28 396.117 233.4 394.069 233.4C392.053 233.4 390.453 234.28 389.269 236.04C388.117 237.8 387.541 240.52 387.541 244.2C387.541 247.88 388.117 250.6 389.269 252.36C390.453 254.12 392.053 255 394.069 255Z" fill="black"/>
<path d="M459.832 227.4V261H452.056V233.64H445.336V227.4H459.832ZM481.365 241.08C484.309 241.56 486.565 242.664 488.133 244.392C489.701 246.088 490.485 248.2 490.485 250.728C490.485 252.68 489.973 254.488 488.949 256.152C487.925 257.784 486.357 259.096 484.245 260.088C482.165 261.08 479.605 261.576 476.565 261.576C474.197 261.576 471.861 261.272 469.557 260.664C467.285 260.024 465.349 259.128 463.749 257.976L466.773 252.024C468.053 252.984 469.525 253.736 471.189 254.28C472.885 254.792 474.613 255.048 476.373 255.048C478.325 255.048 479.861 254.68 480.981 253.944C482.101 253.176 482.661 252.104 482.661 250.728C482.661 247.976 480.565 246.6 476.373 246.6H472.821V241.464L479.733 233.64H465.429V227.4H488.949V232.44L481.365 241.08Z" fill="black"/>
<path d="M462.832 32.4V66H455.056V38.64H448.336V32.4H462.832ZM480.189 45.024C484.925 45.024 488.413 45.968 490.653 47.856C492.925 49.744 494.061 52.272 494.061 55.44C494.061 57.488 493.549 59.36 492.525 61.056C491.501 62.72 489.933 64.064 487.821 65.088C485.741 66.08 483.165 66.576 480.093 66.576C477.725 66.576 475.389 66.272 473.085 65.664C470.813 65.024 468.877 64.128 467.277 62.976L470.349 57.024C471.629 57.984 473.101 58.736 474.765 59.28C476.429 59.792 478.141 60.048 479.901 60.048C481.853 60.048 483.389 59.664 484.509 58.896C485.629 58.128 486.189 57.056 486.189 55.68C486.189 54.24 485.597 53.152 484.413 52.416C483.261 51.68 481.245 51.312 478.365 51.312H469.773L471.501 32.4H491.997V38.64H477.981L477.453 45.024H480.189Z" fill="black"/>
<path d="M727.976 59.664V66H702.584V60.96L715.544 48.72C716.92 47.408 717.848 46.288 718.328 45.36C718.808 44.4 719.048 43.456 719.048 42.528C719.048 41.184 718.584 40.16 717.656 39.456C716.76 38.72 715.432 38.352 713.672 38.352C712.2 38.352 710.872 38.64 709.688 39.216C708.504 39.76 707.512 40.592 706.712 41.712L701.048 38.064C702.36 36.112 704.168 34.592 706.472 33.504C708.776 32.384 711.416 31.824 714.392 31.824C716.888 31.824 719.064 32.24 720.92 33.072C722.808 33.872 724.264 35.024 725.288 36.528C726.344 38 726.872 39.744 726.872 41.76C726.872 43.584 726.488 45.296 725.72 46.896C724.952 48.496 723.464 50.32 721.256 52.368L713.528 59.664H727.976ZM761.484 58.944H756.012V66H748.428V58.944H730.332V53.712L746.172 32.4H754.332L739.644 52.608H748.668V46.32H756.012V52.608H761.484V58.944Z" fill="black"/>
<path d="M727.976 254.664V261H702.584V255.96L715.544 243.72C716.92 242.408 717.848 241.288 718.328 240.36C718.808 239.4 719.048 238.456 719.048 237.528C719.048 236.184 718.584 235.16 717.656 234.456C716.76 233.72 715.432 233.352 713.672 233.352C712.2 233.352 710.872 233.64 709.688 234.216C708.504 234.76 707.512 235.592 706.712 236.712L701.048 233.064C702.36 231.112 704.168 229.592 706.472 228.504C708.776 227.384 711.416 226.824 714.392 226.824C716.888 226.824 719.064 227.24 720.92 228.072C722.808 228.872 724.264 230.024 725.288 231.528C726.344 233 726.872 234.744 726.872 236.76C726.872 238.584 726.488 240.296 725.72 241.896C724.952 243.496 723.464 245.32 721.256 247.368L713.528 254.664H727.976ZM756.289 254.664V261H730.896V255.96L743.857 243.72C745.233 242.408 746.161 241.288 746.641 240.36C747.121 239.4 747.361 238.456 747.361 237.528C747.361 236.184 746.897 235.16 745.969 234.456C745.073 233.72 743.745 233.352 741.984 233.352C740.513 233.352 739.185 233.64 738.001 234.216C736.817 234.76 735.825 235.592 735.025 236.712L729.361 233.064C730.673 231.112 732.481 229.592 734.785 228.504C737.089 227.384 739.729 226.824 742.705 226.824C745.201 226.824 747.377 227.24 749.233 228.072C751.121 228.872 752.577 230.024 753.601 231.528C754.657 233 755.185 234.744 755.185 236.76C755.185 238.584 754.801 240.296 754.033 241.896C753.265 243.496 751.777 245.32 749.569 247.368L741.841 254.664H756.289Z" fill="black"/>
<path d="M904.976 253.664V260H879.584V254.96L892.544 242.72C893.92 241.408 894.848 240.288 895.328 239.36C895.808 238.4 896.048 237.456 896.048 236.528C896.048 235.184 895.584 234.16 894.656 233.456C893.76 232.72 892.432 232.352 890.672 232.352C889.2 232.352 887.872 232.64 886.688 233.216C885.504 233.76 884.512 234.592 883.712 235.712L878.048 232.064C879.36 230.112 881.168 228.592 883.472 227.504C885.776 226.384 888.416 225.824 891.392 225.824C893.888 225.824 896.064 226.24 897.92 227.072C899.808 227.872 901.264 229.024 902.288 230.528C903.344 232 903.872 233.744 903.872 235.76C903.872 237.584 903.488 239.296 902.72 240.896C901.952 242.496 900.464 244.32 898.256 246.368L890.528 253.664H904.976ZM931.177 242.336C932.841 243.168 934.105 244.256 934.969 245.6C935.865 246.944 936.312 248.496 936.312 250.256C936.312 252.336 935.72 254.16 934.536 255.728C933.352 257.264 931.689 258.464 929.545 259.328C927.401 260.16 924.921 260.576 922.105 260.576C919.289 260.576 916.809 260.16 914.665 259.328C912.553 258.464 910.905 257.264 909.721 255.728C908.569 254.16 907.993 252.336 907.993 250.256C907.993 248.496 908.425 246.944 909.289 245.6C910.185 244.256 911.449 243.168 913.081 242.336C911.833 241.568 910.873 240.608 910.201 239.456C909.529 238.272 909.193 236.928 909.193 235.424C909.193 233.472 909.737 231.776 910.825 230.336C911.913 228.896 913.433 227.792 915.385 227.024C917.337 226.224 919.577 225.824 922.105 225.824C924.665 225.824 926.921 226.224 928.873 227.024C930.857 227.792 932.393 228.896 933.481 230.336C934.569 231.776 935.113 233.472 935.113 235.424C935.113 236.928 934.777 238.272 934.105 239.456C933.433 240.608 932.457 241.568 931.177 242.336ZM922.105 231.536C920.537 231.536 919.273 231.92 918.312 232.688C917.385 233.424 916.921 234.448 916.921 235.76C916.921 237.04 917.385 238.048 918.312 238.784C919.241 239.52 920.505 239.888 922.105 239.888C923.705 239.888 924.985 239.52 925.945 238.784C926.905 238.048 927.385 237.04 927.385 235.76C927.385 234.448 926.905 233.424 925.945 232.688C924.985 231.92 923.705 231.536 922.105 231.536ZM922.105 254.864C924.057 254.864 925.593 254.432 926.713 253.568C927.865 252.672 928.441 251.488 928.441 250.016C928.441 248.544 927.865 247.376 926.713 246.512C925.593 245.648 924.057 245.216 922.105 245.216C920.185 245.216 918.665 245.648 917.545 246.512C916.425 247.376 915.865 248.544 915.865 250.016C915.865 251.52 916.425 252.704 917.545 253.568C918.665 254.432 920.185 254.864 922.105 254.864Z" fill="black"/>
<path d="M986.568 240.08C989.512 240.56 991.768 241.664 993.336 243.392C994.904 245.088 995.688 247.2 995.688 249.728C995.688 251.68 995.176 253.488 994.152 255.152C993.128 256.784 991.56 258.096 989.448 259.088C987.368 260.08 984.808 260.576 981.768 260.576C979.4 260.576 977.064 260.272 974.76 259.664C972.488 259.024 970.552 258.128 968.952 256.976L971.976 251.024C973.256 251.984 974.728 252.736 976.392 253.28C978.088 253.792 979.816 254.048 981.576 254.048C983.528 254.048 985.064 253.68 986.184 252.944C987.304 252.176 987.864 251.104 987.864 249.728C987.864 246.976 985.768 245.6 981.576 245.6H978.024V240.464L984.936 232.64H970.632V226.4H994.152V231.44L986.568 240.08ZM1012.24 226.4V260H1004.46V232.64H997.742V226.4H1012.24Z" fill="black"/>
<path d="M982.568 45.08C985.512 45.56 987.768 46.664 989.336 48.392C990.904 50.088 991.688 52.2 991.688 54.728C991.688 56.68 991.176 58.488 990.152 60.152C989.128 61.784 987.56 63.096 985.448 64.088C983.368 65.08 980.808 65.576 977.768 65.576C975.4 65.576 973.064 65.272 970.76 64.664C968.488 64.024 966.552 63.128 964.952 61.976L967.976 56.024C969.256 56.984 970.728 57.736 972.392 58.28C974.088 58.792 975.816 59.048 977.576 59.048C979.528 59.048 981.064 58.68 982.184 57.944C983.304 57.176 983.864 56.104 983.864 54.728C983.864 51.976 981.768 50.6 977.576 50.6H974.024V45.464L980.936 37.64H966.632V31.4H990.152V36.44L982.568 45.08ZM1010.74 45.08C1013.68 45.56 1015.94 46.664 1017.51 48.392C1019.08 50.088 1019.86 52.2 1019.86 54.728C1019.86 56.68 1019.35 58.488 1018.32 60.152C1017.3 61.784 1015.73 63.096 1013.62 64.088C1011.54 65.08 1008.98 65.576 1005.94 65.576C1003.57 65.576 1001.24 65.272 998.932 64.664C996.66 64.024 994.724 63.128 993.124 61.976L996.148 56.024C997.428 56.984 998.9 57.736 1000.56 58.28C1002.26 58.792 1003.99 59.048 1005.75 59.048C1007.7 59.048 1009.24 58.68 1010.36 57.944C1011.48 57.176 1012.04 56.104 1012.04 54.728C1012.04 51.976 1009.94 50.6 1005.75 50.6H1002.2V45.464L1009.11 37.64H994.804V31.4H1018.32V36.44L1010.74 45.08Z" fill="black"/>
<path d="M1073.57 143.08C1076.51 143.56 1078.77 144.664 1080.34 146.392C1081.9 148.088 1082.69 150.2 1082.69 152.728C1082.69 154.68 1082.18 156.488 1081.15 158.152C1080.13 159.784 1078.56 161.096 1076.45 162.088C1074.37 163.08 1071.81 163.576 1068.77 163.576C1066.4 163.576 1064.06 163.272 1061.76 162.664C1059.49 162.024 1057.55 161.128 1055.95 159.976L1058.98 154.024C1060.26 154.984 1061.73 155.736 1063.39 156.28C1065.09 156.792 1066.82 157.048 1068.58 157.048C1070.53 157.048 1072.06 156.68 1073.18 155.944C1074.3 155.176 1074.86 154.104 1074.86 152.728C1074.86 149.976 1072.77 148.6 1068.58 148.6H1065.02V143.464L1071.94 135.64H1057.63V129.4H1081.15V134.44L1073.57 143.08ZM1097.33 142.024C1102.07 142.024 1105.55 142.968 1107.79 144.856C1110.07 146.744 1111.2 149.272 1111.2 152.44C1111.2 154.488 1110.69 156.36 1109.67 158.056C1108.64 159.72 1107.07 161.064 1104.96 162.088C1102.88 163.08 1100.31 163.576 1097.23 163.576C1094.87 163.576 1092.53 163.272 1090.23 162.664C1087.95 162.024 1086.02 161.128 1084.42 159.976L1087.49 154.024C1088.77 154.984 1090.24 155.736 1091.91 156.28C1093.57 156.792 1095.28 157.048 1097.04 157.048C1098.99 157.048 1100.53 156.664 1101.65 155.896C1102.77 155.128 1103.33 154.056 1103.33 152.68C1103.33 151.24 1102.74 150.152 1101.55 149.416C1100.4 148.68 1098.39 148.312 1095.51 148.312H1086.91L1088.64 129.4H1109.14V135.64H1095.12L1094.59 142.024H1097.33Z" fill="black"/>
<line x1="74.504" y1="757.036" x2="71.4997" y2="963.036" stroke="#FF0000" stroke-width="5"/>
<line x1="1120.5" y1="759.049" x2="1116.5" y2="963.049" stroke="#FF0000" stroke-width="5"/>
<rect x="73.5" y="2.5" width="1136" height="293" stroke="black" stroke-width="5"/>
<rect x="73.5" y="295.5" width="1048" height="154" stroke="black" stroke-width="5"/>
<line x1="73.0044" y1="96.5" x2="1212" y2="98.5" stroke="black" stroke-width="5"/>
<line x1="71.0044" y1="193.5" x2="1205" y2="195.5" stroke="black" stroke-width="5"/>
<line x1="70.0044" y1="369.5" x2="1123" y2="371.357" stroke="black" stroke-width="5"/>
<line x1="162.5" y1="2" x2="162.5" y2="298" stroke="black" stroke-width="5"/>
<line x1="251.5" y1="2" x2="251.5" y2="298" stroke="black" stroke-width="5"/>
<line x1="338.5" y1="2" x2="338.5" y2="298" stroke="black" stroke-width="5"/>
<line x1="423.5" x2="423.5" y2="296" stroke="black" stroke-width="5"/>
<line x1="423.5" y1="156" x2="423.5" y2="452" stroke="black" stroke-width="5"/>
<line x1="510.5" y1="2" x2="510.5" y2="298" stroke="black" stroke-width="5"/>
<line x1="596.5" y1="2" x2="596.5" y2="298" stroke="black" stroke-width="5"/>
<line x1="682.5" y1="2" x2="682.5" y2="298" stroke="black" stroke-width="5"/>
<line x1="772.5" x2="772.5" y2="296" stroke="black" stroke-width="5"/>
<line x1="772.5" y1="150" x2="772.5" y2="446" stroke="black" stroke-width="5"/>
<line x1="246.5" y1="373" x2="246.5" y2="452" stroke="black" stroke-width="5"/>
<line x1="948.5" y1="374" x2="948.5" y2="453" stroke="black" stroke-width="5"/>
<line x1="860.5" x2="860.5" y2="296" stroke="black" stroke-width="5"/>
<line x1="948.5" y1="2" x2="948.5" y2="298" stroke="black" stroke-width="5"/>
<line x1="1035.5" y1="2" x2="1035.5" y2="298" stroke="black" stroke-width="5"/>
<line x1="1122.5" x2="1122.5" y2="296" stroke="black" stroke-width="5"/>
<rect x="171.5" y="304.5" width="153" height="51" stroke="black" stroke-width="5"/>
<rect x="526.5" y="303.5" width="147" height="54" stroke="black" stroke-width="5"/>
<rect x="872.5" y="303.5" width="147" height="54" stroke="black" stroke-width="5"/>
<path d="M511.5 380L449 408H574.07L511.5 380Z" fill="#FF0404"/>
<path d="M511.5 436L449 408H574L511.5 436Z" fill="#FF0404"/>
<path d="M685.5 380L623 408H748.07L685.5 380Z" fill="#0E0E0E"/>
<path d="M685.5 436L623 408H748L685.5 436Z" fill="#0E0E0E"/>
<line x1="73.5" y1="448" x2="73.5" y2="621" stroke="black" stroke-width="5"/>
<line x1="1121.5" y1="372.009" x2="1120.5" y2="659.009" stroke="black" stroke-width="5"/>
<path d="M131.102 681.5C150.102 713 129.102 758.5 74.3169 729.5C67.1019 733 28.1019 756 9.60194 719.5C-12.8981 689.5 53.3169 642 74.3169 617C95.8169 641.5 111.102 656.5 131.102 681.5Z" fill="black"/>
<path d="M66.5091 731L65.5434 739.818L62.5434 748.318L57.0434 755.318" stroke="black" stroke-width="3"/>
<path d="M81.4377 731L82.4034 739.818L85.4034 748.318L90.9034 755.318" stroke="black" stroke-width="3"/>
<rect x="66" y="727" width="15" height="29" fill="black"/>
<path d="M86.5 753.5C94 754 82.8807 756 81.5 756C80.1193 756 79 752.194 79 747.5C79 742.806 80.1193 739 81.5 739C82.8807 739 91 757 86.5 753.5Z" fill="black"/>
<path d="M61.5771 753.5C54.0771 754 65.1964 756 66.5771 756C67.9579 756 69.0771 752.194 69.0771 747.5C69.0771 742.806 67.9579 739 66.5771 739C65.1964 739 57.0771 757 61.5771 753.5Z" fill="black"/>
<path d="M140.078 959.528C146.545 993.816 106.578 1034.53 69.578 1062.03C30.078 1031.03 -4.95479 989.815 0.577965 959.528C19.5452 903.815 69.578 954.028 69.578 952.027C71.578 956.528 111.545 899.816 140.078 959.528Z" fill="#DB1B1B"/>
<path d="M1109.2 726.661L1109.23 742.704L1106.17 757.603L1099.12 769.043" stroke="black" stroke-width="3"/>
<path d="M1126.9 726.631L1126.83 742.71L1129.89 757.623L1136.99 769.044" stroke="black" stroke-width="3"/>
<rect x="1110" y="711" width="16" height="59" fill="black"/>
<path d="M1131.99 765.735C1140.92 766.588 1127.68 770 1126.03 770C1124.39 770 1123.05 763.508 1123.05 755.5C1123.05 747.492 1124.39 741 1126.03 741C1127.68 741 1137.34 771.706 1131.99 765.735Z" fill="black"/>
<path d="M1104.12 765.735C1095.19 766.588 1108.43 770 1110.08 770C1111.72 770 1113.05 763.508 1113.05 755.5C1113.05 747.492 1111.72 741 1110.08 741C1108.43 741 1098.76 771.706 1104.12 765.735Z" fill="black"/>
<ellipse cx="1118.05" cy="666.5" rx="29" ry="31.5" fill="black"/>
<path d="M1120.5 708C1120.5 725.397 1098.02 748.5 1082 748.5C1065.98 748.5 1053 734.397 1053 717C1053 699.603 1065.98 685.5 1082 685.5C1098.02 685.5 1120.5 690.603 1120.5 708Z" fill="black"/>
<path d="M1185.05 715.5C1185.05 732.897 1172.07 747 1156.05 747C1140.04 747 1103.05 710.397 1103.05 693C1103.05 675.603 1140.04 684 1156.05 684C1172.07 684 1185.05 698.103 1185.05 715.5Z" fill="black"/>
<path d="M1116.47 941L1177 1014H1056L1116.47 941Z" fill="#DB1B1B"/>
<path d="M1116.5 1087L1177 1014H1056L1116.5 1087Z" fill="#DB1B1B"/>
</svg>
