<svg width="1009" height="331" viewBox="0 0 1009 331" fill="none" xmlns="http://www.w3.org/2000/svg">
<rect width="1007.69" height="328" transform="matrix(0.999997 -0.00233341 0.00221129 0.999998 0 2.35156)" fill="black"/>
<path d="M894.936 173.629C890.214 210.27 854.675 236.277 815.211 231.284C775.747 226.292 747.943 192.273 752.665 155.632C757.387 118.991 792.926 92.9843 832.39 97.9763C871.854 102.968 899.658 136.988 894.936 173.629Z" fill="white" fill-opacity="0.87" stroke="white" stroke-width="6"/>
<path d="M816.381 95.642L818.558 95.2873L823.8 95.3204L826.401 95.4919L829.144 95.8388L835.435 96.6347L838.778 97.2769L842.093 98.1348L838.729 119.42L813.885 116.277L816.381 95.642Z" fill="#373434"/>
<path d="M756.751 130.322L757.82 128.426L761.1 124.433L762.852 122.552L764.831 120.677L769.372 116.373L771.96 114.229L774.703 112.245L789.606 128.578L771.675 145.569L756.751 130.322Z" fill="#373434"/>
<path d="M762.138 203.73L760.698 202.093L758.015 197.685L756.821 195.416L755.708 192.936L753.156 187.246L751.994 184.108L751.036 180.879L771.577 172.482L781.655 194.948L762.138 203.73Z" fill="#373434"/>
<path d="M889.25 198.211L888.321 200.178L885.336 204.392L883.724 206.392L881.885 208.403L877.665 213.017L875.239 215.339L872.646 217.512L856.604 202.276L873.266 184.058L889.25 198.211Z" fill="#373434"/>
<path d="M884.099 126.452L885.595 128.039L888.428 132.354L889.7 134.582L890.897 137.023L893.644 142.622L894.914 145.719L895.982 148.914L875.743 158.002L864.896 135.89L884.099 126.452Z" fill="#373434"/>
<path d="M798.965 230.78L800.98 231.69L806.059 232.986L808.62 233.474L811.362 233.821L817.654 234.617L821.053 234.819L824.481 234.797L826.729 212.536L801.885 209.393L798.965 230.78Z" fill="#373434"/>
<path fill-rule="evenodd" clip-rule="evenodd" d="M818.239 205.793C843.335 208.968 865.777 193.009 868.675 170.524C871.572 148.04 853.897 127.006 828.802 123.831C803.706 120.657 781.264 136.616 778.366 159.1C775.468 181.585 793.144 202.619 818.239 205.793ZM817.957 207.985C844.129 211.296 867.837 194.651 870.91 170.807C873.983 146.963 855.257 124.95 829.084 121.64C802.911 118.329 779.203 134.974 776.131 158.818C773.058 182.661 791.784 204.674 817.957 207.985Z" fill="white"/>
<path d="M264.499 175.1C259.777 211.741 224.238 237.748 184.774 232.756C145.31 227.764 117.506 193.744 122.228 157.103C126.95 120.462 162.489 94.4554 201.953 99.4475C241.417 104.44 269.221 138.459 264.499 175.1Z" fill="white" fill-opacity="0.87" stroke="white" stroke-width="6"/>
<path d="M185.944 97.1132L188.121 96.7585L193.363 96.7916L195.964 96.9631L198.707 97.31L204.998 98.1059L208.341 98.748L211.656 99.606L208.292 120.891L183.448 117.748L185.944 97.1132Z" fill="#373434"/>
<path d="M126.314 131.794L127.383 129.897L130.663 125.905L132.415 124.024L134.394 122.148L138.935 117.845L141.523 115.701L144.266 113.717L159.169 130.049L141.238 147.041L126.314 131.794Z" fill="#373434"/>
<path d="M131.701 205.202L130.262 203.565L127.579 199.156L126.384 196.887L125.272 194.407L122.719 188.718L121.557 185.579L120.6 182.351L141.14 173.953L151.219 196.419L131.701 205.202Z" fill="#373434"/>
<path d="M258.813 199.681L257.884 201.648L254.899 205.863L253.287 207.863L251.448 209.874L247.229 214.487L244.802 216.809L242.209 218.982L226.167 203.746L242.829 185.529L258.813 199.681Z" fill="#373434"/>
<path d="M253.662 127.923L255.158 129.51L257.991 133.825L259.263 136.053L260.46 138.494L263.207 144.093L264.477 147.191L265.545 150.385L245.306 159.473L234.459 137.362L253.662 127.923Z" fill="#373434"/>
<path d="M168.528 232.252L170.543 233.161L175.622 234.458L178.183 234.945L180.925 235.292L187.217 236.088L190.616 236.29L194.045 236.268L196.293 214.007L171.449 210.865L168.528 232.252Z" fill="#373434"/>
<path fill-rule="evenodd" clip-rule="evenodd" d="M187.802 207.264C212.898 210.439 235.34 194.48 238.238 171.995C241.136 149.51 223.46 128.476 198.365 125.302C173.269 122.127 150.827 138.087 147.929 160.571C145.032 183.056 162.707 204.09 187.802 207.264ZM187.52 209.456C213.693 212.766 237.401 196.121 240.473 172.278C243.546 148.434 224.82 126.421 198.647 123.11C172.475 119.8 148.767 136.445 145.694 160.288C142.621 184.132 161.347 206.145 187.52 209.456Z" fill="white"/>
<path d="M357.837 128.361L357.986 195.561L342.434 195.597L342.373 168.045L311.845 168.117L311.906 195.669L296.354 195.705L296.206 128.505L311.757 128.469L311.816 154.965L342.344 154.894L342.285 128.398L357.837 128.361ZM397.864 196.236C392.424 196.249 387.526 195.14 383.169 192.91C378.876 190.616 375.509 187.456 373.068 183.43C370.627 179.404 369.401 174.83 369.39 169.71C369.378 164.59 370.584 160.012 373.007 155.974C375.43 151.936 378.783 148.792 383.066 146.542C387.413 144.228 392.307 143.065 397.747 143.052C403.187 143.04 408.053 144.18 412.346 146.474C416.639 148.704 420.006 151.832 422.447 155.859C424.888 159.885 426.114 164.458 426.125 169.578C426.137 174.698 424.931 179.277 422.508 183.315C420.085 187.352 416.732 190.528 412.449 192.842C408.166 195.092 403.304 196.223 397.864 196.236ZM397.837 183.948C401.677 183.939 404.81 182.652 407.237 180.086C409.727 177.456 410.967 173.965 410.957 169.613C410.948 165.261 409.692 161.808 407.191 159.254C404.753 156.636 401.614 155.331 397.774 155.34C393.934 155.349 390.769 156.669 388.279 159.298C385.788 161.864 384.548 165.323 384.558 169.675C384.567 174.027 385.823 177.512 388.325 180.13C390.826 182.684 393.997 183.957 397.837 183.948ZM475.879 168.31C481.964 170.344 485.013 174.433 485.026 180.577C485.037 185.249 483.285 188.869 479.77 191.437C476.256 194.005 471.011 195.297 464.035 195.314L436.483 195.378L436.369 143.73L462.769 143.668C469.233 143.653 474.291 144.826 477.944 147.185C481.598 149.481 483.429 152.74 483.438 156.964C483.444 159.524 482.777 161.798 481.437 163.785C480.161 165.708 478.309 167.216 475.879 168.31ZM450.144 164.914L461.472 164.888C466.72 164.875 469.339 163.013 469.331 159.301C469.323 155.653 466.695 153.835 461.447 153.848L450.119 153.874L450.144 164.914ZM462.764 185.141C468.268 185.128 471.016 183.233 471.008 179.457C471.003 177.473 470.36 176.035 469.078 175.142C467.796 174.185 465.779 173.71 463.027 173.716L450.163 173.746L450.188 185.17L462.764 185.141ZM496.087 143.591L510.967 143.556L511.035 174.276L536.119 143.497L549.847 143.465L549.961 195.113L535.081 195.148L535.014 164.428L510.026 195.206L496.202 195.239L496.087 143.591ZM564.243 143.432L579.123 143.397L579.168 163.557L601.632 163.505L601.587 143.345L616.563 143.31L616.677 194.958L601.702 194.992L601.659 175.696L579.195 175.749L579.238 195.045L564.358 195.08L564.243 143.432ZM653.722 175.287L645.946 175.305L645.99 194.889L631.014 194.924L630.899 143.276L645.875 143.241L645.92 163.305L653.984 163.286L667.955 143.19L683.891 143.153L665.898 167.963L685.254 194.797L667.59 194.839L653.722 175.287ZM711.618 142.32C719.618 142.301 725.766 144.207 730.062 148.037C734.359 151.803 736.515 157.526 736.532 165.206L736.598 194.678L722.582 194.71L722.567 188.278C719.762 193.085 714.519 195.497 706.839 195.515C702.871 195.524 699.414 194.86 696.467 193.523C693.584 192.186 691.372 190.335 689.831 187.971C688.289 185.606 687.516 182.92 687.509 179.912C687.498 175.112 689.282 171.332 692.86 168.572C696.502 165.811 702.099 164.422 709.651 164.404L721.555 164.377C721.547 161.113 720.55 158.619 718.562 156.896C716.574 155.108 713.596 154.219 709.628 154.229C706.876 154.235 704.157 154.689 701.471 155.592C698.849 156.43 696.612 157.587 694.759 159.063L689.36 148.612C692.171 146.621 695.528 145.077 699.429 143.98C703.395 142.883 707.458 142.33 711.618 142.32ZM710.561 185.426C713.121 185.42 715.392 184.839 717.373 183.683C719.355 182.462 720.759 180.699 721.586 178.393L721.574 173.113L711.302 173.137C705.158 173.151 702.09 175.174 702.099 179.206C702.104 181.126 702.843 182.66 704.318 183.809C705.856 184.893 707.937 185.433 710.561 185.426Z" fill="white"/>
</svg>
