<svg width="1142" height="452" viewBox="0 0 1142 452" fill="none" xmlns="http://www.w3.org/2000/svg">
<path d="M832.568 329.08C835.512 329.56 837.768 330.664 839.336 332.392C840.904 334.088 841.688 336.2 841.688 338.728C841.688 340.68 841.176 342.488 840.152 344.152C839.128 345.784 837.56 347.096 835.448 348.088C833.368 349.08 830.808 349.576 827.768 349.576C825.4 349.576 823.064 349.272 820.76 348.664C818.488 348.024 816.552 347.128 814.952 345.976L817.976 340.024C819.256 340.984 820.728 341.736 822.392 342.28C824.088 342.792 825.816 343.048 827.576 343.048C829.528 343.048 831.064 342.68 832.184 341.944C833.304 341.176 833.864 340.104 833.864 338.728C833.864 335.976 831.768 334.6 827.576 334.6H824.024V329.464L830.936 321.64H816.632V315.4H840.152V320.44L832.568 329.08Z" fill="black"/>
<path d="M136.832 315.4V349H129.056V321.64H122.336V315.4H136.832Z" fill="black"/>
<path d="M148.512 332.288C147.184 332.288 145.896 332.112 144.648 331.76C143.416 331.392 142.424 330.92 141.672 330.344L142.992 327.416C143.712 327.944 144.568 328.368 145.56 328.688C146.552 329.008 147.544 329.168 148.536 329.168C149.64 329.168 150.456 329.008 150.984 328.688C151.512 328.352 151.776 327.912 151.776 327.368C151.776 326.968 151.616 326.64 151.296 326.384C150.992 326.112 150.592 325.896 150.096 325.736C149.616 325.576 148.96 325.4 148.128 325.208C146.848 324.904 145.8 324.6 144.984 324.296C144.168 323.992 143.464 323.504 142.872 322.832C142.296 322.16 142.008 321.264 142.008 320.144C142.008 319.168 142.272 318.288 142.8 317.504C143.328 316.704 144.12 316.072 145.176 315.608C146.248 315.144 147.552 314.912 149.088 314.912C150.16 314.912 151.208 315.04 152.232 315.296C153.256 315.552 154.152 315.92 154.92 316.4L153.72 319.352C152.168 318.472 150.616 318.032 149.064 318.032C147.976 318.032 147.168 318.208 146.64 318.56C146.128 318.912 145.872 319.376 145.872 319.952C145.872 320.528 146.168 320.96 146.76 321.248C147.368 321.52 148.288 321.792 149.52 322.064C150.8 322.368 151.848 322.672 152.664 322.976C153.48 323.28 154.176 323.76 154.752 324.416C155.344 325.072 155.64 325.96 155.64 327.08C155.64 328.04 155.368 328.92 154.824 329.72C154.296 330.504 153.496 331.128 152.424 331.592C151.352 332.056 150.048 332.288 148.512 332.288ZM161.542 318.368H156.166V315.2H170.806V318.368H165.43V332H161.542V318.368Z" fill="black"/>
<path d="M201.832 315.4V349H194.056V321.64H187.336V315.4H201.832ZM232.773 342.664V349H207.381V343.96L220.341 331.72C221.717 330.408 222.645 329.288 223.125 328.36C223.605 327.4 223.845 326.456 223.845 325.528C223.845 324.184 223.381 323.16 222.453 322.456C221.557 321.72 220.229 321.352 218.469 321.352C216.997 321.352 215.669 321.64 214.485 322.216C213.301 322.76 212.309 323.592 211.509 324.712L205.845 321.064C207.157 319.112 208.965 317.592 211.269 316.504C213.573 315.384 216.213 314.824 219.189 314.824C221.685 314.824 223.861 315.24 225.717 316.072C227.605 316.872 229.061 318.024 230.085 319.528C231.141 321 231.669 322.744 231.669 324.76C231.669 326.584 231.285 328.296 230.517 329.896C229.749 331.496 228.261 333.32 226.053 335.368L218.325 342.664H232.773Z" fill="black"/>
<path d="M557.832 313.4V347H550.056V319.64H543.336V313.4H557.832ZM588.773 340.664V347H563.381V341.96L576.341 329.72C577.717 328.408 578.645 327.288 579.125 326.36C579.605 325.4 579.845 324.456 579.845 323.528C579.845 322.184 579.381 321.16 578.453 320.456C577.557 319.72 576.229 319.352 574.469 319.352C572.997 319.352 571.669 319.64 570.485 320.216C569.301 320.76 568.309 321.592 567.509 322.712L561.845 319.064C563.157 317.112 564.965 315.592 567.269 314.504C569.573 313.384 572.213 312.824 575.189 312.824C577.685 312.824 579.861 313.24 581.717 314.072C583.605 314.872 585.061 316.024 586.085 317.528C587.141 319 587.669 320.744 587.669 322.76C587.669 324.584 587.285 326.296 586.517 327.896C585.749 329.496 584.261 331.32 582.053 333.368L574.325 340.664H588.773Z" fill="black"/>
<path d="M904.832 314.4V348H897.056V320.64H890.336V314.4H904.832ZM935.773 341.664V348H910.381V342.96L923.341 330.72C924.717 329.408 925.645 328.288 926.125 327.36C926.605 326.4 926.845 325.456 926.845 324.528C926.845 323.184 926.381 322.16 925.453 321.456C924.557 320.72 923.229 320.352 921.469 320.352C919.997 320.352 918.669 320.64 917.485 321.216C916.301 321.76 915.309 322.592 914.509 323.712L908.845 320.064C910.157 318.112 911.965 316.592 914.269 315.504C916.573 314.384 919.213 313.824 922.189 313.824C924.685 313.824 926.861 314.24 928.717 315.072C930.605 315.872 932.061 317.024 933.085 318.528C934.141 320 934.669 321.744 934.669 323.76C934.669 325.584 934.285 327.296 933.517 328.896C932.749 330.496 931.261 332.32 929.053 334.368L921.325 341.664H935.773Z" fill="black"/>
<rect x="2.5" y="2.5" width="1136" height="293" stroke="black" stroke-width="5"/>
<rect x="2.5" y="295.5" width="1048" height="154" stroke="black" stroke-width="5"/>
<line x1="2.00439" y1="96.5" x2="1141" y2="98.5" stroke="black" stroke-width="5"/>
<line x1="0.00440916" y1="193.5" x2="1134" y2="195.5" stroke="black" stroke-width="5"/>
<line x1="91.5" y1="2" x2="91.5" y2="298" stroke="black" stroke-width="5"/>
<line x1="180.5" y1="2" x2="180.5" y2="298" stroke="black" stroke-width="5"/>
<line x1="267.5" y1="2" x2="267.5" y2="298" stroke="black" stroke-width="5"/>
<line x1="352.5" x2="352.5" y2="296" stroke="black" stroke-width="5"/>
<line x1="352.5" y1="156" x2="352.5" y2="452" stroke="black" stroke-width="5"/>
<line x1="439.5" y1="2" x2="439.5" y2="298" stroke="black" stroke-width="5"/>
<line x1="525.5" y1="2" x2="525.5" y2="298" stroke="black" stroke-width="5"/>
<line x1="611.5" y1="2" x2="611.5" y2="298" stroke="black" stroke-width="5"/>
<line x1="701.5" x2="701.5" y2="296" stroke="black" stroke-width="5"/>
<line x1="701.5" y1="150" x2="701.5" y2="446" stroke="black" stroke-width="5"/>
<line x1="789.5" x2="789.5" y2="296" stroke="black" stroke-width="5"/>
<line x1="877.5" y1="2" x2="877.5" y2="298" stroke="black" stroke-width="5"/>
<line x1="964.5" y1="2" x2="964.5" y2="298" stroke="black" stroke-width="5"/>
<line x1="1051.5" x2="1051.5" y2="296" stroke="black" stroke-width="5"/>
<rect x="100.5" y="304.5" width="153" height="51" stroke="black" stroke-width="5"/>
<rect x="455.5" y="303.5" width="147" height="54" stroke="black" stroke-width="5"/>
<rect x="801.5" y="303.5" width="147" height="54" stroke="black" stroke-width="5"/>
<path d="M489.976 341.664V348H464.584V342.96L477.544 330.72C478.92 329.408 479.848 328.288 480.328 327.36C480.808 326.4 481.048 325.456 481.048 324.528C481.048 323.184 480.584 322.16 479.656 321.456C478.76 320.72 477.432 320.352 475.672 320.352C474.2 320.352 472.872 320.64 471.688 321.216C470.504 321.76 469.512 322.592 468.712 323.712L463.048 320.064C464.36 318.112 466.168 316.592 468.472 315.504C470.776 314.384 473.416 313.824 476.392 313.824C478.888 313.824 481.064 314.24 482.92 315.072C484.808 315.872 486.264 317.024 487.288 318.528C488.344 320 488.872 321.744 488.872 323.76C488.872 325.584 488.488 327.296 487.72 328.896C486.952 330.496 485.464 332.32 483.256 334.368L475.528 341.664H489.976Z" fill="black"/>
<path d="M1106.67 257.058L1113 257.046L1113.05 282.438L1108.01 282.447L1095.75 269.51C1094.43 268.136 1093.31 267.211 1092.38 266.732C1091.42 266.254 1090.48 266.016 1089.55 266.018C1088.2 266.02 1087.18 266.486 1086.48 267.415C1085.74 268.313 1085.38 269.641 1085.38 271.401C1085.38 272.873 1085.68 274.201 1086.25 275.384C1086.8 276.567 1087.63 277.557 1088.75 278.355L1085.12 284.026C1083.16 282.717 1081.64 280.912 1080.55 278.61C1079.42 276.308 1078.86 273.669 1078.85 270.693C1078.85 268.197 1079.26 266.02 1080.09 264.163C1080.89 262.273 1082.03 260.815 1083.54 259.789C1085.01 258.73 1086.75 258.199 1088.77 258.195C1090.59 258.192 1092.3 258.572 1093.9 259.337C1095.51 260.102 1097.33 261.587 1099.38 263.791L1106.69 271.506L1106.67 257.058Z" fill="black"/>
<path d="M508.4 314.2V331H505.208L496.832 320.8V331H492.992V314.2H496.208L504.56 324.4V314.2H508.4ZM512.375 314.2H520.007C521.831 314.2 523.439 314.552 524.831 315.256C526.239 315.944 527.327 316.92 528.095 318.184C528.879 319.448 529.271 320.92 529.271 322.6C529.271 324.28 528.879 325.752 528.095 327.016C527.327 328.28 526.239 329.264 524.831 329.968C523.439 330.656 521.831 331 520.007 331H512.375V314.2ZM519.815 327.808C521.495 327.808 522.831 327.344 523.823 326.416C524.831 325.472 525.335 324.2 525.335 322.6C525.335 321 524.831 319.736 523.823 318.808C522.831 317.864 521.495 317.392 519.815 317.392H516.263V327.808H519.815Z" fill="black"/>
<path d="M854.696 331L851.456 326.32H851.264H847.88V331H843.992V314.2H851.264C852.752 314.2 854.04 314.448 855.128 314.944C856.232 315.44 857.08 316.144 857.672 317.056C858.264 317.968 858.56 319.048 858.56 320.296C858.56 321.544 858.256 322.624 857.648 323.536C857.056 324.432 856.208 325.12 855.104 325.6L858.872 331H854.696ZM854.624 320.296C854.624 319.352 854.32 318.632 853.712 318.136C853.104 317.624 852.216 317.368 851.048 317.368H847.88V323.224H851.048C852.216 323.224 853.104 322.968 853.712 322.456C854.32 321.944 854.624 321.224 854.624 320.296ZM861.64 314.2H869.272C871.096 314.2 872.704 314.552 874.096 315.256C875.504 315.944 876.592 316.92 877.36 318.184C878.144 319.448 878.536 320.92 878.536 322.6C878.536 324.28 878.144 325.752 877.36 327.016C876.592 328.28 875.504 329.264 874.096 329.968C872.704 330.656 871.096 331 869.272 331H861.64V314.2ZM869.08 327.808C870.76 327.808 872.096 327.344 873.088 326.416C874.096 325.472 874.6 324.2 874.6 322.6C874.6 321 874.096 319.736 873.088 318.808C872.096 317.864 870.76 317.392 869.08 317.392H865.528V327.808H869.08Z" fill="black"/>
<path d="M1098.37 254.528V259.904H1095.2V245.264H1098.37V250.64H1112V254.528H1098.37ZM1112.29 235.27C1112.29 237.014 1111.91 238.59 1111.16 239.998C1110.41 241.39 1109.38 242.486 1108.06 243.286C1106.74 244.07 1105.25 244.462 1103.6 244.462C1101.95 244.462 1100.47 244.07 1099.16 243.286C1097.83 242.486 1096.79 241.39 1096.04 239.998C1095.29 238.59 1094.91 237.014 1094.91 235.27C1094.91 233.526 1095.29 231.958 1096.04 230.566C1096.79 229.174 1097.83 228.078 1099.16 227.278C1100.47 226.478 1101.95 226.078 1103.6 226.078C1105.25 226.078 1106.74 226.478 1108.06 227.278C1109.38 228.078 1110.41 229.174 1111.16 230.566C1111.91 231.958 1112.29 233.526 1112.29 235.27ZM1108.98 235.27C1108.98 234.278 1108.75 233.382 1108.3 232.582C1107.84 231.782 1107.2 231.158 1106.38 230.71C1105.57 230.246 1104.64 230.014 1103.6 230.014C1102.56 230.014 1101.63 230.246 1100.82 230.71C1100 231.158 1099.37 231.782 1098.92 232.582C1098.46 233.382 1098.22 234.278 1098.22 235.27C1098.22 236.262 1098.46 237.158 1098.92 237.958C1099.37 238.758 1100 239.39 1100.82 239.854C1101.63 240.302 1102.56 240.526 1103.6 240.526C1104.64 240.526 1105.57 240.302 1106.38 239.854C1107.2 239.39 1107.84 238.758 1108.3 237.958C1108.75 237.158 1108.98 236.262 1108.98 235.27Z" fill="black"/>
<path d="M1079.4 214.168H1113V221.944H1085.64V228.664H1079.4V214.168Z" fill="black"/>
<path d="M1106.67 158.058L1113 158.046L1113.05 183.438L1108.01 183.447L1095.75 170.51C1094.43 169.136 1093.31 168.211 1092.38 167.732C1091.42 167.254 1090.48 167.016 1089.55 167.018C1088.2 167.02 1087.18 167.486 1086.48 168.415C1085.74 169.313 1085.38 170.641 1085.38 172.401C1085.38 173.873 1085.68 175.201 1086.25 176.384C1086.8 177.567 1087.63 178.557 1088.75 179.355L1085.12 185.026C1083.16 183.717 1081.64 181.912 1080.55 179.61C1079.42 177.308 1078.86 174.669 1078.85 171.693C1078.85 169.197 1079.26 167.02 1080.09 165.163C1080.89 163.273 1082.03 161.815 1083.54 160.789C1085.01 159.73 1086.75 159.199 1088.77 159.195C1090.59 159.192 1092.3 159.572 1093.9 160.337C1095.51 161.102 1097.33 162.587 1099.38 164.791L1106.69 172.506L1106.67 158.058Z" fill="black"/>
<path d="M1098.37 155.528V160.904H1095.2V146.264H1098.37V151.64H1112V155.528H1098.37ZM1112.29 136.27C1112.29 138.014 1111.91 139.59 1111.16 140.998C1110.41 142.39 1109.38 143.486 1108.06 144.286C1106.74 145.07 1105.25 145.462 1103.6 145.462C1101.95 145.462 1100.47 145.07 1099.16 144.286C1097.83 143.486 1096.79 142.39 1096.04 140.998C1095.29 139.59 1094.91 138.014 1094.91 136.27C1094.91 134.526 1095.29 132.958 1096.04 131.566C1096.79 130.174 1097.83 129.078 1099.16 128.278C1100.47 127.478 1101.95 127.078 1103.6 127.078C1105.25 127.078 1106.74 127.478 1108.06 128.278C1109.38 129.078 1110.41 130.174 1111.16 131.566C1111.91 132.958 1112.29 134.526 1112.29 136.27ZM1108.98 136.27C1108.98 135.278 1108.75 134.382 1108.3 133.582C1107.84 132.782 1107.2 132.158 1106.38 131.71C1105.57 131.246 1104.64 131.014 1103.6 131.014C1102.56 131.014 1101.63 131.246 1100.82 131.71C1100 132.158 1099.37 132.782 1098.92 133.582C1098.46 134.382 1098.22 135.278 1098.22 136.27C1098.22 137.262 1098.46 138.158 1098.92 138.958C1099.37 139.758 1100 140.39 1100.82 140.854C1101.63 141.302 1102.56 141.526 1103.6 141.526C1104.64 141.526 1105.57 141.302 1106.38 140.854C1107.2 140.39 1107.84 139.758 1108.3 138.958C1108.75 138.158 1108.98 137.262 1108.98 136.27Z" fill="black"/>
<path d="M1079.4 115.168L1113 115.168V122.944L1085.64 122.944V129.664H1079.4V115.168Z" fill="black"/>
<path d="M1106.67 62.0579L1113 62.0462L1113.05 87.4382L1108.01 87.4475L1095.75 74.5101C1094.43 73.1365 1093.31 72.2106 1092.38 71.7323C1091.42 71.254 1090.48 71.0158 1089.55 71.0175C1088.2 71.02 1087.18 71.4859 1086.48 72.4152C1085.74 73.3125 1085.38 74.6412 1085.38 76.4012C1085.38 77.8732 1085.68 79.2007 1086.25 80.3836C1086.8 81.5666 1087.63 82.5571 1088.75 83.355L1085.12 89.0257C1083.16 87.7173 1081.64 85.9121 1080.55 83.6101C1079.42 81.3082 1078.86 78.6692 1078.85 75.6932C1078.85 73.1972 1079.26 71.0205 1080.09 69.163C1080.89 67.2735 1082.03 65.8154 1083.54 64.7886C1085.01 63.7299 1086.75 63.1987 1088.77 63.1949C1090.59 63.1916 1092.3 63.5724 1093.9 64.3375C1095.51 65.1025 1097.33 66.5871 1099.38 68.7913L1106.69 76.5059L1106.67 62.0579Z" fill="black"/>
<path d="M1098.37 59.528V64.904H1095.2V50.264H1098.37V55.64H1112V59.528H1098.37ZM1112.29 40.2704C1112.29 42.0144 1111.91 43.5904 1111.16 44.9984C1110.41 46.3904 1109.38 47.4864 1108.06 48.2864C1106.74 49.0704 1105.25 49.4624 1103.6 49.4624C1101.95 49.4624 1100.47 49.0704 1099.16 48.2864C1097.83 47.4864 1096.79 46.3904 1096.04 44.9984C1095.29 43.5904 1094.91 42.0144 1094.91 40.2704C1094.91 38.5264 1095.29 36.9584 1096.04 35.5664C1096.79 34.1744 1097.83 33.0784 1099.16 32.2784C1100.47 31.4784 1101.95 31.0784 1103.6 31.0784C1105.25 31.0784 1106.74 31.4784 1108.06 32.2784C1109.38 33.0784 1110.41 34.1744 1111.16 35.5664C1111.91 36.9584 1112.29 38.5264 1112.29 40.2704ZM1108.98 40.2704C1108.98 39.2784 1108.75 38.3824 1108.3 37.5824C1107.84 36.7824 1107.2 36.1584 1106.38 35.7104C1105.57 35.2464 1104.64 35.0144 1103.6 35.0144C1102.56 35.0144 1101.63 35.2464 1100.82 35.7104C1100 36.1584 1099.37 36.7824 1098.92 37.5824C1098.46 38.3824 1098.22 39.2784 1098.22 40.2704C1098.22 41.2624 1098.46 42.1584 1098.92 42.9584C1099.37 43.7584 1100 44.3904 1100.82 44.8544C1101.63 45.3024 1102.56 45.5264 1103.6 45.5264C1104.64 45.5264 1105.57 45.3024 1106.38 44.8544C1107.2 44.3904 1107.84 43.7584 1108.3 42.9584C1108.75 42.1584 1108.98 41.2624 1108.98 40.2704Z" fill="black"/>
<path d="M1079.4 19.168L1113 19.168V26.944L1085.64 26.944V33.664L1079.4 33.664V19.168Z" fill="black"/>
<path d="M592.488 119.6V170H580.824V149.336H557.928V170H546.264V119.6H557.928V139.472H580.824V119.6H592.488Z" fill="black"/>
<path d="M507.288 160.64V170H468.264V119.6H506.352V128.96H479.856V139.904H503.256V148.976H479.856V160.64H507.288Z" fill="black"/>
<path d="M290.264 119.6H301.856V152.432L325.904 119.6H336.848V170H325.328V137.24L301.28 170H290.264V119.6Z" fill="black"/>
<path d="M223.08 118.6C227.544 118.6 231.408 119.344 234.672 120.832C237.984 122.32 240.528 124.432 242.304 127.168C244.08 129.904 244.968 133.144 244.968 136.888C244.968 140.584 244.08 143.824 242.304 146.608C240.528 149.344 237.984 151.456 234.672 152.944C231.408 154.384 227.544 155.104 223.08 155.104H212.928V169H201.264V118.6H223.08ZM222.432 145.6C225.936 145.6 228.6 144.856 230.424 143.368C232.248 141.832 233.16 139.672 233.16 136.888C233.16 134.056 232.248 131.896 230.424 130.408C228.6 128.872 225.936 128.104 222.432 128.104H212.928V145.6H222.432Z" fill="black"/>
<path d="M769.488 123.6V174H757.824V153.336H734.928V174H723.264V123.6H734.928V143.472H757.824V123.6H769.488Z" fill="black"/>
<path d="M813.264 121.6H824.856V154.432L848.904 121.6H859.848V172H848.328V139.24L824.28 172H813.264V121.6Z" fill="black"/>
<path d="M675.288 162.64V172H636.264V121.6H674.352V130.96H647.856V141.904H671.256V150.976H647.856V162.64H675.288Z" fill="#FF0000"/>
<path d="M411.128 170L411.056 139.832L396.224 164.672H391.04L376.208 140.408V170H365.264V119.6H374.912L393.776 150.92L412.352 119.6H422L422.072 170H411.128Z" fill="#FF0000"/>
<path d="M160.2 118.6V169H148.608V128.104H125.856V169H114.264V118.6H160.2Z" fill="#FF0000"/>
<path d="M48.568 46.08C51.512 46.56 53.768 47.664 55.336 49.392C56.904 51.088 57.688 53.2 57.688 55.728C57.688 57.68 57.176 59.488 56.152 61.152C55.128 62.784 53.56 64.096 51.448 65.088C49.368 66.08 46.808 66.576 43.768 66.576C41.4 66.576 39.064 66.272 36.76 65.664C34.488 65.024 32.552 64.128 30.952 62.976L33.976 57.024C35.256 57.984 36.728 58.736 38.392 59.28C40.088 59.792 41.816 60.048 43.576 60.048C45.528 60.048 47.064 59.68 48.184 58.944C49.304 58.176 49.864 57.104 49.864 55.728C49.864 52.976 47.768 51.6 43.576 51.6H40.024V46.464L46.936 38.64H32.632V32.4H56.152V37.44L48.568 46.08Z" fill="#FF0000"/>
<path d="M50.832 227.4V261H43.056V233.64H36.336V227.4H50.832Z" fill="#FF0000"/>
<path d="M217.68 31.824C222.384 31.824 226.064 33.264 228.72 36.144C231.376 38.992 232.704 43.104 232.704 48.48C232.704 52.288 231.984 55.552 230.544 58.272C229.136 60.992 227.136 63.056 224.544 64.464C221.952 65.872 218.96 66.576 215.568 66.576C213.776 66.576 212.064 66.384 210.432 66C208.8 65.584 207.408 65.008 206.256 64.272L209.136 58.56C210.768 59.68 212.864 60.24 215.424 60.24C218.272 60.24 220.528 59.408 222.192 57.744C223.856 56.048 224.752 53.616 224.88 50.448C222.864 52.464 220.08 53.472 216.528 53.472C214.384 53.472 212.432 53.04 210.672 52.176C208.912 51.312 207.52 50.096 206.496 48.528C205.472 46.928 204.96 45.088 204.96 43.008C204.96 40.768 205.52 38.8 206.64 37.104C207.76 35.408 209.28 34.112 211.2 33.216C213.152 32.288 215.312 31.824 217.68 31.824ZM218.256 47.664C219.952 47.664 221.328 47.2 222.384 46.272C223.472 45.312 224.016 44.096 224.016 42.624C224.016 41.152 223.488 39.952 222.432 39.024C221.408 38.096 219.984 37.632 218.16 37.632C216.496 37.632 215.136 38.08 214.08 38.976C213.056 39.872 212.544 41.088 212.544 42.624C212.544 44.16 213.056 45.392 214.08 46.32C215.136 47.216 216.528 47.664 218.256 47.664Z" fill="#FF0000"/>
<path d="M233.176 227.4V232.44L220.696 261H212.248L224.296 233.736H213.16V239.208H206.248V227.4H233.176Z" fill="#FF0000"/>
<path d="M476.832 227.4V261H469.056V233.64H462.336V227.4H476.832ZM498.845 239.928C500.989 239.928 502.941 240.36 504.701 241.224C506.461 242.088 507.853 243.32 508.877 244.92C509.901 246.488 510.413 248.312 510.413 250.392C510.413 252.632 509.853 254.6 508.733 256.296C507.613 257.992 506.077 259.304 504.125 260.232C502.205 261.128 500.061 261.576 497.693 261.576C492.989 261.576 489.309 260.136 486.653 257.256C483.997 254.376 482.669 250.264 482.669 244.92C482.669 241.112 483.389 237.848 484.829 235.128C486.269 232.408 488.269 230.344 490.829 228.936C493.421 227.528 496.413 226.824 499.805 226.824C501.597 226.824 503.309 227.032 504.941 227.448C506.605 227.832 508.013 228.392 509.165 229.128L506.285 234.84C504.621 233.72 502.525 233.16 499.997 233.16C497.149 233.16 494.893 233.992 493.229 235.656C491.565 237.32 490.669 239.736 490.541 242.904C492.525 240.92 495.293 239.928 498.845 239.928ZM497.261 255.768C498.925 255.768 500.269 255.32 501.293 254.424C502.349 253.528 502.877 252.312 502.877 250.776C502.877 249.24 502.349 248.024 501.293 247.128C500.269 246.2 498.893 245.736 497.165 245.736C495.469 245.736 494.077 246.216 492.989 247.176C491.901 248.104 491.357 249.304 491.357 250.776C491.357 252.248 491.885 253.448 492.941 254.376C493.997 255.304 495.437 255.768 497.261 255.768Z" fill="#FF0000"/>
<path d="M561.832 227.4V261H554.056V233.64H547.336V227.4H561.832ZM579.477 226.824C584.181 226.824 587.861 228.264 590.517 231.144C593.173 233.992 594.501 238.104 594.501 243.48C594.501 247.288 593.781 250.552 592.341 253.272C590.933 255.992 588.933 258.056 586.341 259.464C583.749 260.872 580.757 261.576 577.365 261.576C575.573 261.576 573.861 261.384 572.229 261C570.597 260.584 569.205 260.008 568.053 259.272L570.933 253.56C572.565 254.68 574.661 255.24 577.221 255.24C580.069 255.24 582.325 254.408 583.989 252.744C585.653 251.048 586.549 248.616 586.677 245.448C584.661 247.464 581.877 248.472 578.325 248.472C576.181 248.472 574.229 248.04 572.469 247.176C570.709 246.312 569.317 245.096 568.293 243.528C567.269 241.928 566.757 240.088 566.757 238.008C566.757 235.768 567.317 233.8 568.437 232.104C569.557 230.408 571.077 229.112 572.997 228.216C574.949 227.288 577.109 226.824 579.477 226.824ZM580.053 242.664C581.749 242.664 583.125 242.2 584.181 241.272C585.269 240.312 585.813 239.096 585.813 237.624C585.813 236.152 585.285 234.952 584.229 234.024C583.205 233.096 581.781 232.632 579.957 232.632C578.293 232.632 576.933 233.08 575.877 233.976C574.853 234.872 574.341 236.088 574.341 237.624C574.341 239.16 574.853 240.392 575.877 241.32C576.933 242.216 578.325 242.664 580.053 242.664Z" fill="#FF0000"/>
<path d="M301.832 32.4V66H294.056V38.64H287.336V32.4H301.832ZM332.773 59.664V66H307.381V60.96L320.341 48.72C321.717 47.408 322.645 46.288 323.125 45.36C323.605 44.4 323.845 43.456 323.845 42.528C323.845 41.184 323.381 40.16 322.453 39.456C321.557 38.72 320.229 38.352 318.469 38.352C316.997 38.352 315.669 38.64 314.485 39.216C313.301 39.76 312.309 40.592 311.509 41.712L305.845 38.064C307.157 36.112 308.965 34.592 311.269 33.504C313.573 32.384 316.213 31.824 319.189 31.824C321.685 31.824 323.861 32.24 325.717 33.072C327.605 33.872 329.061 35.024 330.085 36.528C331.141 38 331.669 39.744 331.669 41.76C331.669 43.584 331.285 45.296 330.517 46.896C329.749 48.496 328.261 50.32 326.053 52.368L318.325 59.664H332.773Z" fill="#FF0000"/>
<path d="M474.832 32.4V66H467.056V38.64H460.336V32.4H474.832ZM503.661 48.336C505.325 49.168 506.589 50.256 507.453 51.6C508.349 52.944 508.797 54.496 508.797 56.256C508.797 58.336 508.205 60.16 507.021 61.728C505.837 63.264 504.173 64.464 502.029 65.328C499.885 66.16 497.405 66.576 494.589 66.576C491.773 66.576 489.293 66.16 487.149 65.328C485.037 64.464 483.389 63.264 482.205 61.728C481.053 60.16 480.477 58.336 480.477 56.256C480.477 54.496 480.909 52.944 481.773 51.6C482.669 50.256 483.933 49.168 485.565 48.336C484.317 47.568 483.357 46.608 482.685 45.456C482.013 44.272 481.677 42.928 481.677 41.424C481.677 39.472 482.221 37.776 483.309 36.336C484.397 34.896 485.917 33.792 487.869 33.024C489.821 32.224 492.061 31.824 494.589 31.824C497.149 31.824 499.405 32.224 501.357 33.024C503.341 33.792 504.877 34.896 505.965 36.336C507.053 37.776 507.597 39.472 507.597 41.424C507.597 42.928 507.261 44.272 506.589 45.456C505.917 46.608 504.941 47.568 503.661 48.336ZM494.589 37.536C493.021 37.536 491.757 37.92 490.797 38.688C489.869 39.424 489.405 40.448 489.405 41.76C489.405 43.04 489.869 44.048 490.797 44.784C491.725 45.52 492.989 45.888 494.589 45.888C496.189 45.888 497.469 45.52 498.429 44.784C499.389 44.048 499.869 43.04 499.869 41.76C499.869 40.448 499.389 39.424 498.429 38.688C497.469 37.92 496.189 37.536 494.589 37.536ZM494.589 60.864C496.541 60.864 498.077 60.432 499.197 59.568C500.349 58.672 500.925 57.488 500.925 56.016C500.925 54.544 500.349 53.376 499.197 52.512C498.077 51.648 496.541 51.216 494.589 51.216C492.669 51.216 491.149 51.648 490.029 52.512C488.909 53.376 488.349 54.544 488.349 56.016C488.349 57.52 488.909 58.704 490.029 59.568C491.149 60.432 492.669 60.864 494.589 60.864Z" fill="#FF0000"/>
<path d="M572.976 59.664V66H547.584V60.96L560.544 48.72C561.92 47.408 562.848 46.288 563.328 45.36C563.808 44.4 564.048 43.456 564.048 42.528C564.048 41.184 563.584 40.16 562.656 39.456C561.76 38.72 560.432 38.352 558.672 38.352C557.2 38.352 555.872 38.64 554.688 39.216C553.504 39.76 552.512 40.592 551.712 41.712L546.048 38.064C547.36 36.112 549.168 34.592 551.472 33.504C553.776 32.384 556.416 31.824 559.392 31.824C561.888 31.824 564.064 32.24 565.92 33.072C567.808 33.872 569.264 35.024 570.288 36.528C571.344 38 571.872 39.744 571.872 41.76C571.872 43.584 571.488 45.296 570.72 46.896C569.952 48.496 568.464 50.32 566.256 52.368L558.528 59.664H572.976ZM589.145 32.4V66H581.368V38.64H574.649V32.4H589.145Z" fill="#FF0000"/>
<path d="M745.976 59.664V66H720.584V60.96L733.544 48.72C734.92 47.408 735.848 46.288 736.328 45.36C736.808 44.4 737.048 43.456 737.048 42.528C737.048 41.184 736.584 40.16 735.656 39.456C734.76 38.72 733.432 38.352 731.672 38.352C730.2 38.352 728.872 38.64 727.688 39.216C726.504 39.76 725.512 40.592 724.712 41.712L719.048 38.064C720.36 36.112 722.168 34.592 724.472 33.504C726.776 32.384 729.416 31.824 732.392 31.824C734.888 31.824 737.064 32.24 738.92 33.072C740.808 33.872 742.264 35.024 743.288 36.528C744.344 38 744.872 39.744 744.872 41.76C744.872 43.584 744.488 45.296 743.72 46.896C742.952 48.496 741.464 50.32 739.256 52.368L731.528 59.664H745.976ZM775.395 32.4V37.44L762.915 66H754.467L766.515 38.736H755.379V44.208H748.467V32.4H775.395Z" fill="#FF0000"/>
<path d="M744.976 253.664V260H719.584V254.96L732.544 242.72C733.92 241.408 734.848 240.288 735.328 239.36C735.808 238.4 736.048 237.456 736.048 236.528C736.048 235.184 735.584 234.16 734.656 233.456C733.76 232.72 732.432 232.352 730.672 232.352C729.2 232.352 727.872 232.64 726.688 233.216C725.504 233.76 724.512 234.592 723.712 235.712L718.048 232.064C719.36 230.112 721.168 228.592 723.472 227.504C725.776 226.384 728.416 225.824 731.392 225.824C733.888 225.824 736.064 226.24 737.92 227.072C739.808 227.872 741.264 229.024 742.288 230.528C743.344 232 743.872 233.744 743.872 235.76C743.872 237.584 743.488 239.296 742.72 240.896C741.952 242.496 740.464 244.32 738.256 246.368L730.528 253.664H744.976ZM759.705 239.024C764.441 239.024 767.929 239.968 770.169 241.856C772.441 243.744 773.577 246.272 773.577 249.44C773.577 251.488 773.065 253.36 772.041 255.056C771.017 256.72 769.449 258.064 767.337 259.088C765.257 260.08 762.681 260.576 759.609 260.576C757.241 260.576 754.905 260.272 752.601 259.664C750.329 259.024 748.393 258.128 746.793 256.976L749.865 251.024C751.145 251.984 752.617 252.736 754.281 253.28C755.945 253.792 757.657 254.048 759.417 254.048C761.369 254.048 762.905 253.664 764.025 252.896C765.145 252.128 765.705 251.056 765.705 249.68C765.705 248.24 765.113 247.152 763.929 246.416C762.777 245.68 760.761 245.312 757.881 245.312H749.289L751.017 226.4H771.513V232.64H757.497L756.969 239.024H759.705Z" fill="#FF0000"/>
<path d="M824.568 45.08C827.512 45.56 829.768 46.664 831.336 48.392C832.904 50.088 833.688 52.2 833.688 54.728C833.688 56.68 833.176 58.488 832.152 60.152C831.128 61.784 829.56 63.096 827.448 64.088C825.368 65.08 822.808 65.576 819.768 65.576C817.4 65.576 815.064 65.272 812.76 64.664C810.488 64.024 808.552 63.128 806.952 61.976L809.976 56.024C811.256 56.984 812.728 57.736 814.392 58.28C816.088 58.792 817.816 59.048 819.576 59.048C821.528 59.048 823.064 58.68 824.184 57.944C825.304 57.176 825.864 56.104 825.864 54.728C825.864 51.976 823.768 50.6 819.576 50.6H816.024V45.464L822.936 37.64H808.632V31.4H832.152V36.44L824.568 45.08ZM851.678 65.576C848.894 65.576 846.414 64.888 844.238 63.512C842.062 62.136 840.35 60.152 839.102 57.56C837.886 54.936 837.278 51.816 837.278 48.2C837.278 44.584 837.886 41.48 839.102 38.888C840.35 36.264 842.062 34.264 844.238 32.888C846.414 31.512 848.894 30.824 851.678 30.824C854.462 30.824 856.942 31.512 859.118 32.888C861.294 34.264 862.99 36.264 864.206 38.888C865.454 41.48 866.078 44.584 866.078 48.2C866.078 51.816 865.454 54.936 864.206 57.56C862.99 60.152 861.294 62.136 859.118 63.512C856.942 64.888 854.462 65.576 851.678 65.576ZM851.678 59C853.726 59 855.326 58.12 856.478 56.36C857.662 54.6 858.254 51.88 858.254 48.2C858.254 44.52 857.662 41.8 856.478 40.04C855.326 38.28 853.726 37.4 851.678 37.4C849.662 37.4 848.062 38.28 846.878 40.04C845.726 41.8 845.15 44.52 845.15 48.2C845.15 51.88 845.726 54.6 846.878 56.36C848.062 58.12 849.662 59 851.678 59Z" fill="#FF0000"/>
<path d="M941.288 162.64V172H902.264V121.6H940.352V130.96H913.856V141.904H937.256V150.976H913.856V162.64H941.288Z" fill="#FF0000"/>
<path d="M1001.57 45.08C1004.51 45.56 1006.77 46.664 1008.34 48.392C1009.9 50.088 1010.69 52.2 1010.69 54.728C1010.69 56.68 1010.18 58.488 1009.15 60.152C1008.13 61.784 1006.56 63.096 1004.45 64.088C1002.37 65.08 999.808 65.576 996.768 65.576C994.4 65.576 992.064 65.272 989.76 64.664C987.488 64.024 985.552 63.128 983.952 61.976L986.976 56.024C988.256 56.984 989.728 57.736 991.392 58.28C993.088 58.792 994.816 59.048 996.576 59.048C998.528 59.048 1000.06 58.68 1001.18 57.944C1002.3 57.176 1002.86 56.104 1002.86 54.728C1002.86 51.976 1000.77 50.6 996.576 50.6H993.024V45.464L999.936 37.64H985.632V31.4H1009.15V36.44L1001.57 45.08ZM1030.45 43.928C1032.6 43.928 1034.55 44.36 1036.31 45.224C1038.07 46.088 1039.46 47.32 1040.49 48.92C1041.51 50.488 1042.02 52.312 1042.02 54.392C1042.02 56.632 1041.46 58.6 1040.34 60.296C1039.22 61.992 1037.69 63.304 1035.73 64.232C1033.81 65.128 1031.67 65.576 1029.3 65.576C1024.6 65.576 1020.92 64.136 1018.26 61.256C1015.61 58.376 1014.28 54.264 1014.28 48.92C1014.28 45.112 1015 41.848 1016.44 39.128C1017.88 36.408 1019.88 34.344 1022.44 32.936C1025.03 31.528 1028.02 30.824 1031.41 30.824C1033.21 30.824 1034.92 31.032 1036.55 31.448C1038.21 31.832 1039.62 32.392 1040.77 33.128L1037.89 38.84C1036.23 37.72 1034.13 37.16 1031.61 37.16C1028.76 37.16 1026.5 37.992 1024.84 39.656C1023.17 41.32 1022.28 43.736 1022.15 46.904C1024.13 44.92 1026.9 43.928 1030.45 43.928ZM1028.87 59.768C1030.53 59.768 1031.88 59.32 1032.9 58.424C1033.96 57.528 1034.49 56.312 1034.49 54.776C1034.49 53.24 1033.96 52.024 1032.9 51.128C1031.88 50.2 1030.5 49.736 1028.77 49.736C1027.08 49.736 1025.69 50.216 1024.6 51.176C1023.51 52.104 1022.97 53.304 1022.97 54.776C1022.97 56.248 1023.49 57.448 1024.55 58.376C1025.61 59.304 1027.05 59.768 1028.87 59.768Z" fill="#FF0000"/>
<path d="M999.568 240.08C1002.51 240.56 1004.77 241.664 1006.34 243.392C1007.9 245.088 1008.69 247.2 1008.69 249.728C1008.69 251.68 1008.18 253.488 1007.15 255.152C1006.13 256.784 1004.56 258.096 1002.45 259.088C1000.37 260.08 997.808 260.576 994.768 260.576C992.4 260.576 990.064 260.272 987.76 259.664C985.488 259.024 983.552 258.128 981.952 256.976L984.976 251.024C986.256 251.984 987.728 252.736 989.392 253.28C991.088 253.792 992.816 254.048 994.576 254.048C996.528 254.048 998.064 253.68 999.184 252.944C1000.3 252.176 1000.86 251.104 1000.86 249.728C1000.86 246.976 998.768 245.6 994.576 245.6H991.024V240.464L997.936 232.64H983.632V226.4H1007.15V231.44L999.568 240.08ZM1043.05 252.944H1037.57V260H1029.99V252.944H1011.89V247.712L1027.73 226.4H1035.89L1021.21 246.608H1030.23V240.32H1037.57V246.608H1043.05V252.944Z" fill="#FF0000"/>
<path d="M61.976 154.664V161H36.584V155.96L49.544 143.72C50.92 142.408 51.848 141.288 52.328 140.36C52.808 139.4 53.048 138.456 53.048 137.528C53.048 136.184 52.584 135.16 51.656 134.456C50.76 133.72 49.432 133.352 47.672 133.352C46.2 133.352 44.872 133.64 43.688 134.216C42.504 134.76 41.512 135.592 40.712 136.712L35.048 133.064C36.36 131.112 38.168 129.592 40.472 128.504C42.776 127.384 45.416 126.824 48.392 126.824C50.888 126.824 53.064 127.24 54.92 128.072C56.808 128.872 58.264 130.024 59.288 131.528C60.344 133 60.872 134.744 60.872 136.76C60.872 138.584 60.488 140.296 59.72 141.896C58.952 143.496 57.464 145.32 55.256 147.368L47.528 154.664H61.976Z" fill="black"/>
<path d="M140.048 44.928C142.192 44.928 144.144 45.36 145.904 46.224C147.664 47.088 149.056 48.32 150.08 49.92C151.104 51.488 151.616 53.312 151.616 55.392C151.616 57.632 151.056 59.6 149.936 61.296C148.816 62.992 147.28 64.304 145.328 65.232C143.408 66.128 141.264 66.576 138.896 66.576C134.192 66.576 130.512 65.136 127.856 62.256C125.2 59.376 123.872 55.264 123.872 49.92C123.872 46.112 124.592 42.848 126.032 40.128C127.472 37.408 129.472 35.344 132.032 33.936C134.624 32.528 137.616 31.824 141.008 31.824C142.8 31.824 144.512 32.032 146.144 32.448C147.808 32.832 149.216 33.392 150.368 34.128L147.488 39.84C145.824 38.72 143.728 38.16 141.2 38.16C138.352 38.16 136.096 38.992 134.432 40.656C132.768 42.32 131.872 44.736 131.744 47.904C133.728 45.92 136.496 44.928 140.048 44.928ZM138.464 60.768C140.128 60.768 141.472 60.32 142.496 59.424C143.552 58.528 144.08 57.312 144.08 55.776C144.08 54.24 143.552 53.024 142.496 52.128C141.472 51.2 140.096 50.736 138.368 50.736C136.672 50.736 135.28 51.216 134.192 52.176C133.104 53.104 132.56 54.304 132.56 55.776C132.56 57.248 133.088 58.448 134.144 59.376C135.2 60.304 136.64 60.768 138.464 60.768Z" fill="black"/>
<path d="M152.64 253.944H147.168V261H139.584V253.944H121.488V248.712L137.328 227.4H145.488L130.8 247.608H139.824V241.32H147.168V247.608H152.64V253.944Z" fill="black"/>
<path d="M302.832 227.4V261H295.056V233.64H288.336V227.4H302.832ZM323.069 261.576C320.285 261.576 317.805 260.888 315.629 259.512C313.453 258.136 311.741 256.152 310.493 253.56C309.277 250.936 308.669 247.816 308.669 244.2C308.669 240.584 309.277 237.48 310.493 234.888C311.741 232.264 313.453 230.264 315.629 228.888C317.805 227.512 320.285 226.824 323.069 226.824C325.853 226.824 328.333 227.512 330.509 228.888C332.685 230.264 334.381 232.264 335.597 234.888C336.845 237.48 337.469 240.584 337.469 244.2C337.469 247.816 336.845 250.936 335.597 253.56C334.381 256.152 332.685 258.136 330.509 259.512C328.333 260.888 325.853 261.576 323.069 261.576ZM323.069 255C325.117 255 326.717 254.12 327.869 252.36C329.053 250.6 329.645 247.88 329.645 244.2C329.645 240.52 329.053 237.8 327.869 236.04C326.717 234.28 325.117 233.4 323.069 233.4C321.053 233.4 319.453 234.28 318.269 236.04C317.117 237.8 316.541 240.52 316.541 244.2C316.541 247.88 317.117 250.6 318.269 252.36C319.453 254.12 321.053 255 323.069 255Z" fill="black"/>
<path d="M388.832 227.4V261H381.056V233.64H374.336V227.4H388.832ZM410.365 241.08C413.309 241.56 415.565 242.664 417.133 244.392C418.701 246.088 419.485 248.2 419.485 250.728C419.485 252.68 418.973 254.488 417.949 256.152C416.925 257.784 415.357 259.096 413.245 260.088C411.165 261.08 408.605 261.576 405.565 261.576C403.197 261.576 400.861 261.272 398.557 260.664C396.285 260.024 394.349 259.128 392.749 257.976L395.773 252.024C397.053 252.984 398.525 253.736 400.189 254.28C401.885 254.792 403.613 255.048 405.373 255.048C407.325 255.048 408.861 254.68 409.981 253.944C411.101 253.176 411.661 252.104 411.661 250.728C411.661 247.976 409.565 246.6 405.373 246.6H401.821V241.464L408.733 233.64H394.429V227.4H417.949V232.44L410.365 241.08Z" fill="black"/>
<path d="M391.832 32.4V66H384.056V38.64H377.336V32.4H391.832ZM409.189 45.024C413.925 45.024 417.413 45.968 419.653 47.856C421.925 49.744 423.061 52.272 423.061 55.44C423.061 57.488 422.549 59.36 421.525 61.056C420.501 62.72 418.933 64.064 416.821 65.088C414.741 66.08 412.165 66.576 409.093 66.576C406.725 66.576 404.389 66.272 402.085 65.664C399.813 65.024 397.877 64.128 396.277 62.976L399.349 57.024C400.629 57.984 402.101 58.736 403.765 59.28C405.429 59.792 407.141 60.048 408.901 60.048C410.853 60.048 412.389 59.664 413.509 58.896C414.629 58.128 415.189 57.056 415.189 55.68C415.189 54.24 414.597 53.152 413.413 52.416C412.261 51.68 410.245 51.312 407.365 51.312H398.773L400.501 32.4H420.997V38.64H406.981L406.453 45.024H409.189Z" fill="black"/>
<path d="M656.976 59.664V66H631.584V60.96L644.544 48.72C645.92 47.408 646.848 46.288 647.328 45.36C647.808 44.4 648.048 43.456 648.048 42.528C648.048 41.184 647.584 40.16 646.656 39.456C645.76 38.72 644.432 38.352 642.672 38.352C641.2 38.352 639.872 38.64 638.688 39.216C637.504 39.76 636.512 40.592 635.712 41.712L630.048 38.064C631.36 36.112 633.168 34.592 635.472 33.504C637.776 32.384 640.416 31.824 643.392 31.824C645.888 31.824 648.064 32.24 649.92 33.072C651.808 33.872 653.264 35.024 654.288 36.528C655.344 38 655.872 39.744 655.872 41.76C655.872 43.584 655.488 45.296 654.72 46.896C653.952 48.496 652.464 50.32 650.256 52.368L642.528 59.664H656.976ZM690.484 58.944H685.012V66H677.428V58.944H659.332V53.712L675.172 32.4H683.332L668.644 52.608H677.668V46.32H685.012V52.608H690.484V58.944Z" fill="black"/>
<path d="M656.976 254.664V261H631.584V255.96L644.544 243.72C645.92 242.408 646.848 241.288 647.328 240.36C647.808 239.4 648.048 238.456 648.048 237.528C648.048 236.184 647.584 235.16 646.656 234.456C645.76 233.72 644.432 233.352 642.672 233.352C641.2 233.352 639.872 233.64 638.688 234.216C637.504 234.76 636.512 235.592 635.712 236.712L630.048 233.064C631.36 231.112 633.168 229.592 635.472 228.504C637.776 227.384 640.416 226.824 643.392 226.824C645.888 226.824 648.064 227.24 649.92 228.072C651.808 228.872 653.264 230.024 654.288 231.528C655.344 233 655.872 234.744 655.872 236.76C655.872 238.584 655.488 240.296 654.72 241.896C653.952 243.496 652.464 245.32 650.256 247.368L642.528 254.664H656.976ZM685.289 254.664V261H659.896V255.96L672.857 243.72C674.233 242.408 675.161 241.288 675.641 240.36C676.121 239.4 676.361 238.456 676.361 237.528C676.361 236.184 675.897 235.16 674.969 234.456C674.073 233.72 672.745 233.352 670.984 233.352C669.513 233.352 668.185 233.64 667.001 234.216C665.817 234.76 664.825 235.592 664.025 236.712L658.361 233.064C659.673 231.112 661.481 229.592 663.785 228.504C666.089 227.384 668.729 226.824 671.705 226.824C674.201 226.824 676.377 227.24 678.233 228.072C680.121 228.872 681.577 230.024 682.601 231.528C683.657 233 684.185 234.744 684.185 236.76C684.185 238.584 683.801 240.296 683.033 241.896C682.265 243.496 680.777 245.32 678.569 247.368L670.841 254.664H685.289Z" fill="black"/>
<path d="M833.976 253.664V260H808.584V254.96L821.544 242.72C822.92 241.408 823.848 240.288 824.328 239.36C824.808 238.4 825.048 237.456 825.048 236.528C825.048 235.184 824.584 234.16 823.656 233.456C822.76 232.72 821.432 232.352 819.672 232.352C818.2 232.352 816.872 232.64 815.688 233.216C814.504 233.76 813.512 234.592 812.712 235.712L807.048 232.064C808.36 230.112 810.168 228.592 812.472 227.504C814.776 226.384 817.416 225.824 820.392 225.824C822.888 225.824 825.064 226.24 826.92 227.072C828.808 227.872 830.264 229.024 831.288 230.528C832.344 232 832.872 233.744 832.872 235.76C832.872 237.584 832.488 239.296 831.72 240.896C830.952 242.496 829.464 244.32 827.256 246.368L819.528 253.664H833.976ZM860.177 242.336C861.841 243.168 863.105 244.256 863.969 245.6C864.865 246.944 865.312 248.496 865.312 250.256C865.312 252.336 864.72 254.16 863.536 255.728C862.352 257.264 860.689 258.464 858.545 259.328C856.401 260.16 853.921 260.576 851.105 260.576C848.289 260.576 845.809 260.16 843.665 259.328C841.553 258.464 839.905 257.264 838.721 255.728C837.569 254.16 836.993 252.336 836.993 250.256C836.993 248.496 837.425 246.944 838.289 245.6C839.185 244.256 840.449 243.168 842.081 242.336C840.833 241.568 839.873 240.608 839.201 239.456C838.529 238.272 838.193 236.928 838.193 235.424C838.193 233.472 838.737 231.776 839.825 230.336C840.913 228.896 842.433 227.792 844.385 227.024C846.337 226.224 848.577 225.824 851.105 225.824C853.665 225.824 855.921 226.224 857.873 227.024C859.857 227.792 861.393 228.896 862.481 230.336C863.569 231.776 864.113 233.472 864.113 235.424C864.113 236.928 863.777 238.272 863.105 239.456C862.433 240.608 861.457 241.568 860.177 242.336ZM851.105 231.536C849.537 231.536 848.273 231.92 847.312 232.688C846.385 233.424 845.921 234.448 845.921 235.76C845.921 237.04 846.385 238.048 847.312 238.784C848.241 239.52 849.505 239.888 851.105 239.888C852.705 239.888 853.985 239.52 854.945 238.784C855.905 238.048 856.385 237.04 856.385 235.76C856.385 234.448 855.905 233.424 854.945 232.688C853.985 231.92 852.705 231.536 851.105 231.536ZM851.105 254.864C853.057 254.864 854.593 254.432 855.713 253.568C856.865 252.672 857.441 251.488 857.441 250.016C857.441 248.544 856.865 247.376 855.713 246.512C854.593 245.648 853.057 245.216 851.105 245.216C849.185 245.216 847.665 245.648 846.545 246.512C845.425 247.376 844.865 248.544 844.865 250.016C844.865 251.52 845.425 252.704 846.545 253.568C847.665 254.432 849.185 254.864 851.105 254.864Z" fill="black"/>
<path d="M915.568 240.08C918.512 240.56 920.768 241.664 922.336 243.392C923.904 245.088 924.688 247.2 924.688 249.728C924.688 251.68 924.176 253.488 923.152 255.152C922.128 256.784 920.56 258.096 918.448 259.088C916.368 260.08 913.808 260.576 910.768 260.576C908.4 260.576 906.064 260.272 903.76 259.664C901.488 259.024 899.552 258.128 897.952 256.976L900.976 251.024C902.256 251.984 903.728 252.736 905.392 253.28C907.088 253.792 908.816 254.048 910.576 254.048C912.528 254.048 914.064 253.68 915.184 252.944C916.304 252.176 916.864 251.104 916.864 249.728C916.864 246.976 914.768 245.6 910.576 245.6H907.024V240.464L913.936 232.64H899.632V226.4H923.152V231.44L915.568 240.08ZM941.238 226.4V260H933.462V232.64H926.742V226.4H941.238Z" fill="black"/>
<path d="M911.568 45.08C914.512 45.56 916.768 46.664 918.336 48.392C919.904 50.088 920.688 52.2 920.688 54.728C920.688 56.68 920.176 58.488 919.152 60.152C918.128 61.784 916.56 63.096 914.448 64.088C912.368 65.08 909.808 65.576 906.768 65.576C904.4 65.576 902.064 65.272 899.76 64.664C897.488 64.024 895.552 63.128 893.952 61.976L896.976 56.024C898.256 56.984 899.728 57.736 901.392 58.28C903.088 58.792 904.816 59.048 906.576 59.048C908.528 59.048 910.064 58.68 911.184 57.944C912.304 57.176 912.864 56.104 912.864 54.728C912.864 51.976 910.768 50.6 906.576 50.6H903.024V45.464L909.936 37.64H895.632V31.4H919.152V36.44L911.568 45.08ZM939.74 45.08C942.684 45.56 944.94 46.664 946.508 48.392C948.076 50.088 948.86 52.2 948.86 54.728C948.86 56.68 948.348 58.488 947.324 60.152C946.3 61.784 944.732 63.096 942.62 64.088C940.54 65.08 937.98 65.576 934.94 65.576C932.572 65.576 930.236 65.272 927.932 64.664C925.66 64.024 923.724 63.128 922.124 61.976L925.148 56.024C926.428 56.984 927.9 57.736 929.564 58.28C931.26 58.792 932.988 59.048 934.748 59.048C936.7 59.048 938.236 58.68 939.356 57.944C940.476 57.176 941.036 56.104 941.036 54.728C941.036 51.976 938.94 50.6 934.748 50.6H931.196V45.464L938.108 37.64H923.804V31.4H947.324V36.44L939.74 45.08Z" fill="black"/>
<path d="M1002.57 143.08C1005.51 143.56 1007.77 144.664 1009.34 146.392C1010.9 148.088 1011.69 150.2 1011.69 152.728C1011.69 154.68 1011.18 156.488 1010.15 158.152C1009.13 159.784 1007.56 161.096 1005.45 162.088C1003.37 163.08 1000.81 163.576 997.768 163.576C995.4 163.576 993.064 163.272 990.76 162.664C988.488 162.024 986.552 161.128 984.952 159.976L987.976 154.024C989.256 154.984 990.728 155.736 992.392 156.28C994.088 156.792 995.816 157.048 997.576 157.048C999.528 157.048 1001.06 156.68 1002.18 155.944C1003.3 155.176 1003.86 154.104 1003.86 152.728C1003.86 149.976 1001.77 148.6 997.576 148.6H994.024V143.464L1000.94 135.64H986.632V129.4H1010.15V134.44L1002.57 143.08ZM1026.33 142.024C1031.07 142.024 1034.55 142.968 1036.79 144.856C1039.07 146.744 1040.2 149.272 1040.2 152.44C1040.2 154.488 1039.69 156.36 1038.67 158.056C1037.64 159.72 1036.07 161.064 1033.96 162.088C1031.88 163.08 1029.31 163.576 1026.23 163.576C1023.87 163.576 1021.53 163.272 1019.23 162.664C1016.95 162.024 1015.02 161.128 1013.42 159.976L1016.49 154.024C1017.77 154.984 1019.24 155.736 1020.91 156.28C1022.57 156.792 1024.28 157.048 1026.04 157.048C1027.99 157.048 1029.53 156.664 1030.65 155.896C1031.77 155.128 1032.33 154.056 1032.33 152.68C1032.33 151.24 1031.74 150.152 1030.55 149.416C1029.4 148.68 1027.39 148.312 1024.51 148.312H1015.91L1017.64 129.4H1038.14V135.64H1024.12L1023.59 142.024H1026.33Z" fill="black"/>
</svg>
