<svg width="1184" height="1158" viewBox="0 0 1184 1158" fill="none" xmlns="http://www.w3.org/2000/svg">
<path d="M26.752 62.256C22.4 62.256 18.4533 61.2747 14.912 59.312C11.4133 57.3493 8.66133 54.64 6.656 51.184C4.65067 47.728 3.648 43.8667 3.648 39.6C3.648 35.3333 4.65067 31.472 6.656 28.016C8.66133 24.56 11.4133 21.8507 14.912 19.888C18.4533 17.9253 22.4 16.944 26.752 16.944C29.824 16.944 32.704 17.456 35.392 18.48C38.08 19.4613 40.384 20.9333 42.304 22.896L40.96 24.304C37.248 20.72 32.5333 18.928 26.816 18.928C22.8907 18.928 19.328 19.8453 16.128 21.68C12.928 23.472 10.4107 25.9467 8.576 29.104C6.74133 32.2613 5.824 35.76 5.824 39.6C5.824 43.44 6.74133 46.9387 8.576 50.096C10.4107 53.2533 12.928 55.7493 16.128 57.584C19.328 59.376 22.8907 60.272 26.816 60.272C32.4907 60.272 37.2053 58.4587 40.96 54.832L42.304 56.24C40.384 58.2027 38.08 59.696 35.392 60.72C32.7467 61.744 29.8667 62.256 26.752 62.256ZM63.0465 28.528C67.0145 28.528 70.0438 29.552 72.1345 31.6C74.2678 33.648 75.3345 36.6133 75.3345 40.496V62H73.2865V55.344C72.2198 57.4773 70.6198 59.1627 68.4865 60.4C66.3958 61.5947 63.8785 62.192 60.9345 62.192C57.2225 62.192 54.2998 61.3387 52.1665 59.632C50.0758 57.9253 49.0305 55.664 49.0305 52.848C49.0305 50.16 49.9905 47.984 51.9105 46.32C53.8305 44.6133 56.9025 43.76 61.1265 43.76H73.2225V40.496C73.2225 37.2107 72.3478 34.7147 70.5985 33.008C68.8918 31.3013 66.3532 30.448 62.9825 30.448C60.6358 30.448 58.4385 30.8533 56.3905 31.664C54.3425 32.4747 52.5932 33.5627 51.1425 34.928L49.9905 33.392C51.6118 31.856 53.5532 30.6613 55.8145 29.808C58.1185 28.9547 60.5292 28.528 63.0465 28.528ZM61.0625 60.4C67.0358 60.4 71.0892 57.7333 73.2225 52.4V45.488H61.1265C57.6705 45.488 55.1318 46.1493 53.5105 47.472C51.9318 48.752 51.1425 50.5013 51.1425 52.72C51.1425 55.1093 52.0172 56.9867 53.7665 58.352C55.5585 59.7173 57.9905 60.4 61.0625 60.4ZM97.1665 62.192C94.4785 62.192 91.9398 61.7867 89.5505 60.976C87.2038 60.1653 85.3692 59.0987 84.0465 57.776L85.0705 56.112C86.4358 57.3067 88.1852 58.3093 90.3185 59.12C92.4945 59.9307 94.7985 60.336 97.2305 60.336C100.815 60.336 103.46 59.7387 105.167 58.544C106.873 57.3067 107.727 55.6 107.727 53.424C107.727 51.888 107.257 50.672 106.319 49.776C105.423 48.88 104.292 48.2187 102.927 47.792C101.561 47.3653 99.7265 46.9387 97.4225 46.512C94.7345 46 92.5798 45.488 90.9585 44.976C89.3798 44.4213 88.0358 43.5467 86.9265 42.352C85.8172 41.1573 85.2625 39.4933 85.2625 37.36C85.2625 34.8427 86.2865 32.752 88.3345 31.088C90.4252 29.3813 93.4545 28.528 97.4225 28.528C99.4705 28.528 101.519 28.848 103.567 29.488C105.615 30.0853 107.279 30.896 108.559 31.92L107.471 33.584C106.148 32.56 104.591 31.792 102.799 31.28C101.049 30.7253 99.2358 30.448 97.3585 30.448C94.0732 30.448 91.5985 31.088 89.9345 32.368C88.2705 33.6053 87.4385 35.248 87.4385 37.296C87.4385 38.9173 87.9078 40.1973 88.8465 41.136C89.7852 42.0747 90.9372 42.7787 92.3025 43.248C93.7105 43.6747 95.6092 44.1227 97.9985 44.592C100.559 45.0613 102.628 45.5733 104.207 46.128C105.785 46.64 107.108 47.472 108.175 48.624C109.284 49.776 109.839 51.376 109.839 53.424C109.839 56.112 108.751 58.2453 106.575 59.824C104.399 61.4027 101.263 62.192 97.1665 62.192ZM119.229 28.784H121.341V62H119.229V28.784ZM120.253 20.08C119.698 20.08 119.208 19.888 118.781 19.504C118.354 19.0773 118.141 18.5867 118.141 18.032C118.141 17.4347 118.333 16.944 118.717 16.56C119.144 16.1333 119.656 15.92 120.253 15.92C120.808 15.92 121.298 16.1333 121.725 16.56C122.152 16.944 122.365 17.4133 122.365 17.968C122.365 18.5227 122.152 19.0133 121.725 19.44C121.298 19.8667 120.808 20.08 120.253 20.08ZM151.222 28.528C155.36 28.528 158.624 29.744 161.014 32.176C163.403 34.5653 164.597 38 164.597 42.48V62H162.486V42.608C162.486 38.6827 161.483 35.696 159.478 33.648C157.515 31.5573 154.699 30.512 151.03 30.512C146.891 30.512 143.627 31.7493 141.238 34.224C138.848 36.656 137.654 39.9413 137.654 44.08V62H135.542V28.784H137.59V36.912C138.656 34.3093 140.363 32.2613 142.71 30.768C145.099 29.2747 147.936 28.528 151.222 28.528ZM191.023 62.192C187.951 62.192 185.156 61.488 182.639 60.08C180.164 58.6293 178.223 56.624 176.815 54.064C175.407 51.504 174.703 48.6027 174.703 45.36C174.703 42.1173 175.407 39.216 176.815 36.656C178.223 34.096 180.164 32.112 182.639 30.704C185.156 29.2533 187.951 28.528 191.023 28.528C194.138 28.528 196.932 29.2533 199.407 30.704C201.882 32.112 203.823 34.096 205.231 36.656C206.639 39.216 207.343 42.1173 207.343 45.36C207.343 48.6027 206.639 51.504 205.231 54.064C203.823 56.624 201.882 58.6293 199.407 60.08C196.932 61.488 194.138 62.192 191.023 62.192ZM191.023 60.272C193.711 60.272 196.122 59.6533 198.255 58.416C200.431 57.136 202.138 55.3653 203.375 53.104C204.612 50.8427 205.231 48.2613 205.231 45.36C205.231 42.4587 204.612 39.8987 203.375 37.68C202.138 35.4187 200.431 33.6693 198.255 32.432C196.122 31.152 193.711 30.512 191.023 30.512C188.335 30.512 185.903 31.152 183.727 32.432C181.594 33.6693 179.908 35.4187 178.671 37.68C177.434 39.8987 176.815 42.4587 176.815 45.36C176.815 48.2613 177.434 50.8427 178.671 53.104C179.908 55.3653 181.594 57.136 183.727 58.416C185.903 59.6533 188.335 60.272 191.023 60.272Z" fill="black"/>
<path d="M26.752 177.192C22.4427 177.192 18.5387 176.211 15.04 174.248C11.5413 172.285 8.78933 169.597 6.784 166.184C4.77867 162.728 3.776 158.867 3.776 154.6C3.776 150.333 4.77867 146.493 6.784 143.08C8.78933 139.624 11.5413 136.915 15.04 134.952C18.5387 132.989 22.4427 132.008 26.752 132.008C29.7813 132.008 32.5973 132.499 35.2 133.48C37.8453 134.419 40.1067 135.827 41.984 137.704L41.216 138.6C37.4613 135.016 32.64 133.224 26.752 133.224C22.6987 133.224 19.008 134.163 15.68 136.04C12.3947 137.917 9.792 140.499 7.872 143.784C5.99467 147.027 5.056 150.632 5.056 154.6C5.056 158.568 5.99467 162.195 7.872 165.48C9.792 168.723 12.3947 171.283 15.68 173.16C19.008 175.037 22.6987 175.976 26.752 175.976C32.5973 175.976 37.4187 174.163 41.216 170.536L41.984 171.432C40.1067 173.309 37.8453 174.739 35.2 175.72C32.5547 176.701 29.7387 177.192 26.752 177.192ZM62.795 143.72C66.635 143.72 69.5577 144.723 71.563 146.728C73.611 148.691 74.635 151.549 74.635 155.304V177H73.355V169.96C72.2883 172.221 70.667 173.992 68.491 175.272C66.3577 176.552 63.7763 177.192 60.747 177.192C57.0777 177.192 54.1977 176.36 52.107 174.696C50.059 172.989 49.035 170.728 49.035 167.912C49.035 165.267 49.9523 163.133 51.787 161.512C53.6643 159.848 56.6723 159.016 60.811 159.016H73.355V155.368C73.355 151.912 72.459 149.309 70.667 147.56C68.9177 145.811 66.315 144.936 62.859 144.936C60.4697 144.936 58.2297 145.363 56.139 146.216C54.091 147.027 52.3203 148.136 50.827 149.544L49.931 148.648C51.5097 147.112 53.4297 145.917 55.691 145.064C57.9523 144.168 60.3203 143.72 62.795 143.72ZM60.747 175.976C66.891 175.976 71.0937 173.16 73.355 167.528V160.232H60.747C57.163 160.232 54.5177 160.915 52.811 162.28C51.147 163.645 50.315 165.501 50.315 167.848C50.315 170.365 51.2323 172.349 53.067 173.8C54.9017 175.251 57.4617 175.976 60.747 175.976ZM96.601 177.192C93.9557 177.192 91.4597 176.765 89.113 175.912C86.7663 175.059 84.953 173.971 83.673 172.648L84.441 171.624C85.721 172.861 87.4277 173.907 89.561 174.76C91.737 175.571 94.0837 175.976 96.601 175.976C100.356 175.976 103.129 175.336 104.921 174.056C106.713 172.733 107.609 170.92 107.609 168.616C107.609 166.952 107.118 165.651 106.137 164.712C105.198 163.731 104.025 163.027 102.617 162.6C101.252 162.131 99.353 161.661 96.921 161.192C94.3183 160.723 92.2063 160.232 90.585 159.72C89.0063 159.165 87.6623 158.312 86.553 157.16C85.4863 155.965 84.953 154.323 84.953 152.232C84.953 149.843 85.9343 147.837 87.897 146.216C89.9023 144.552 92.825 143.72 96.665 143.72C98.713 143.72 100.74 144.04 102.745 144.68C104.75 145.277 106.372 146.088 107.609 147.112L106.841 148.136C105.561 147.112 104.025 146.323 102.233 145.768C100.441 145.213 98.585 144.936 96.665 144.936C93.209 144.936 90.6063 145.619 88.857 146.984C87.1503 148.307 86.297 150.056 86.297 152.232C86.297 153.981 86.7877 155.368 87.769 156.392C88.7503 157.373 89.9663 158.099 91.417 158.568C92.8677 159.037 94.7877 159.485 97.177 159.912C99.7797 160.424 101.849 160.936 103.385 161.448C104.921 161.96 106.222 162.792 107.289 163.944C108.356 165.053 108.889 166.611 108.889 168.616C108.889 171.219 107.844 173.309 105.753 174.888C103.662 176.424 100.612 177.192 96.601 177.192ZM118.61 143.912H119.89V177H118.61V143.912ZM119.25 134.76C118.781 134.76 118.375 134.589 118.034 134.248C117.735 133.907 117.586 133.523 117.586 133.096C117.586 132.627 117.735 132.243 118.034 131.944C118.375 131.603 118.781 131.432 119.25 131.432C119.677 131.432 120.061 131.603 120.402 131.944C120.743 132.243 120.914 132.627 120.914 133.096C120.914 133.523 120.743 133.907 120.402 134.248C120.061 134.589 119.677 134.76 119.25 134.76ZM149.778 143.72C153.917 143.72 157.159 144.915 159.506 147.304C161.853 149.651 163.026 153.043 163.026 157.48V177H161.746V157.48C161.746 153.427 160.701 150.333 158.61 148.2C156.562 146.024 153.639 144.936 149.842 144.936C145.533 144.936 142.119 146.237 139.602 148.84C137.127 151.4 135.89 154.792 135.89 159.016V177H134.61V143.912H135.89V152.744C136.914 149.928 138.621 147.731 141.01 146.152C143.399 144.531 146.322 143.72 149.778 143.72ZM189.52 177.192C186.491 177.192 183.739 176.488 181.264 175.08C178.832 173.629 176.912 171.624 175.504 169.064C174.139 166.504 173.456 163.624 173.456 160.424C173.456 157.224 174.139 154.365 175.504 151.848C176.912 149.288 178.832 147.304 181.264 145.896C183.739 144.445 186.491 143.72 189.52 143.72C192.549 143.72 195.28 144.445 197.712 145.896C200.187 147.304 202.107 149.288 203.472 151.848C204.88 154.365 205.584 157.224 205.584 160.424C205.584 163.624 204.88 166.504 203.472 169.064C202.107 171.624 200.187 173.629 197.712 175.08C195.28 176.488 192.549 177.192 189.52 177.192ZM189.52 175.976C192.293 175.976 194.811 175.315 197.072 173.992C199.333 172.669 201.104 170.835 202.384 168.488C203.664 166.099 204.304 163.411 204.304 160.424C204.304 157.437 203.664 154.771 202.384 152.424C201.104 150.035 199.333 148.2 197.072 146.92C194.811 145.597 192.293 144.936 189.52 144.936C186.747 144.936 184.229 145.597 181.968 146.92C179.707 148.2 177.936 150.035 176.656 152.424C175.376 154.771 174.736 157.437 174.736 160.424C174.736 163.411 175.376 166.099 176.656 168.488C177.936 170.835 179.707 172.669 181.968 173.992C184.229 175.315 186.747 175.976 189.52 175.976Z" fill="black"/>
<path d="M26.752 292.32C22.3573 292.32 18.3893 291.339 14.848 289.376C11.3493 287.413 8.576 284.704 6.528 281.248C4.52267 277.792 3.52 273.909 3.52 269.6C3.52 265.291 4.52267 261.408 6.528 257.952C8.576 254.496 11.3493 251.787 14.848 249.824C18.3893 247.861 22.3573 246.88 26.752 246.88C29.9947 246.88 32.9813 247.413 35.712 248.48C38.4427 249.504 40.768 251.04 42.688 253.088L40.64 255.2C37.056 251.659 32.4693 249.888 26.88 249.888C23.1253 249.888 19.712 250.741 16.64 252.448C13.568 254.155 11.1573 256.523 9.408 259.552C7.65867 262.539 6.784 265.888 6.784 269.6C6.784 273.312 7.65867 276.683 9.408 279.712C11.1573 282.699 13.568 285.045 16.64 286.752C19.712 288.459 23.1253 289.312 26.88 289.312C32.4267 289.312 37.0133 287.52 40.64 283.936L42.688 286.048C40.768 288.096 38.4213 289.653 35.648 290.72C32.9173 291.787 29.952 292.32 26.752 292.32ZM63.298 258.336C67.4367 258.336 70.6153 259.403 72.834 261.536C75.0527 263.627 76.162 266.72 76.162 270.816V292H73.09V286.048C72.0233 288.011 70.466 289.547 68.418 290.656C66.37 291.723 63.9167 292.256 61.058 292.256C57.346 292.256 54.402 291.381 52.226 289.632C50.0927 287.883 49.026 285.579 49.026 282.72C49.026 279.947 50.0073 277.707 51.97 276C53.9753 274.251 57.154 273.376 61.506 273.376H72.962V270.688C72.962 267.573 72.1087 265.205 70.402 263.584C68.738 261.963 66.2847 261.152 63.042 261.152C60.8233 261.152 58.69 261.536 56.642 262.304C54.6367 263.072 52.93 264.096 51.522 265.376L49.922 263.072C51.586 261.579 53.5913 260.427 55.938 259.616C58.2847 258.763 60.738 258.336 63.298 258.336ZM61.506 289.632C64.2793 289.632 66.626 288.992 68.546 287.712C70.5087 286.432 71.9807 284.576 72.962 282.144V275.872H61.57C58.2847 275.872 55.8953 276.469 54.402 277.664C52.9513 278.859 52.226 280.501 52.226 282.592C52.226 284.768 53.0367 286.496 54.658 287.776C56.2793 289.013 58.562 289.632 61.506 289.632ZM97.7945 292.256C95.1065 292.256 92.5465 291.851 90.1145 291.04C87.6825 290.229 85.7838 289.205 84.4185 287.968L85.8905 285.408C87.2558 286.56 89.0052 287.52 91.1385 288.288C93.3145 289.056 95.5758 289.44 97.9225 289.44C101.293 289.44 103.768 288.885 105.347 287.776C106.968 286.667 107.779 285.131 107.779 283.168C107.779 281.76 107.331 280.651 106.435 279.84C105.581 279.029 104.515 278.432 103.235 278.048C101.955 277.664 100.184 277.259 97.9225 276.832C95.2772 276.363 93.1438 275.851 91.5225 275.296C89.9012 274.741 88.5145 273.845 87.3625 272.608C86.2105 271.371 85.6345 269.664 85.6345 267.488C85.6345 264.843 86.7225 262.667 88.8985 260.96C91.1172 259.211 94.2532 258.336 98.3065 258.336C100.44 258.336 102.552 258.635 104.643 259.232C106.733 259.829 108.44 260.619 109.763 261.6L108.291 264.16C106.925 263.179 105.368 262.432 103.619 261.92C101.869 261.408 100.077 261.152 98.2425 261.152C95.1278 261.152 92.7812 261.728 91.2025 262.88C89.6238 264.032 88.8345 265.547 88.8345 267.424C88.8345 268.917 89.2825 270.091 90.1785 270.944C91.0745 271.755 92.1625 272.373 93.4425 272.8C94.7652 273.184 96.5998 273.611 98.9465 274.08C101.549 274.549 103.64 275.061 105.219 275.616C106.84 276.128 108.205 276.981 109.315 278.176C110.424 279.371 110.979 281.013 110.979 283.104C110.979 285.877 109.827 288.096 107.523 289.76C105.219 291.424 101.976 292.256 97.7945 292.256ZM119.909 258.592H123.109V292H119.909V258.592ZM121.509 250.464C120.784 250.464 120.165 250.229 119.653 249.76C119.141 249.248 118.885 248.629 118.885 247.904C118.885 247.179 119.141 246.56 119.653 246.048C120.165 245.536 120.784 245.28 121.509 245.28C122.234 245.28 122.853 245.536 123.365 246.048C123.877 246.517 124.133 247.115 124.133 247.84C124.133 248.565 123.877 249.184 123.365 249.696C122.853 250.208 122.234 250.464 121.509 250.464ZM152.917 258.336C157.098 258.336 160.405 259.552 162.837 261.984C165.269 264.416 166.485 267.915 166.485 272.48V292H163.285V272.736C163.285 268.981 162.325 266.123 160.405 264.16C158.527 262.197 155.882 261.216 152.469 261.216C148.543 261.216 145.45 262.389 143.189 264.736C140.927 267.083 139.797 270.24 139.797 274.208V292H136.597V258.592H139.669V265.824C140.821 263.477 142.527 261.643 144.789 260.32C147.093 258.997 149.802 258.336 152.917 258.336ZM192.778 292.256C189.62 292.256 186.762 291.531 184.202 290.08C181.684 288.629 179.7 286.624 178.25 284.064C176.799 281.461 176.074 278.539 176.074 275.296C176.074 272.053 176.799 269.152 178.25 266.592C179.7 263.989 181.684 261.963 184.202 260.512C186.762 259.061 189.62 258.336 192.778 258.336C195.935 258.336 198.772 259.061 201.29 260.512C203.85 261.963 205.855 263.989 207.306 266.592C208.756 269.152 209.482 272.053 209.482 275.296C209.482 278.539 208.756 281.461 207.306 284.064C205.855 286.624 203.85 288.629 201.29 290.08C198.772 291.531 195.935 292.256 192.778 292.256ZM192.778 289.376C195.338 289.376 197.62 288.779 199.626 287.584C201.674 286.389 203.274 284.725 204.426 282.592C205.62 280.459 206.218 278.027 206.218 275.296C206.218 272.565 205.62 270.133 204.426 268C203.274 265.867 201.674 264.203 199.626 263.008C197.62 261.813 195.338 261.216 192.778 261.216C190.218 261.216 187.914 261.813 185.866 263.008C183.86 264.203 182.26 265.867 181.066 268C179.914 270.133 179.338 272.565 179.338 275.296C179.338 278.027 179.914 280.459 181.066 282.592C182.26 284.725 183.86 286.389 185.866 287.584C187.914 288.779 190.218 289.376 192.778 289.376Z" fill="black"/>
<path d="M26.752 407.384C22.3147 407.384 18.304 406.403 14.72 404.44C11.1787 402.477 8.384 399.768 6.336 396.312C4.33067 392.813 3.328 388.909 3.328 384.6C3.328 380.291 4.33067 376.408 6.336 372.952C8.384 369.453 11.2 366.723 14.784 364.76C18.368 362.797 22.3787 361.816 26.816 361.816C30.144 361.816 33.216 362.371 36.032 363.48C38.848 364.589 41.2373 366.211 43.2 368.344L40.192 371.352C36.6933 367.811 32.2773 366.04 26.944 366.04C23.4027 366.04 20.1813 366.851 17.28 368.472C14.3787 370.093 12.096 372.312 10.432 375.128C8.81067 377.944 8 381.101 8 384.6C8 388.099 8.81067 391.256 10.432 394.072C12.096 396.888 14.3787 399.107 17.28 400.728C20.1813 402.349 23.4027 403.16 26.944 403.16C32.32 403.16 36.736 401.368 40.192 397.784L43.2 400.792C41.2373 402.925 38.8267 404.568 35.968 405.72C33.152 406.829 30.08 407.384 26.752 407.384ZM63.612 373.08C68.0067 373.08 71.3773 374.189 73.724 376.408C76.0707 378.584 77.244 381.827 77.244 386.136V407H72.892V401.752C71.868 403.501 70.3533 404.867 68.348 405.848C66.3853 406.829 64.0387 407.32 61.308 407.32C57.5533 407.32 54.5667 406.424 52.348 404.632C50.1293 402.84 49.02 400.472 49.02 397.528C49.02 394.669 50.044 392.365 52.092 390.616C54.1827 388.867 57.4893 387.992 62.012 387.992H72.7V385.944C72.7 383.043 71.8893 380.845 70.268 379.352C68.6467 377.816 66.2787 377.048 63.164 377.048C61.0307 377.048 58.9827 377.411 57.02 378.136C55.0573 378.819 53.372 379.779 51.964 381.016L49.916 377.624C51.6227 376.173 53.6707 375.064 56.06 374.296C58.4493 373.485 60.9667 373.08 63.612 373.08ZM62.012 403.736C64.572 403.736 66.7693 403.16 68.604 402.008C70.4387 400.813 71.804 399.107 72.7 396.888V391.384H62.14C56.38 391.384 53.5 393.389 53.5 397.4C53.5 399.363 54.2467 400.92 55.74 402.072C57.2333 403.181 59.324 403.736 62.012 403.736ZM98.61 407.32C95.8793 407.32 93.2553 406.936 90.738 406.168C88.2633 405.357 86.322 404.355 84.914 403.16L86.962 399.576C88.37 400.685 90.1407 401.603 92.274 402.328C94.4073 403.011 96.626 403.352 98.93 403.352C102.002 403.352 104.263 402.883 105.714 401.944C107.207 400.963 107.954 399.597 107.954 397.848C107.954 396.611 107.549 395.651 106.738 394.968C105.927 394.243 104.903 393.709 103.666 393.368C102.429 392.984 100.786 392.621 98.738 392.28C96.0073 391.768 93.81 391.256 92.146 390.744C90.482 390.189 89.0527 389.272 87.858 387.992C86.706 386.712 86.13 384.941 86.13 382.68C86.13 379.864 87.3033 377.56 89.65 375.768C91.9967 373.976 95.2607 373.08 99.442 373.08C101.618 373.08 103.794 373.379 105.97 373.976C108.146 374.531 109.938 375.277 111.346 376.216L109.362 379.864C106.589 377.944 103.282 376.984 99.442 376.984C96.5407 376.984 94.3433 377.496 92.85 378.52C91.3993 379.544 90.674 380.888 90.674 382.552C90.674 383.832 91.0793 384.856 91.89 385.624C92.7433 386.392 93.7887 386.968 95.026 387.352C96.2633 387.693 97.97 388.056 100.146 388.44C102.834 388.952 104.989 389.464 106.61 389.976C108.231 390.488 109.618 391.363 110.77 392.6C111.922 393.837 112.498 395.544 112.498 397.72C112.498 400.664 111.261 403.011 108.786 404.76C106.354 406.467 102.962 407.32 98.61 407.32ZM120.899 373.336H125.443V407H120.899V373.336ZM123.203 365.976C122.264 365.976 121.475 365.656 120.835 365.016C120.195 364.376 119.875 363.608 119.875 362.712C119.875 361.859 120.195 361.112 120.835 360.472C121.475 359.832 122.264 359.512 123.203 359.512C124.141 359.512 124.931 359.832 125.571 360.472C126.211 361.069 126.531 361.795 126.531 362.648C126.531 363.587 126.211 364.376 125.571 365.016C124.931 365.656 124.141 365.976 123.203 365.976ZM155.238 373.08C159.462 373.08 162.811 374.317 165.286 376.792C167.803 379.224 169.062 382.787 169.062 387.48V407H164.518V387.928C164.518 384.429 163.643 381.763 161.894 379.928C160.145 378.093 157.649 377.176 154.406 377.176C150.779 377.176 147.899 378.264 145.766 380.44C143.675 382.573 142.63 385.539 142.63 389.336V407H138.086V373.336H142.438V379.544C143.675 377.496 145.382 375.917 147.558 374.808C149.777 373.656 152.337 373.08 155.238 373.08ZM195.284 407.32C192.041 407.32 189.118 406.595 186.516 405.144C183.913 403.651 181.865 401.603 180.372 399C178.878 396.397 178.132 393.453 178.132 390.168C178.132 386.883 178.878 383.939 180.372 381.336C181.865 378.733 183.913 376.707 186.516 375.256C189.118 373.805 192.041 373.08 195.284 373.08C198.526 373.08 201.449 373.805 204.052 375.256C206.654 376.707 208.681 378.733 210.132 381.336C211.625 383.939 212.372 386.883 212.372 390.168C212.372 393.453 211.625 396.397 210.132 399C208.681 401.603 206.654 403.651 204.052 405.144C201.449 406.595 198.526 407.32 195.284 407.32ZM195.284 403.288C197.673 403.288 199.806 402.755 201.684 401.688C203.604 400.579 205.097 399.021 206.164 397.016C207.23 395.011 207.764 392.728 207.764 390.168C207.764 387.608 207.23 385.325 206.164 383.32C205.097 381.315 203.604 379.779 201.684 378.712C199.806 377.603 197.673 377.048 195.284 377.048C192.894 377.048 190.74 377.603 188.82 378.712C186.942 379.779 185.449 381.315 184.34 383.32C183.273 385.325 182.74 387.608 182.74 390.168C182.74 392.728 183.273 395.011 184.34 397.016C185.449 399.021 186.942 400.579 188.82 401.688C190.74 402.755 192.894 403.288 195.284 403.288Z" fill="black"/>
<path d="M29.752 522.512C25.272 522.512 21.2187 521.531 17.592 519.568C14.008 517.563 11.192 514.832 9.144 511.376C7.096 507.877 6.072 503.952 6.072 499.6C6.072 495.248 7.096 491.344 9.144 487.888C11.192 484.389 14.0293 481.659 17.656 479.696C21.2827 477.691 25.336 476.688 29.816 476.688C33.3147 476.688 36.5147 477.285 39.416 478.48C42.3173 479.632 44.792 481.36 46.84 483.664L42.68 487.696C39.3093 484.155 35.1067 482.384 30.072 482.384C26.744 482.384 23.736 483.131 21.048 484.624C18.36 486.117 16.248 488.187 14.712 490.832C13.2187 493.435 12.472 496.357 12.472 499.6C12.472 502.843 13.2187 505.787 14.712 508.432C16.248 511.035 18.36 513.083 21.048 514.576C23.736 516.069 26.744 516.816 30.072 516.816C35.064 516.816 39.2667 515.024 42.68 511.44L46.84 515.472C44.792 517.776 42.296 519.525 39.352 520.72C36.4507 521.915 33.2507 522.512 29.752 522.512ZM66.9885 487.76C71.6818 487.76 75.2658 488.912 77.7405 491.216C80.2578 493.52 81.5165 496.955 81.5165 501.52V522H75.6925V517.52C74.6685 519.099 73.1965 520.315 71.2765 521.168C69.3992 521.979 67.1592 522.384 64.5565 522.384C60.7592 522.384 57.7085 521.467 55.4045 519.632C53.1432 517.797 52.0125 515.387 52.0125 512.4C52.0125 509.413 53.1005 507.024 55.2765 505.232C57.4525 503.397 60.9085 502.48 65.6445 502.48H75.3725V501.264C75.3725 498.619 74.6045 496.592 73.0685 495.184C71.5325 493.776 69.2712 493.072 66.2845 493.072C64.2792 493.072 62.3165 493.413 60.3965 494.096C58.4765 494.736 56.8552 495.611 55.5325 496.72L52.9725 492.112C54.7218 490.704 56.8125 489.637 59.2445 488.912C61.6765 488.144 64.2578 487.76 66.9885 487.76ZM65.5805 517.648C67.9272 517.648 69.9538 517.136 71.6605 516.112C73.3672 515.045 74.6045 513.552 75.3725 511.632V506.896H65.9005C60.6952 506.896 58.0925 508.645 58.0925 512.144C58.0925 513.851 58.7538 515.195 60.0765 516.176C61.3992 517.157 63.2338 517.648 65.5805 517.648ZM102.615 522.384C99.8412 522.384 97.1745 522.021 94.6145 521.296C92.0545 520.528 90.0492 519.568 88.5985 518.416L91.1585 513.552C92.6518 514.619 94.4652 515.472 96.5985 516.112C98.7318 516.752 100.887 517.072 103.062 517.072C108.439 517.072 111.127 515.536 111.127 512.464C111.127 511.44 110.764 510.629 110.039 510.032C109.313 509.435 108.396 509.008 107.287 508.752C106.22 508.453 104.684 508.133 102.679 507.792C99.9478 507.365 97.7078 506.875 95.9585 506.32C94.2518 505.765 92.7798 504.827 91.5425 503.504C90.3052 502.181 89.6865 500.325 89.6865 497.936C89.6865 494.864 90.9665 492.411 93.5265 490.576C96.0865 488.699 99.5212 487.76 103.831 487.76C106.092 487.76 108.353 488.037 110.615 488.592C112.876 489.147 114.732 489.893 116.183 490.832L113.559 495.696C110.785 493.904 107.521 493.008 103.767 493.008C101.164 493.008 99.1798 493.435 97.8145 494.288C96.4492 495.141 95.7665 496.272 95.7665 497.68C95.7665 498.789 96.1505 499.664 96.9185 500.304C97.6865 500.944 98.6252 501.413 99.7345 501.712C100.887 502.011 102.487 502.352 104.535 502.736C107.265 503.205 109.463 503.717 111.127 504.272C112.833 504.784 114.284 505.68 115.479 506.96C116.673 508.24 117.271 510.032 117.271 512.336C117.271 515.408 115.948 517.861 113.303 519.696C110.7 521.488 107.137 522.384 102.615 522.384ZM124.949 488.08H131.093V522H124.949V488.08ZM128.021 481.552C126.826 481.552 125.824 481.168 125.013 480.4C124.245 479.632 123.861 478.693 123.861 477.584C123.861 476.475 124.245 475.536 125.013 474.768C125.824 473.957 126.826 473.552 128.021 473.552C129.216 473.552 130.197 473.936 130.965 474.704C131.776 475.429 132.181 476.347 132.181 477.456C132.181 478.608 131.776 479.589 130.965 480.4C130.197 481.168 129.216 481.552 128.021 481.552ZM160.936 487.76C165.245 487.76 168.659 489.019 171.176 491.536C173.736 494.011 175.016 497.659 175.016 502.48V522H168.872V503.184C168.872 499.899 168.083 497.424 166.504 495.76C164.925 494.096 162.664 493.264 159.72 493.264C156.392 493.264 153.768 494.245 151.848 496.208C149.928 498.128 148.968 500.901 148.968 504.528V522H142.824V488.08H148.712V493.2C149.949 491.451 151.613 490.107 153.704 489.168C155.837 488.229 158.248 487.76 160.936 487.76ZM201.102 522.384C197.731 522.384 194.702 521.637 192.014 520.144C189.326 518.651 187.214 516.603 185.678 514C184.185 511.355 183.438 508.368 183.438 505.04C183.438 501.712 184.185 498.747 185.678 496.144C187.214 493.499 189.326 491.451 192.014 490C194.702 488.507 197.731 487.76 201.102 487.76C204.473 487.76 207.481 488.507 210.126 490C212.814 491.451 214.905 493.499 216.398 496.144C217.934 498.747 218.702 501.712 218.702 505.04C218.702 508.368 217.934 511.355 216.398 514C214.905 516.603 212.814 518.651 210.126 520.144C207.481 521.637 204.473 522.384 201.102 522.384ZM201.102 517.008C203.278 517.008 205.219 516.517 206.926 515.536C208.675 514.512 210.041 513.104 211.022 511.312C212.003 509.477 212.494 507.387 212.494 505.04C212.494 502.693 212.003 500.624 211.022 498.832C210.041 496.997 208.675 495.589 206.926 494.608C205.219 493.627 203.278 493.136 201.102 493.136C198.926 493.136 196.963 493.627 195.214 494.608C193.507 495.589 192.142 496.997 191.118 498.832C190.137 500.624 189.646 502.693 189.646 505.04C189.646 507.387 190.137 509.477 191.118 511.312C192.142 513.104 193.507 514.512 195.214 515.536C196.963 516.517 198.926 517.008 201.102 517.008Z" fill="black"/>
<path d="M30.752 637.64C26.2293 637.64 22.1333 636.659 18.464 634.696C14.8373 632.691 11.9787 629.939 9.888 626.44C7.84 622.941 6.816 618.995 6.816 614.6C6.816 610.205 7.86133 606.259 9.952 602.76C12.0427 599.261 14.9013 596.531 18.528 594.568C22.1973 592.563 26.2933 591.56 30.816 591.56C34.4853 591.56 37.8347 592.2 40.864 593.48C43.8933 594.76 46.4533 596.616 48.544 599.048L43.168 604.104C39.9253 600.605 35.936 598.856 31.2 598.856C28.128 598.856 25.376 599.539 22.944 600.904C20.512 602.227 18.6133 604.083 17.248 606.472C15.8827 608.861 15.2 611.571 15.2 614.6C15.2 617.629 15.8827 620.339 17.248 622.728C18.6133 625.117 20.512 626.995 22.944 628.36C25.376 629.683 28.128 630.344 31.2 630.344C35.936 630.344 39.9253 628.573 43.168 625.032L48.544 630.152C46.4533 632.584 43.872 634.44 40.8 635.72C37.7707 637 34.4213 637.64 30.752 637.64ZM68.4915 602.44C73.5262 602.44 77.3662 603.656 80.0115 606.088C82.6995 608.477 84.0435 612.104 84.0435 616.968V637H76.4915V632.84C75.5102 634.333 74.1022 635.485 72.2675 636.296C70.4755 637.064 68.2995 637.448 65.7395 637.448C63.1795 637.448 60.9395 637.021 59.0195 636.168C57.0995 635.272 55.6062 634.056 54.5395 632.52C53.5155 630.941 53.0035 629.171 53.0035 627.208C53.0035 624.136 54.1342 621.683 56.3955 619.848C58.6995 617.971 62.3048 617.032 67.2115 617.032H76.0435V616.52C76.0435 614.131 75.3182 612.296 73.8675 611.016C72.4595 609.736 70.3475 609.096 67.5315 609.096C65.6115 609.096 63.7128 609.395 61.8355 609.992C60.0008 610.589 58.4435 611.421 57.1635 612.488L54.0275 606.664C55.8195 605.299 57.9742 604.253 60.4915 603.528C63.0088 602.803 65.6755 602.44 68.4915 602.44ZM67.4035 631.624C69.4088 631.624 71.1795 631.176 72.7155 630.28C74.2942 629.341 75.4035 628.019 76.0435 626.312V622.344H67.7875C63.1795 622.344 60.8755 623.859 60.8755 626.888C60.8755 628.339 61.4515 629.491 62.6035 630.344C63.7555 631.197 65.3555 631.624 67.4035 631.624ZM104.871 637.448C102.097 637.448 99.3878 637.085 96.7425 636.36C94.0972 635.635 91.9852 634.717 90.4065 633.608L93.4785 627.528C95.0145 628.552 96.8492 629.384 98.9825 630.024C101.159 630.621 103.292 630.92 105.383 630.92C110.161 630.92 112.551 629.661 112.551 627.144C112.551 625.949 111.932 625.117 110.695 624.648C109.5 624.179 107.559 623.731 104.871 623.304C102.055 622.877 99.7505 622.387 97.9585 621.832C96.2092 621.277 94.6732 620.317 93.3505 618.952C92.0705 617.544 91.4305 615.603 91.4305 613.128C91.4305 609.885 92.7745 607.304 95.4625 605.384C98.1932 603.421 101.863 602.44 106.471 602.44C108.817 602.44 111.164 602.717 113.511 603.272C115.857 603.784 117.777 604.488 119.271 605.384L116.199 611.464C113.297 609.757 110.033 608.904 106.407 608.904C104.06 608.904 102.268 609.267 101.031 609.992C99.8358 610.675 99.2385 611.592 99.2385 612.744C99.2385 614.024 99.8785 614.941 101.159 615.496C102.481 616.008 104.508 616.499 107.239 616.968C109.969 617.395 112.209 617.885 113.959 618.44C115.708 618.995 117.201 619.933 118.439 621.256C119.719 622.579 120.359 624.456 120.359 626.888C120.359 630.088 118.972 632.648 116.199 634.568C113.425 636.488 109.649 637.448 104.871 637.448ZM127.248 602.824H135.248V637H127.248V602.824ZM131.28 597.192C129.829 597.192 128.613 596.744 127.632 595.848C126.651 594.909 126.16 593.757 126.16 592.392C126.16 591.027 126.651 589.896 127.632 589C128.613 588.061 129.829 587.592 131.28 587.592C132.731 587.592 133.947 588.04 134.928 588.936C135.909 589.789 136.4 590.877 136.4 592.2C136.4 593.608 135.909 594.803 134.928 595.784C133.989 596.723 132.773 597.192 131.28 597.192ZM165.14 602.44C169.449 602.44 172.905 603.699 175.508 606.216C178.111 608.733 179.412 612.467 179.412 617.416V637H171.412V618.44C171.412 615.453 170.708 613.213 169.3 611.72C167.892 610.184 165.887 609.416 163.284 609.416C160.34 609.416 158.015 610.312 156.308 612.104C154.601 613.853 153.748 616.392 153.748 619.72V637H145.748V602.824H153.364V607.24C154.687 605.661 156.351 604.467 158.356 603.656C160.361 602.845 162.623 602.44 165.14 602.44ZM205.233 637.448C201.777 637.448 198.662 636.701 195.889 635.208C193.116 633.715 190.94 631.645 189.361 629C187.825 626.312 187.057 623.283 187.057 619.912C187.057 616.541 187.825 613.533 189.361 610.888C190.94 608.243 193.116 606.173 195.889 604.68C198.662 603.187 201.777 602.44 205.233 602.44C208.732 602.44 211.868 603.187 214.641 604.68C217.414 606.173 219.569 608.243 221.105 610.888C222.684 613.533 223.473 616.541 223.473 619.912C223.473 623.283 222.684 626.312 221.105 629C219.569 631.645 217.414 633.715 214.641 635.208C211.868 636.701 208.732 637.448 205.233 637.448ZM205.233 630.6C208.177 630.6 210.609 629.619 212.529 627.656C214.449 625.693 215.409 623.112 215.409 619.912C215.409 616.712 214.449 614.131 212.529 612.168C210.609 610.205 208.177 609.224 205.233 609.224C202.289 609.224 199.857 610.205 197.937 612.168C196.06 614.131 195.121 616.712 195.121 619.912C195.121 623.112 196.06 625.693 197.937 627.656C199.857 629.619 202.289 630.6 205.233 630.6Z" fill="black"/>
<path d="M30.752 752.768C26.1867 752.768 22.048 751.787 18.336 749.824C14.6667 747.819 11.7653 745.067 9.632 741.568C7.54133 738.027 6.496 734.037 6.496 729.6C6.496 725.163 7.54133 721.195 9.632 717.696C11.7653 714.155 14.6667 711.403 18.336 709.44C22.048 707.435 26.208 706.432 30.816 706.432C34.6987 706.432 38.1973 707.115 41.312 708.48C44.4693 709.845 47.1147 711.808 49.248 714.368L42.592 720.512C39.5627 717.013 35.808 715.264 31.328 715.264C28.5547 715.264 26.08 715.883 23.904 717.12C21.728 718.315 20.0213 720 18.784 722.176C17.5893 724.352 16.992 726.827 16.992 729.6C16.992 732.373 17.5893 734.848 18.784 737.024C20.0213 739.2 21.728 740.907 23.904 742.144C26.08 743.339 28.5547 743.936 31.328 743.936C35.808 743.936 39.5627 742.165 42.592 738.624L49.248 744.768C47.1147 747.371 44.4693 749.355 41.312 750.72C38.1547 752.085 34.6347 752.768 30.752 752.768ZM69.1835 717.056C74.5168 717.056 78.6128 718.336 81.4715 720.896C84.3302 723.413 85.7595 727.232 85.7595 732.352V752H76.4155V747.712C74.5382 750.912 71.0395 752.512 65.9195 752.512C63.2742 752.512 60.9702 752.064 59.0075 751.168C57.0875 750.272 55.6155 749.035 54.5915 747.456C53.5675 745.877 53.0555 744.085 53.0555 742.08C53.0555 738.88 54.2502 736.363 56.6395 734.528C59.0715 732.693 62.8048 731.776 67.8395 731.776H75.7755C75.7755 729.6 75.1142 727.936 73.7915 726.784C72.4688 725.589 70.4848 724.992 67.8395 724.992C66.0048 724.992 64.1915 725.291 62.3995 725.888C60.6502 726.443 59.1568 727.211 57.9195 728.192L54.3355 721.216C56.2128 719.893 58.4528 718.869 61.0555 718.144C63.7008 717.419 66.4102 717.056 69.1835 717.056ZM68.4155 745.792C70.1222 745.792 71.6368 745.408 72.9595 744.64C74.2822 743.829 75.2208 742.656 75.7755 741.12V737.6H68.9275C64.8315 737.6 62.7835 738.944 62.7835 741.632C62.7835 742.912 63.2742 743.936 64.2555 744.704C65.2795 745.429 66.6662 745.792 68.4155 745.792ZM106.38 752.512C103.521 752.512 100.726 752.171 97.9955 751.488C95.2648 750.763 93.0888 749.867 91.4675 748.8L94.7955 741.632C96.3315 742.613 98.1875 743.424 100.364 744.064C102.54 744.661 104.673 744.96 106.764 744.96C110.988 744.96 113.1 743.915 113.1 741.824C113.1 740.843 112.524 740.139 111.372 739.712C110.22 739.285 108.449 738.923 106.06 738.624C103.244 738.197 100.918 737.707 99.0835 737.152C97.2488 736.597 95.6488 735.616 94.2835 734.208C92.9608 732.8 92.2995 730.795 92.2995 728.192C92.2995 726.016 92.9182 724.096 94.1555 722.432C95.4355 720.725 97.2702 719.403 99.6595 718.464C102.092 717.525 104.95 717.056 108.236 717.056C110.668 717.056 113.078 717.333 115.468 717.888C117.9 718.4 119.905 719.125 121.484 720.064L118.156 727.168C115.126 725.461 111.82 724.608 108.236 724.608C106.102 724.608 104.502 724.907 103.436 725.504C102.369 726.101 101.836 726.869 101.836 727.808C101.836 728.875 102.412 729.621 103.564 730.048C104.716 730.475 106.55 730.88 109.068 731.264C111.884 731.733 114.188 732.245 115.98 732.8C117.772 733.312 119.329 734.272 120.652 735.68C121.974 737.088 122.636 739.051 122.636 741.568C122.636 743.701 121.996 745.6 120.716 747.264C119.436 748.928 117.558 750.229 115.084 751.168C112.652 752.064 109.75 752.512 106.38 752.512ZM128.796 717.568H138.78V752H128.796V717.568ZM133.788 712.768C131.953 712.768 130.46 712.235 129.308 711.168C128.156 710.101 127.58 708.779 127.58 707.2C127.58 705.621 128.156 704.299 129.308 703.232C130.46 702.165 131.953 701.632 133.788 701.632C135.622 701.632 137.116 702.144 138.268 703.168C139.42 704.192 139.996 705.472 139.996 707.008C139.996 708.672 139.42 710.059 138.268 711.168C137.116 712.235 135.622 712.768 133.788 712.768ZM168.974 717.056C173.24 717.056 176.675 718.336 179.278 720.896C181.923 723.456 183.246 727.253 183.246 732.288V752H173.262V733.824C173.262 731.093 172.664 729.067 171.47 727.744C170.275 726.379 168.547 725.696 166.286 725.696C163.768 725.696 161.763 726.485 160.27 728.064C158.776 729.6 158.03 731.904 158.03 734.976V752H148.046V717.568H157.582V721.6C158.904 720.149 160.547 719.04 162.51 718.272C164.472 717.461 166.627 717.056 168.974 717.056ZM209.055 752.512C205.428 752.512 202.164 751.765 199.263 750.272C196.404 748.736 194.164 746.624 192.543 743.936C190.921 741.248 190.111 738.197 190.111 734.784C190.111 731.371 190.921 728.32 192.543 725.632C194.164 722.944 196.404 720.853 199.263 719.36C202.164 717.824 205.428 717.056 209.055 717.056C212.681 717.056 215.924 717.824 218.783 719.36C221.641 720.853 223.881 722.944 225.503 725.632C227.124 728.32 227.935 731.371 227.935 734.784C227.935 738.197 227.124 741.248 225.503 743.936C223.881 746.624 221.641 748.736 218.783 750.272C215.924 751.765 212.681 752.512 209.055 752.512ZM209.055 744.32C211.615 744.32 213.705 743.467 215.327 741.76C216.991 740.011 217.823 737.685 217.823 734.784C217.823 731.883 216.991 729.579 215.327 727.872C213.705 726.123 211.615 725.248 209.055 725.248C206.495 725.248 204.383 726.123 202.719 727.872C201.055 729.579 200.223 731.883 200.223 734.784C200.223 737.685 201.055 740.011 202.719 741.76C204.383 743.467 206.495 744.32 209.055 744.32Z" fill="black"/>
<path d="M30.816 867.896C26.1227 867.896 21.8987 866.915 18.144 864.952C14.432 862.947 11.5093 860.173 9.376 856.632C7.24267 853.091 6.176 849.08 6.176 844.6C6.176 840.12 7.24267 836.109 9.376 832.568C11.5093 829.027 14.432 826.275 18.144 824.312C21.8987 822.307 26.1227 821.304 30.816 821.304C34.912 821.304 38.6027 822.029 41.888 823.48C45.1733 824.931 47.904 827.021 50.08 829.752L42.016 837.048C39.1147 833.549 35.5947 831.8 31.456 831.8C29.024 831.8 26.848 832.333 24.928 833.4C23.0507 834.467 21.5787 835.981 20.512 837.944C19.488 839.864 18.976 842.083 18.976 844.6C18.976 847.117 19.488 849.357 20.512 851.32C21.5787 853.24 23.0507 854.733 24.928 855.8C26.848 856.867 29.024 857.4 31.456 857.4C35.5947 857.4 39.1147 855.651 42.016 852.152L50.08 859.448C47.904 862.179 45.1733 864.269 41.888 865.72C38.6027 867.171 34.912 867.896 30.816 867.896ZM69.813 831.736C75.573 831.736 79.9677 833.059 82.997 835.704C86.0263 838.307 87.541 842.317 87.541 847.736V867H76.213V862.52C74.4637 865.891 71.0503 867.576 65.973 867.576C63.285 867.576 60.9597 867.107 58.997 866.168C57.0343 865.229 55.541 863.971 54.517 862.392C53.5357 860.771 53.045 858.936 53.045 856.888C53.045 853.603 54.3037 851.064 56.821 849.272C59.3383 847.437 63.221 846.52 68.469 846.52H75.381C75.1677 842.851 72.7143 841.016 68.021 841.016C66.357 841.016 64.6717 841.293 62.965 841.848C61.2583 842.36 59.8077 843.085 58.613 844.024L54.517 835.768C56.437 834.488 58.7623 833.507 61.493 832.824C64.2663 832.099 67.0397 831.736 69.813 831.736ZM69.365 859.896C70.773 859.896 72.0103 859.555 73.077 858.872C74.1437 858.189 74.9117 857.187 75.381 855.864V852.856H70.133C66.5917 852.856 64.821 854.029 64.821 856.376C64.821 857.443 65.2263 858.296 66.037 858.936C66.8477 859.576 67.957 859.896 69.365 859.896ZM107.825 867.576C104.923 867.576 102.065 867.256 99.2485 866.616C96.4325 865.933 94.1712 865.059 92.4645 863.992L96.1125 855.672C97.6912 856.653 99.5685 857.443 101.745 858.04C103.921 858.595 106.075 858.872 108.208 858.872C110.171 858.872 111.558 858.68 112.369 858.296C113.222 857.869 113.649 857.272 113.649 856.504C113.649 855.736 113.137 855.203 112.113 854.904C111.131 854.563 109.553 854.243 107.377 853.944C104.603 853.603 102.235 853.155 100.273 852.6C98.3525 852.045 96.6885 851.021 95.2805 849.528C93.8725 848.035 93.1685 845.944 93.1685 843.256C93.1685 841.037 93.8298 839.075 95.1525 837.368C96.4752 835.619 98.3952 834.253 100.913 833.272C103.473 832.248 106.523 831.736 110.065 831.736C112.582 831.736 115.078 831.992 117.553 832.504C120.027 833.016 122.097 833.741 123.761 834.68L120.113 842.936C117.041 841.229 113.713 840.376 110.128 840.376C108.209 840.376 106.801 840.611 105.905 841.08C105.009 841.507 104.561 842.083 104.561 842.808C104.561 843.619 105.051 844.195 106.033 844.536C107.014 844.835 108.635 845.155 110.897 845.496C113.755 845.923 116.123 846.413 118.001 846.968C119.878 847.523 121.499 848.547 122.865 850.04C124.273 851.491 124.977 853.539 124.977 856.184C124.977 858.36 124.315 860.323 122.993 862.072C121.67 863.779 119.707 865.123 117.105 866.104C114.545 867.085 111.451 867.576 107.825 867.576ZM130.217 832.312H142.377V867H130.217V832.312ZM136.297 828.472C134.078 828.472 132.286 827.853 130.921 826.616C129.555 825.379 128.873 823.843 128.873 822.008C128.873 820.173 129.555 818.637 130.921 817.4C132.286 816.163 134.078 815.544 136.297 815.544C138.515 815.544 140.307 816.141 141.673 817.336C143.038 818.488 143.721 819.981 143.721 821.816C143.721 823.736 143.038 825.336 141.673 826.616C140.307 827.853 138.515 828.472 136.297 828.472ZM172.871 831.736C177.18 831.736 180.636 833.016 183.239 835.576C185.884 838.136 187.207 841.997 187.207 847.16V867H175.047V849.144C175.047 844.408 173.148 842.04 169.351 842.04C167.26 842.04 165.575 842.723 164.295 844.088C163.058 845.453 162.439 847.501 162.439 850.232V867H150.279V832.312H161.863V836.088C163.228 834.68 164.85 833.613 166.727 832.888C168.604 832.12 170.652 831.736 172.871 831.736ZM212.75 867.576C209.038 867.576 205.688 866.808 202.702 865.272C199.715 863.736 197.368 861.603 195.661 858.872C193.998 856.141 193.166 853.048 193.166 849.592C193.166 846.179 193.998 843.107 195.661 840.376C197.368 837.645 199.694 835.533 202.638 834.04C205.624 832.504 208.995 831.736 212.75 831.736C216.504 831.736 219.875 832.504 222.862 834.04C225.848 835.533 228.174 837.645 229.838 840.376C231.502 843.064 232.334 846.136 232.334 849.592C232.334 853.048 231.502 856.141 229.838 858.872C228.174 861.603 225.848 863.736 222.862 865.272C219.875 866.808 216.504 867.576 212.75 867.576ZM212.75 857.912C214.883 857.912 216.632 857.187 217.998 855.736C219.363 854.243 220.046 852.195 220.046 849.592C220.046 847.032 219.363 845.027 217.998 843.576C216.632 842.125 214.883 841.4 212.75 841.4C210.616 841.4 208.867 842.125 207.502 843.576C206.136 845.027 205.454 847.032 205.454 849.592C205.454 852.195 206.136 854.243 207.502 855.736C208.867 857.187 210.616 857.912 212.75 857.912Z" fill="black"/>
<path d="M31.816 983.024C27.08 983.024 22.8133 982.043 19.016 980.08C15.2187 978.075 12.232 975.301 10.056 971.76C7.92267 968.176 6.856 964.123 6.856 959.6C6.856 955.077 7.92267 951.045 10.056 947.504C12.232 943.92 15.2187 941.147 19.016 939.184C22.8133 937.179 27.08 936.176 31.816 936.176C36.168 936.176 40.0507 936.944 43.464 938.48C46.8773 940.016 49.6933 942.235 51.912 945.136L42.376 953.648C39.6027 950.149 36.3387 948.4 32.584 948.4C29.4267 948.4 26.888 949.424 24.968 951.472C23.048 953.477 22.088 956.187 22.088 959.6C22.088 963.013 23.048 965.744 24.968 967.792C26.888 969.797 29.4267 970.8 32.584 970.8C36.3387 970.8 39.6027 969.051 42.376 965.552L51.912 974.064C49.6933 976.965 46.8773 979.184 43.464 980.72C40.0507 982.256 36.168 983.024 31.816 983.024ZM71.505 946.352C77.649 946.352 82.3423 947.739 85.585 950.512C88.8277 953.243 90.449 957.467 90.449 963.184V982H77.009V977.392C75.345 980.891 72.0383 982.64 67.089 982.64C64.3157 982.64 61.9477 982.171 59.985 981.232C58.065 980.251 56.593 978.949 55.569 977.328C54.5877 975.664 54.097 973.808 54.097 971.76C54.097 968.304 55.4197 965.68 58.065 963.888C60.7103 962.096 64.721 961.2 70.097 961.2H75.921C75.4517 958.469 73.2543 957.104 69.329 957.104C67.7503 957.104 66.1503 957.36 64.529 957.872C62.9077 958.341 61.521 959.003 60.369 959.856L55.761 950.32C57.7663 949.083 60.177 948.123 62.993 947.44C65.8517 946.715 68.689 946.352 71.505 946.352ZM71.441 973.936C72.465 973.936 73.3823 973.659 74.193 973.104C75.0037 972.549 75.601 971.717 75.985 970.608V968.176H72.401C69.457 968.176 67.985 969.157 67.985 971.12C67.985 971.931 68.2837 972.613 68.881 973.168C69.521 973.68 70.3743 973.936 71.441 973.936ZM110.396 982.64C107.409 982.64 104.465 982.32 101.564 981.68C98.6627 981.04 96.316 980.208 94.524 979.184L98.492 969.648C100.113 970.629 102.033 971.397 104.252 971.952C106.471 972.507 108.625 972.784 110.716 972.784C112.38 972.784 113.532 972.656 114.172 972.4C114.855 972.101 115.196 971.675 115.196 971.12C115.196 970.565 114.769 970.181 113.916 969.968C113.105 969.755 111.761 969.541 109.884 969.328C107.025 968.987 104.593 968.56 102.588 968.048C100.583 967.493 98.812 966.448 97.276 964.912C95.7827 963.376 95.036 961.179 95.036 958.32C95.036 956.059 95.7187 954.032 97.084 952.24C98.4493 950.448 100.476 949.019 103.164 947.952C105.895 946.885 109.159 946.352 112.956 946.352C115.601 946.352 118.183 946.608 120.7 947.12C123.26 947.589 125.436 948.293 127.228 949.232L123.26 958.768C120.188 957.061 116.817 956.208 113.148 956.208C109.991 956.208 108.412 956.763 108.412 957.872C108.412 958.427 108.839 958.832 109.692 959.088C110.545 959.301 111.889 959.515 113.724 959.728C116.583 960.069 118.993 960.517 120.956 961.072C122.961 961.627 124.711 962.672 126.204 964.208C127.74 965.744 128.508 967.941 128.508 970.8C128.508 972.976 127.825 974.96 126.46 976.752C125.095 978.544 123.047 979.973 120.316 981.04C117.585 982.107 114.279 982.64 110.396 982.64ZM132.888 946.992H147.352V982H132.888V946.992ZM140.12 944.176C137.517 944.176 135.405 943.493 133.784 942.128C132.205 940.72 131.416 938.949 131.416 936.816C131.416 934.683 132.205 932.933 133.784 931.568C135.405 930.16 137.517 929.456 140.12 929.456C142.765 929.456 144.877 930.117 146.456 931.44C148.034 932.763 148.824 934.469 148.824 936.56C148.824 938.779 148.034 940.613 146.456 942.064C144.877 943.472 142.765 944.176 140.12 944.176ZM178.083 946.352C182.392 946.352 185.848 947.653 188.451 950.256C191.096 952.859 192.419 956.784 192.419 962.032V982H177.955V964.528C177.955 960.517 176.525 958.512 173.667 958.512C172.045 958.512 170.723 959.088 169.699 960.24C168.717 961.349 168.227 963.12 168.227 965.552V982H153.763V946.992H167.523V950.448C168.888 949.083 170.467 948.059 172.259 947.376C174.051 946.693 175.992 946.352 178.083 946.352ZM217.821 982.64C213.938 982.64 210.44 981.872 207.325 980.336C204.253 978.757 201.842 976.603 200.093 973.872C198.344 971.099 197.469 967.963 197.469 964.464C197.469 960.965 198.344 957.851 200.093 955.12C201.842 952.347 204.253 950.192 207.325 948.656C210.44 947.12 213.938 946.352 217.821 946.352C221.746 946.352 225.245 947.12 228.317 948.656C231.432 950.192 233.842 952.347 235.549 955.12C237.298 957.851 238.173 960.965 238.173 964.464C238.173 967.963 237.298 971.099 235.549 973.872C233.842 976.603 231.432 978.757 228.317 980.336C225.245 981.872 221.746 982.64 217.821 982.64ZM217.821 971.376C219.485 971.376 220.85 970.779 221.917 969.584C222.984 968.347 223.517 966.64 223.517 964.464C223.517 962.288 222.984 960.603 221.917 959.408C220.85 958.213 219.485 957.616 217.821 957.616C216.157 957.616 214.792 958.213 213.725 959.408C212.658 960.603 212.125 962.288 212.125 964.464C212.125 966.64 212.658 968.347 213.725 969.584C214.792 970.779 216.157 971.376 217.821 971.376Z" fill="black"/>
<path d="M973.768 62.256C969.459 62.256 965.768 61.5093 962.696 60.016C959.667 58.48 957.363 56.3467 955.784 53.616C954.205 50.8427 953.416 47.6427 953.416 44.016C953.416 39.152 954.504 34.6507 956.68 30.512C958.899 26.3733 962.056 23.088 966.152 20.656C970.248 18.1813 975.005 16.944 980.424 16.944C983.837 16.944 986.867 17.456 989.512 18.48C992.157 19.504 994.227 20.9547 995.72 22.832L994.184 24.176C991.197 20.6773 986.568 18.928 980.296 18.928C975.389 18.928 971.059 20.0587 967.304 22.32C963.549 24.5813 960.648 27.6107 958.6 31.408C956.595 35.2053 955.592 39.3867 955.592 43.952C955.592 48.944 957.171 52.912 960.328 55.856C963.485 58.8 968.029 60.272 973.96 60.272C980.232 60.272 985.331 58.4373 989.256 54.768L990.536 56.368C988.573 58.2027 986.12 59.6533 983.176 60.72C980.275 61.744 977.139 62.256 973.768 62.256ZM1032.36 28.784L1025.77 62H1023.65L1025.19 54.448C1023.57 56.88 1021.48 58.7787 1018.92 60.144C1016.36 61.5093 1013.5 62.192 1010.34 62.192C1005.99 62.192 1002.51 60.976 999.911 58.544C997.351 56.0693 996.071 52.7413 996.071 48.56C996.071 44.7627 996.881 41.3493 998.503 38.32C1000.12 35.2907 1002.36 32.9013 1005.22 31.152C1008.08 29.4027 1011.3 28.528 1014.89 28.528C1018.6 28.528 1021.61 29.3813 1023.91 31.088C1026.21 32.7947 1027.69 35.2053 1028.33 38.32L1030.25 28.784H1032.36ZM1010.73 60.272C1013.88 60.272 1016.7 59.504 1019.17 57.968C1021.69 56.432 1023.65 54.2987 1025.06 51.568C1026.51 48.7947 1027.24 45.7013 1027.24 42.288C1027.24 38.5333 1026.13 35.632 1023.91 33.584C1021.73 31.536 1018.68 30.512 1014.76 30.512C1011.6 30.512 1008.76 31.3013 1006.25 32.88C1003.73 34.416 1001.75 36.5493 1000.29 39.28C998.887 42.0107 998.183 45.0827 998.183 48.496C998.183 52.2507 999.271 55.152 1001.45 57.2C1003.67 59.248 1006.76 60.272 1010.73 60.272ZM1048.41 62.192C1045.9 62.192 1043.46 61.808 1041.12 61.04C1038.81 60.2293 1037.04 59.184 1035.8 57.904L1037.09 56.24C1038.37 57.4773 1040.03 58.48 1042.08 59.248C1044.13 59.9733 1046.28 60.336 1048.54 60.336C1052.21 60.336 1055.07 59.6533 1057.12 58.288C1059.17 56.9227 1060.19 55.0453 1060.19 52.656C1060.19 51.2907 1059.78 50.224 1058.97 49.456C1058.16 48.6453 1057.16 48.048 1055.97 47.664C1054.77 47.2373 1053.17 46.8107 1051.17 46.384C1048.9 45.9147 1047.07 45.4453 1045.66 44.976C1044.3 44.464 1043.12 43.6747 1042.14 42.608C1041.2 41.5413 1040.73 40.112 1040.73 38.32C1040.73 35.376 1041.95 33.008 1044.38 31.216C1046.86 29.424 1050.12 28.528 1054.17 28.528C1056.26 28.528 1058.27 28.848 1060.19 29.488C1062.15 30.0853 1063.71 30.896 1064.86 31.92L1063.71 33.52C1062.51 32.5387 1061.06 31.792 1059.36 31.28C1057.65 30.7253 1055.86 30.448 1053.98 30.448C1050.57 30.448 1047.86 31.152 1045.85 32.56C1043.85 33.968 1042.85 35.8453 1042.85 38.192C1042.85 39.6 1043.25 40.7093 1044.06 41.52C1044.87 42.3307 1045.85 42.928 1047.01 43.312C1048.2 43.696 1049.86 44.1227 1052 44.592C1054.3 45.104 1056.11 45.5947 1057.44 46.064C1058.8 46.5333 1059.95 47.28 1060.89 48.304C1061.83 49.328 1062.3 50.7147 1062.3 52.464C1062.3 55.4933 1061.04 57.8827 1058.53 59.632C1056.05 61.3387 1052.68 62.192 1048.41 62.192ZM1076.56 28.784H1078.67L1072.08 62H1069.96L1076.56 28.784ZM1079.63 20.08C1079.07 20.08 1078.6 19.888 1078.22 19.504C1077.88 19.12 1077.71 18.672 1077.71 18.16C1077.71 17.5627 1077.92 17.0507 1078.35 16.624C1078.77 16.1547 1079.29 15.92 1079.88 15.92C1080.44 15.92 1080.91 16.112 1081.29 16.496C1081.68 16.88 1081.87 17.328 1081.87 17.84C1081.87 18.4373 1081.63 18.9707 1081.16 19.44C1080.74 19.8667 1080.22 20.08 1079.63 20.08ZM1107.91 28.528C1111.71 28.528 1114.61 29.4667 1116.61 31.344C1118.62 33.1787 1119.62 35.7173 1119.62 38.96C1119.62 40.0693 1119.49 41.264 1119.24 42.544L1115.33 62H1113.22L1117.12 42.544C1117.34 41.5627 1117.44 40.4747 1117.44 39.28C1117.44 36.464 1116.59 34.3093 1114.88 32.816C1113.22 31.28 1110.75 30.512 1107.46 30.512C1103.41 30.512 1100.04 31.6427 1097.35 33.904C1094.66 36.1653 1092.89 39.4293 1092.04 43.696L1088.39 62H1086.28L1092.87 28.784H1094.98L1093.57 35.952C1095.15 33.4347 1097.16 31.5787 1099.59 30.384C1102.06 29.1467 1104.84 28.528 1107.91 28.528ZM1142.85 62.192C1138.41 62.192 1134.89 60.976 1132.29 58.544C1129.73 56.0693 1128.45 52.7413 1128.45 48.56C1128.45 44.7627 1129.26 41.3493 1130.88 38.32C1132.5 35.2907 1134.74 32.9013 1137.6 31.152C1140.46 29.4027 1143.7 28.528 1147.33 28.528C1151.72 28.528 1155.22 29.7653 1157.82 32.24C1160.42 34.7147 1161.73 38.0427 1161.73 42.224C1161.73 46.0213 1160.91 49.4347 1159.29 52.464C1157.67 55.4933 1155.43 57.8827 1152.57 59.632C1149.71 61.3387 1146.47 62.192 1142.85 62.192ZM1143.1 60.272C1146.26 60.272 1149.07 59.504 1151.55 57.968C1154.07 56.432 1156.03 54.2987 1157.44 51.568C1158.89 48.7947 1159.61 45.7013 1159.61 42.288C1159.61 38.5333 1158.5 35.632 1156.29 33.584C1154.11 31.536 1151.06 30.512 1147.13 30.512C1143.98 30.512 1141.14 31.3013 1138.62 32.88C1136.1 34.416 1134.12 36.5493 1132.67 39.28C1131.26 42.0107 1130.56 45.0827 1130.56 48.496C1130.56 52.2507 1131.65 55.152 1133.82 57.2C1136.04 59.248 1139.13 60.272 1143.1 60.272Z" fill="black"/>
<path d="M972.704 177.192C968.437 177.192 964.789 176.445 961.76 174.952C958.731 173.459 956.427 171.347 954.848 168.616C953.312 165.885 952.544 162.707 952.544 159.08C952.544 154.259 953.632 149.779 955.808 145.64C957.984 141.501 961.12 138.195 965.216 135.72C969.312 133.245 974.069 132.008 979.488 132.008C982.816 132.008 985.781 132.499 988.384 133.48C990.987 134.461 993.035 135.848 994.528 137.64L993.632 138.472C990.517 134.973 985.76 133.224 979.36 133.224C974.283 133.224 969.803 134.397 965.92 136.744C962.08 139.048 959.093 142.184 956.96 146.152C954.869 150.077 953.824 154.387 953.824 159.08C953.824 164.243 955.445 168.36 958.688 171.432C961.973 174.461 966.688 175.976 972.832 175.976C979.317 175.976 984.523 174.141 988.448 170.472L989.216 171.496C987.339 173.245 984.949 174.632 982.048 175.656C979.147 176.68 976.032 177.192 972.704 177.192ZM1030.79 143.912L1024.19 177H1022.92L1024.64 168.36C1023.06 171.133 1020.91 173.309 1018.18 174.888C1015.49 176.424 1012.46 177.192 1009.09 177.192C1004.78 177.192 1001.35 175.997 998.787 173.608C996.27 171.176 995.011 167.891 995.011 163.752C995.011 159.955 995.8 156.541 997.379 153.512C999 150.483 1001.22 148.093 1004.04 146.344C1006.89 144.595 1010.12 143.72 1013.7 143.72C1017.62 143.72 1020.76 144.68 1023.11 146.6C1025.45 148.477 1026.86 151.165 1027.33 154.664L1029.51 143.912H1030.79ZM1009.28 175.976C1012.53 175.976 1015.45 175.165 1018.05 173.544C1020.7 171.923 1022.77 169.683 1024.26 166.824C1025.75 163.965 1026.5 160.765 1026.5 157.224C1026.5 153.341 1025.35 150.333 1023.04 148.2C1020.78 146.024 1017.6 144.936 1013.51 144.936C1010.26 144.936 1007.32 145.747 1004.68 147.368C1002.07 148.989 1000.02 151.229 998.531 154.088C997.038 156.947 996.291 160.147 996.291 163.688C996.291 167.571 997.422 170.6 999.683 172.776C1001.99 174.909 1005.19 175.976 1009.28 175.976ZM1046.91 177.192C1044.43 177.192 1042.07 176.787 1039.8 175.976C1037.54 175.123 1035.82 174.056 1034.62 172.776L1035.58 171.752C1036.82 173.075 1038.46 174.12 1040.51 174.888C1042.56 175.613 1044.71 175.976 1046.97 175.976C1050.77 175.976 1053.76 175.251 1055.93 173.8C1058.11 172.349 1059.2 170.344 1059.2 167.784C1059.2 166.333 1058.77 165.181 1057.92 164.328C1057.11 163.475 1056.08 162.856 1054.84 162.472C1053.65 162.045 1051.99 161.597 1049.85 161.128C1047.63 160.659 1045.82 160.189 1044.41 159.72C1043.05 159.251 1041.9 158.504 1040.96 157.48C1040.02 156.456 1039.55 155.048 1039.55 153.256C1039.55 150.397 1040.74 148.093 1043.13 146.344C1045.52 144.595 1048.68 143.72 1052.6 143.72C1054.65 143.72 1056.64 144.04 1058.56 144.68C1060.48 145.277 1061.99 146.088 1063.1 147.112L1062.2 148.072C1061.05 147.048 1059.62 146.28 1057.92 145.768C1056.21 145.213 1054.42 144.936 1052.54 144.936C1049 144.936 1046.16 145.683 1044.03 147.176C1041.9 148.669 1040.83 150.675 1040.83 153.192C1040.83 154.685 1041.26 155.859 1042.11 156.712C1042.96 157.565 1044.01 158.205 1045.24 158.632C1046.52 159.059 1048.19 159.485 1050.24 159.912C1052.5 160.381 1054.29 160.851 1055.61 161.32C1056.98 161.789 1058.13 162.536 1059.07 163.56C1060.01 164.584 1060.48 165.971 1060.48 167.72C1060.48 170.664 1059.26 172.989 1056.83 174.696C1054.4 176.36 1051.09 177.192 1046.91 177.192ZM1075.06 143.912H1076.34L1069.75 177H1068.47L1075.06 143.912ZM1077.75 134.76C1077.32 134.76 1076.96 134.611 1076.66 134.312C1076.36 134.013 1076.21 133.651 1076.21 133.224C1076.21 132.755 1076.38 132.349 1076.73 132.008C1077.11 131.624 1077.54 131.432 1078.01 131.432C1078.43 131.432 1078.79 131.581 1079.09 131.88C1079.39 132.179 1079.54 132.541 1079.54 132.968C1079.54 133.437 1079.35 133.864 1078.97 134.248C1078.62 134.589 1078.22 134.76 1077.75 134.76ZM1105.59 143.72C1109.39 143.72 1112.27 144.637 1114.23 146.472C1116.19 148.307 1117.17 150.803 1117.17 153.96C1117.17 155.069 1117.05 156.243 1116.79 157.48L1112.89 177H1111.61L1115.51 157.48C1115.77 156.243 1115.89 155.112 1115.89 154.088C1115.89 151.187 1115 148.947 1113.21 147.368C1111.46 145.747 1108.87 144.936 1105.46 144.936C1101.24 144.936 1097.72 146.109 1094.9 148.456C1092.13 150.803 1090.29 154.195 1089.4 158.632L1085.75 177H1084.47L1091.06 143.912H1092.34L1090.74 151.976C1093.86 146.472 1098.81 143.72 1105.59 143.72ZM1140.4 177.192C1136.09 177.192 1132.66 175.997 1130.1 173.608C1127.58 171.176 1126.32 167.891 1126.32 163.752C1126.32 159.955 1127.11 156.541 1128.69 153.512C1130.31 150.483 1132.53 148.093 1135.35 146.344C1138.21 144.595 1141.43 143.72 1145.01 143.72C1149.32 143.72 1152.73 144.936 1155.25 147.368C1157.81 149.757 1159.09 153.021 1159.09 157.16C1159.09 160.957 1158.28 164.392 1156.66 167.464C1155.08 170.493 1152.86 172.883 1150 174.632C1147.19 176.339 1143.99 177.192 1140.4 177.192ZM1140.6 175.976C1143.84 175.976 1146.76 175.165 1149.36 173.544C1152.01 171.923 1154.08 169.683 1155.57 166.824C1157.06 163.965 1157.81 160.765 1157.81 157.224C1157.81 153.341 1156.66 150.333 1154.36 148.2C1152.09 146.024 1148.92 144.936 1144.82 144.936C1141.58 144.936 1138.63 145.747 1135.99 147.368C1133.38 148.989 1131.34 151.229 1129.84 154.088C1128.35 156.947 1127.6 160.147 1127.6 163.688C1127.6 167.571 1128.73 170.6 1131 172.776C1133.3 174.909 1136.5 175.976 1140.6 175.976Z" fill="black"/>
<path d="M972.896 292.32C968.544 292.32 964.811 291.552 961.696 290.016C958.624 288.48 956.277 286.325 954.656 283.552C953.077 280.779 952.288 277.557 952.288 273.888C952.288 269.024 953.397 264.523 955.616 260.384C957.835 256.245 960.992 252.96 965.088 250.528C969.184 248.096 973.963 246.88 979.424 246.88C982.88 246.88 985.952 247.413 988.64 248.48C991.371 249.547 993.483 251.061 994.976 253.024L992.672 255.136C989.685 251.637 985.184 249.888 979.168 249.888C974.475 249.888 970.336 250.976 966.752 253.152C963.168 255.285 960.395 258.165 958.432 261.792C956.512 265.419 955.552 269.408 955.552 273.76C955.552 278.539 957.067 282.336 960.096 285.152C963.125 287.925 967.477 289.312 973.152 289.312C979.296 289.312 984.224 287.52 987.936 283.936L989.92 286.176C987.957 288.139 985.483 289.653 982.496 290.72C979.552 291.787 976.352 292.32 972.896 292.32ZM1032.06 258.592L1025.4 292H1022.33L1023.61 285.472C1021.99 287.605 1019.96 289.269 1017.53 290.464C1015.14 291.659 1012.47 292.256 1009.53 292.256C1005.18 292.256 1001.68 291.019 999.034 288.544C996.431 286.027 995.13 282.635 995.13 278.368C995.13 274.571 995.941 271.157 997.562 268.128C999.183 265.056 1001.42 262.667 1004.28 260.96C1007.18 259.211 1010.43 258.336 1014.01 258.336C1017.47 258.336 1020.32 259.083 1022.59 260.576C1024.85 262.069 1026.38 264.181 1027.19 266.912L1028.86 258.592H1032.06ZM1010.17 289.376C1013.16 289.376 1015.82 288.651 1018.17 287.2C1020.56 285.749 1022.44 283.744 1023.8 281.184C1025.17 278.581 1025.85 275.659 1025.85 272.416C1025.85 268.875 1024.8 266.123 1022.71 264.16C1020.67 262.197 1017.76 261.216 1014.01 261.216C1011.02 261.216 1008.34 261.963 1005.95 263.456C1003.6 264.907 1001.74 266.933 1000.38 269.536C999.013 272.096 998.33 274.976 998.33 278.176C998.33 281.717 999.354 284.469 1001.4 286.432C1003.49 288.395 1006.42 289.376 1010.17 289.376ZM1047.98 292.256C1045.38 292.256 1042.88 291.872 1040.49 291.104C1038.15 290.293 1036.31 289.269 1034.99 288.032L1036.72 285.536C1037.95 286.731 1039.6 287.691 1041.65 288.416C1043.74 289.099 1045.93 289.44 1048.24 289.44C1051.69 289.44 1054.36 288.843 1056.24 287.648C1058.16 286.411 1059.12 284.704 1059.12 282.528C1059.12 281.291 1058.73 280.309 1057.97 279.584C1057.2 278.859 1056.26 278.325 1055.15 277.984C1054.04 277.6 1052.5 277.195 1050.54 276.768C1048.24 276.299 1046.36 275.808 1044.91 275.296C1043.5 274.784 1042.31 273.995 1041.33 272.928C1040.34 271.819 1039.85 270.325 1039.85 268.448C1039.85 265.376 1041.11 262.923 1043.63 261.088C1046.19 259.253 1049.58 258.336 1053.81 258.336C1055.94 258.336 1058.01 258.635 1060.01 259.232C1062.02 259.787 1063.62 260.576 1064.81 261.6L1063.34 264.096C1062.1 263.115 1060.61 262.389 1058.86 261.92C1057.15 261.408 1055.38 261.152 1053.55 261.152C1050.31 261.152 1047.73 261.792 1045.81 263.072C1043.93 264.352 1042.99 266.037 1042.99 268.128C1042.99 269.408 1043.37 270.432 1044.14 271.2C1044.91 271.925 1045.87 272.48 1047.02 272.864C1048.22 273.248 1049.79 273.653 1051.76 274.08C1054.06 274.549 1055.9 275.04 1057.26 275.552C1058.67 276.021 1059.86 276.789 1060.85 277.856C1061.83 278.923 1062.32 280.373 1062.32 282.208C1062.32 285.323 1061.02 287.776 1058.41 289.568C1055.81 291.36 1052.33 292.256 1047.98 292.256ZM1076.05 258.592H1079.25L1072.59 292H1069.39L1076.05 258.592ZM1079.63 250.464C1078.95 250.464 1078.37 250.229 1077.9 249.76C1077.43 249.291 1077.2 248.736 1077.2 248.096C1077.2 247.328 1077.46 246.667 1077.97 246.112C1078.52 245.557 1079.21 245.28 1080.02 245.28C1080.7 245.28 1081.27 245.515 1081.74 245.984C1082.26 246.453 1082.51 247.008 1082.51 247.648C1082.51 248.459 1082.23 249.141 1081.68 249.696C1081.13 250.208 1080.44 250.464 1079.63 250.464ZM1108.42 258.336C1112.21 258.336 1115.14 259.296 1117.18 261.216C1119.23 263.093 1120.26 265.696 1120.26 269.024C1120.26 270.176 1120.13 271.392 1119.87 272.672L1116.03 292H1112.83L1116.67 272.672C1116.88 271.691 1116.99 270.624 1116.99 269.472C1116.99 266.827 1116.18 264.8 1114.56 263.392C1112.98 261.941 1110.66 261.216 1107.58 261.216C1103.74 261.216 1100.54 262.304 1097.98 264.48C1095.42 266.613 1093.74 269.728 1092.93 273.824L1089.28 292H1086.08L1092.74 258.592H1095.87L1094.59 264.928C1096.17 262.709 1098.13 261.067 1100.48 260C1102.87 258.891 1105.51 258.336 1108.42 258.336ZM1143.48 292.256C1138.95 292.256 1135.35 290.997 1132.66 288.48C1130.02 285.963 1128.69 282.592 1128.69 278.368C1128.69 274.571 1129.5 271.157 1131.12 268.128C1132.79 265.099 1135.07 262.709 1137.97 260.96C1140.87 259.211 1144.16 258.336 1147.83 258.336C1152.35 258.336 1155.94 259.595 1158.58 262.112C1161.27 264.587 1162.61 267.957 1162.61 272.224C1162.61 276.021 1161.78 279.456 1160.12 282.528C1158.5 285.557 1156.23 287.947 1153.33 289.696C1150.43 291.403 1147.15 292.256 1143.48 292.256ZM1143.73 289.376C1146.72 289.376 1149.39 288.651 1151.73 287.2C1154.12 285.749 1156 283.744 1157.36 281.184C1158.73 278.581 1159.41 275.659 1159.41 272.416C1159.41 268.875 1158.37 266.123 1156.28 264.16C1154.23 262.197 1151.33 261.216 1147.57 261.216C1144.59 261.216 1141.9 261.963 1139.51 263.456C1137.16 264.907 1135.31 266.933 1133.94 269.536C1132.58 272.096 1131.89 274.976 1131.89 278.176C1131.89 281.717 1132.92 284.469 1134.96 286.432C1137.06 288.395 1139.98 289.376 1143.73 289.376Z" fill="black"/>
<path d="M973.024 407.384C968.672 407.384 964.917 406.616 961.76 405.08C958.603 403.501 956.192 401.325 954.528 398.552C952.907 395.736 952.096 392.472 952.096 388.76C952.096 383.811 953.205 379.288 955.424 375.192C957.685 371.096 960.885 367.853 965.024 365.464C969.163 363.032 973.941 361.816 979.36 361.816C982.944 361.816 986.123 362.392 988.896 363.544C991.669 364.653 993.803 366.253 995.296 368.344L991.968 371.288C989.109 367.789 984.779 366.04 978.976 366.04C974.581 366.04 970.699 367.064 967.328 369.112C963.957 371.117 961.355 373.827 959.52 377.24C957.685 380.653 956.768 384.408 956.768 388.504C956.768 392.984 958.197 396.547 961.056 399.192C963.957 401.837 968.075 403.16 973.408 403.16C979.253 403.16 983.989 401.389 987.616 397.848L990.368 400.984C988.405 403.032 985.909 404.611 982.88 405.72C979.851 406.829 976.565 407.384 973.024 407.384ZM1032.95 373.336L1026.23 407H1021.88L1022.96 401.688C1021.34 403.48 1019.42 404.867 1017.2 405.848C1014.99 406.829 1012.53 407.32 1009.84 407.32C1006.99 407.32 1004.45 406.744 1002.23 405.592C1000.01 404.44 998.281 402.797 997.044 400.664C995.807 398.488 995.188 395.949 995.188 393.048C995.188 389.251 995.999 385.837 997.62 382.808C999.284 379.779 1001.57 377.411 1004.47 375.704C1007.37 373.955 1010.61 373.08 1014.2 373.08C1017.4 373.08 1020.08 373.72 1022.26 375C1024.44 376.237 1026.01 378.029 1027 380.376L1028.4 373.336H1032.95ZM1010.8 403.288C1013.58 403.288 1016.07 402.627 1018.29 401.304C1020.51 399.939 1022.24 398.061 1023.48 395.672C1024.76 393.24 1025.4 390.531 1025.4 387.544C1025.4 384.259 1024.41 381.699 1022.45 379.864C1020.53 377.987 1017.82 377.048 1014.32 377.048C1011.55 377.048 1009.05 377.731 1006.84 379.096C1004.62 380.461 1002.87 382.36 1001.59 384.792C1000.35 387.181 999.732 389.869 999.732 392.856C999.732 396.141 1000.69 398.701 1002.61 400.536C1004.57 402.371 1007.31 403.288 1010.8 403.288ZM1048.68 407.32C1045.99 407.32 1043.41 406.936 1040.93 406.168C1038.5 405.4 1036.62 404.419 1035.3 403.224L1037.48 399.64C1038.76 400.749 1040.44 401.645 1042.53 402.328C1044.62 403.011 1046.82 403.352 1049.12 403.352C1052.32 403.352 1054.78 402.84 1056.48 401.816C1058.23 400.749 1059.11 399.256 1059.11 397.336C1059.11 396.269 1058.74 395.416 1058.02 394.776C1057.34 394.136 1056.48 393.645 1055.46 393.304C1054.44 392.963 1052.94 392.579 1050.98 392.152C1048.63 391.64 1046.73 391.128 1045.28 390.616C1043.83 390.104 1042.6 389.293 1041.57 388.184C1040.55 387.075 1040.04 385.539 1040.04 383.576C1040.04 380.376 1041.36 377.837 1044 375.96C1046.65 374.04 1050.19 373.08 1054.63 373.08C1056.8 373.08 1058.92 373.379 1060.96 373.976C1063.05 374.531 1064.74 375.277 1066.02 376.216L1064.1 379.864C1062.82 378.925 1061.3 378.221 1059.56 377.752C1057.85 377.24 1056.08 376.984 1054.24 376.984C1051.17 376.984 1048.78 377.539 1047.08 378.648C1045.37 379.757 1044.52 381.251 1044.52 383.128C1044.52 384.237 1044.88 385.133 1045.6 385.816C1046.33 386.499 1047.22 387.011 1048.29 387.352C1049.4 387.693 1050.89 388.056 1052.77 388.44C1055.08 388.952 1056.93 389.464 1058.34 389.976C1059.79 390.445 1061.03 391.235 1062.05 392.344C1063.08 393.453 1063.59 394.947 1063.59 396.824C1063.59 400.109 1062.22 402.691 1059.49 404.568C1056.8 406.403 1053.2 407.32 1048.68 407.32ZM1076.85 373.336H1081.4L1074.74 407H1070.2L1076.85 373.336ZM1081.08 365.976C1080.18 365.976 1079.43 365.677 1078.84 365.08C1078.28 364.483 1078 363.779 1078 362.968C1078 361.987 1078.32 361.176 1078.96 360.536C1079.65 359.853 1080.5 359.512 1081.52 359.512C1082.42 359.512 1083.17 359.811 1083.76 360.408C1084.36 360.963 1084.66 361.624 1084.66 362.392C1084.66 363.416 1084.32 364.269 1083.64 364.952C1082.95 365.635 1082.1 365.976 1081.08 365.976ZM1110.49 373.08C1114.28 373.08 1117.23 374.061 1119.32 376.024C1121.45 377.944 1122.52 380.611 1122.52 384.024C1122.52 385.219 1122.39 386.499 1122.14 387.864L1118.3 407H1113.75L1117.59 387.8C1117.8 386.605 1117.91 385.581 1117.91 384.728C1117.91 382.296 1117.16 380.44 1115.67 379.16C1114.22 377.837 1112.07 377.176 1109.21 377.176C1105.58 377.176 1102.59 378.179 1100.25 380.184C1097.9 382.147 1096.32 385.069 1095.51 388.952L1091.93 407H1087.38L1094.04 373.336H1098.39L1097.3 378.712C1100.5 374.957 1104.9 373.08 1110.49 373.08ZM1145.8 407.32C1142.72 407.32 1140.04 406.744 1137.73 405.592C1135.43 404.397 1133.64 402.733 1132.36 400.6C1131.12 398.424 1130.5 395.907 1130.5 393.048C1130.5 389.251 1131.33 385.837 1133 382.808C1134.66 379.779 1136.96 377.411 1139.91 375.704C1142.9 373.955 1146.24 373.08 1149.96 373.08C1154.65 373.08 1158.36 374.36 1161.09 376.92C1163.87 379.48 1165.25 382.936 1165.25 387.288C1165.25 391.085 1164.42 394.52 1162.76 397.592C1161.09 400.621 1158.77 403.011 1155.78 404.76C1152.84 406.467 1149.51 407.32 1145.8 407.32ZM1146.12 403.288C1148.89 403.288 1151.39 402.627 1153.6 401.304C1155.82 399.939 1157.55 398.061 1158.79 395.672C1160.07 393.24 1160.71 390.531 1160.71 387.544C1160.71 384.259 1159.73 381.699 1157.76 379.864C1155.84 377.987 1153.14 377.048 1149.64 377.048C1146.86 377.048 1144.37 377.731 1142.15 379.096C1139.93 380.461 1138.18 382.36 1136.9 384.792C1135.66 387.181 1135.04 389.869 1135.04 392.856C1135.04 396.141 1136 398.701 1137.92 400.536C1139.89 402.371 1142.62 403.288 1146.12 403.288Z" fill="black"/>
<path d="M971.216 522.512C966.779 522.512 962.96 521.723 959.76 520.144C956.56 518.565 954.107 516.368 952.4 513.552C950.693 510.693 949.84 507.387 949.84 503.632C949.84 498.64 950.971 494.096 953.232 490C955.493 485.904 958.693 482.661 962.832 480.272C967.013 477.883 971.835 476.688 977.296 476.688C981.008 476.688 984.293 477.307 987.152 478.544C990.011 479.739 992.208 481.445 993.744 483.664L989.136 487.632C986.448 484.133 982.352 482.384 976.848 482.384C972.709 482.384 969.083 483.323 965.968 485.2C962.853 487.077 960.443 489.616 958.736 492.816C957.072 495.973 956.24 499.451 956.24 503.248C956.24 507.387 957.563 510.693 960.208 513.168C962.896 515.6 966.715 516.816 971.664 516.816C977.168 516.816 981.691 515.045 985.232 511.504L988.944 515.728C986.896 517.947 984.336 519.632 981.264 520.784C978.235 521.936 974.885 522.512 971.216 522.512ZM1031.96 488.08L1025.24 522H1019.36L1020.19 517.84C1018.65 519.291 1016.86 520.421 1014.81 521.232C1012.81 522 1010.61 522.384 1008.22 522.384C1005.32 522.384 1002.74 521.808 1000.48 520.656C998.215 519.461 996.445 517.755 995.165 515.536C993.885 513.317 993.245 510.715 993.245 507.728C993.245 503.888 994.077 500.453 995.741 497.424C997.405 494.395 999.687 492.027 1002.59 490.32C1005.53 488.613 1008.82 487.76 1012.44 487.76C1015.35 487.76 1017.82 488.272 1019.87 489.296C1021.96 490.32 1023.56 491.835 1024.67 493.84L1025.82 488.08H1031.96ZM1009.56 517.008C1012.08 517.008 1014.34 516.411 1016.35 515.216C1018.4 513.979 1019.98 512.272 1021.08 510.096C1022.24 507.92 1022.81 505.445 1022.81 502.672C1022.81 499.643 1021.94 497.296 1020.19 495.632C1018.44 493.968 1015.94 493.136 1012.7 493.136C1010.18 493.136 1007.92 493.755 1005.92 494.992C1003.91 496.187 1002.33 497.872 1001.18 500.048C1000.03 502.224 999.453 504.699 999.453 507.472C999.453 510.459 1000.33 512.805 1002.08 514.512C1003.87 516.176 1006.36 517.008 1009.56 517.008ZM1047.62 522.384C1044.81 522.384 1042.12 522.021 1039.56 521.296C1037.04 520.571 1035.08 519.632 1033.67 518.48L1036.42 513.616C1037.74 514.683 1039.45 515.536 1041.54 516.176C1043.67 516.773 1045.89 517.072 1048.2 517.072C1051.1 517.072 1053.3 516.645 1054.79 515.792C1056.33 514.896 1057.09 513.659 1057.09 512.08C1057.09 510.8 1056.47 509.883 1055.24 509.328C1054.04 508.773 1052.17 508.219 1049.61 507.664C1047.22 507.152 1045.25 506.64 1043.72 506.128C1042.22 505.573 1040.94 504.72 1039.88 503.568C1038.81 502.373 1038.28 500.773 1038.28 498.768C1038.28 496.549 1038.9 494.608 1040.13 492.944C1041.41 491.28 1043.21 490 1045.51 489.104C1047.86 488.208 1050.57 487.76 1053.64 487.76C1055.9 487.76 1058.1 488.037 1060.23 488.592C1062.36 489.147 1064.11 489.893 1065.48 490.832L1063.05 495.696C1061.72 494.8 1060.19 494.139 1058.44 493.712C1056.69 493.243 1054.9 493.008 1053.06 493.008C1050.29 493.008 1048.15 493.477 1046.66 494.416C1045.17 495.312 1044.42 496.528 1044.42 498.064C1044.42 499.429 1045.04 500.411 1046.28 501.008C1047.51 501.563 1049.43 502.117 1052.04 502.672C1054.38 503.184 1056.3 503.696 1057.8 504.208C1059.29 504.72 1060.55 505.552 1061.57 506.704C1062.64 507.856 1063.17 509.413 1063.17 511.376C1063.17 514.832 1061.74 517.541 1058.89 519.504C1056.07 521.424 1052.31 522.384 1047.62 522.384ZM1075.72 488.08H1081.86L1075.14 522H1069L1075.72 488.08ZM1080.58 481.552C1079.47 481.552 1078.55 481.189 1077.83 480.464C1077.1 479.739 1076.74 478.864 1076.74 477.84C1076.74 476.645 1077.15 475.643 1077.96 474.832C1078.81 473.979 1079.88 473.552 1081.16 473.552C1082.27 473.552 1083.18 473.915 1083.91 474.64C1084.68 475.323 1085.06 476.155 1085.06 477.136C1085.06 478.459 1084.63 479.525 1083.78 480.336C1082.97 481.147 1081.9 481.552 1080.58 481.552ZM1110.94 487.76C1114.82 487.76 1117.83 488.741 1119.96 490.704C1122.14 492.667 1123.22 495.44 1123.22 499.024C1123.22 500.261 1123.1 501.584 1122.84 502.992L1119.06 522H1112.92L1116.69 502.992C1116.91 501.84 1117.02 500.901 1117.02 500.176C1117.02 497.957 1116.35 496.251 1115.03 495.056C1113.71 493.861 1111.75 493.264 1109.14 493.264C1105.82 493.264 1103.06 494.181 1100.89 496.016C1098.75 497.808 1097.32 500.496 1096.6 504.08L1093.02 522H1086.87L1093.59 488.08H1099.48L1098.65 492.432C1101.72 489.317 1105.82 487.76 1110.94 487.76ZM1146.49 522.384C1143.29 522.384 1140.5 521.787 1138.11 520.592C1135.72 519.355 1133.86 517.627 1132.54 515.408C1131.22 513.189 1130.56 510.629 1130.56 507.728C1130.56 503.931 1131.41 500.517 1133.12 497.488C1134.82 494.459 1137.19 492.091 1140.22 490.384C1143.25 488.635 1146.66 487.76 1150.46 487.76C1153.66 487.76 1156.46 488.357 1158.85 489.552C1161.23 490.747 1163.07 492.453 1164.35 494.672C1165.67 496.848 1166.33 499.408 1166.33 502.352C1166.33 506.149 1165.48 509.584 1163.77 512.656C1162.07 515.685 1159.7 518.075 1156.67 519.824C1153.68 521.531 1150.29 522.384 1146.49 522.384ZM1146.88 517.008C1149.39 517.008 1151.66 516.411 1153.66 515.216C1155.71 513.979 1157.29 512.272 1158.4 510.096C1159.55 507.92 1160.12 505.445 1160.12 502.672C1160.12 499.643 1159.25 497.296 1157.5 495.632C1155.75 493.968 1153.26 493.136 1150.01 493.136C1147.5 493.136 1145.23 493.755 1143.23 494.992C1141.22 496.187 1139.65 497.872 1138.49 500.048C1137.34 502.224 1136.77 504.699 1136.77 507.472C1136.77 510.459 1137.64 512.805 1139.39 514.512C1141.18 516.176 1143.68 517.008 1146.88 517.008Z" fill="black"/>
<path d="M969.344 637.64C964.864 637.64 960.981 636.851 957.696 635.272C954.453 633.651 951.957 631.389 950.208 628.488C948.459 625.587 947.584 622.259 947.584 618.504C947.584 613.469 948.736 608.904 951.04 604.808C953.344 600.712 956.587 597.491 960.768 595.144C964.949 592.755 969.749 591.56 975.168 591.56C979.051 591.56 982.464 592.2 985.408 593.48C988.395 594.76 990.656 596.616 992.192 599.048L986.176 604.104C983.659 600.605 979.797 598.856 974.592 598.856C970.88 598.856 967.616 599.709 964.8 601.416C961.984 603.123 959.808 605.448 958.272 608.392C956.736 611.293 955.968 614.493 955.968 617.992C955.968 621.789 957.184 624.797 959.616 627.016C962.048 629.235 965.504 630.344 969.984 630.344C975.147 630.344 979.392 628.616 982.72 625.16L987.584 630.408C985.451 632.84 982.827 634.653 979.712 635.848C976.597 637.043 973.141 637.64 969.344 637.64ZM1031.3 602.824L1024.51 637H1016.9L1017.6 633.48C1014.62 636.125 1010.9 637.448 1006.47 637.448C1003.65 637.448 1001.09 636.851 998.786 635.656C996.525 634.461 994.733 632.733 993.41 630.472C992.087 628.168 991.426 625.48 991.426 622.408C991.426 618.611 992.258 615.197 993.922 612.168C995.629 609.096 997.933 606.707 1000.83 605C1003.78 603.293 1007.06 602.44 1010.69 602.44C1016.15 602.44 1020.03 604.253 1022.34 607.88L1023.3 602.824H1031.3ZM1008.51 630.6C1010.78 630.6 1012.78 630.067 1014.53 629C1016.32 627.891 1017.73 626.376 1018.75 624.456C1019.78 622.493 1020.29 620.275 1020.29 617.8C1020.29 615.112 1019.5 613.021 1017.92 611.528C1016.34 609.992 1014.12 609.224 1011.27 609.224C1009 609.224 1006.98 609.779 1005.19 610.888C1003.44 611.955 1002.05 613.469 1001.03 615.432C1000 617.352 999.49 619.549 999.49 622.024C999.49 624.712 1000.28 626.824 1001.86 628.36C1003.44 629.853 1005.66 630.6 1008.51 630.6ZM1046.63 637.448C1043.73 637.448 1040.95 637.107 1038.31 636.424C1035.71 635.699 1033.68 634.803 1032.23 633.736L1035.56 627.592C1036.97 628.616 1038.74 629.427 1040.87 630.024C1043 630.621 1045.2 630.92 1047.46 630.92C1050.02 630.92 1051.94 630.579 1053.22 629.896C1054.54 629.171 1055.21 628.147 1055.21 626.824C1055.21 625.8 1054.65 625.053 1053.54 624.584C1052.47 624.115 1050.77 623.624 1048.42 623.112C1045.99 622.643 1043.98 622.152 1042.41 621.64C1040.87 621.085 1039.53 620.211 1038.37 619.016C1037.26 617.779 1036.71 616.093 1036.71 613.96C1036.71 610.419 1038.18 607.624 1041.12 605.576C1044.11 603.485 1048.06 602.44 1052.97 602.44C1055.31 602.44 1057.59 602.717 1059.81 603.272C1062.03 603.784 1063.85 604.488 1065.25 605.384L1062.31 611.528C1060.9 610.632 1059.3 609.971 1057.51 609.544C1055.76 609.117 1053.99 608.904 1052.2 608.904C1049.68 608.904 1047.76 609.288 1046.44 610.056C1045.16 610.824 1044.52 611.827 1044.52 613.064C1044.52 614.173 1045.07 614.984 1046.18 615.496C1047.33 615.965 1049.1 616.456 1051.49 616.968C1053.88 617.437 1055.85 617.949 1057.38 618.504C1058.92 619.016 1060.24 619.869 1061.35 621.064C1062.46 622.259 1063.01 623.88 1063.01 625.928C1063.01 629.597 1061.52 632.435 1058.53 634.44C1055.55 636.445 1051.58 637.448 1046.63 637.448ZM1074.7 602.824H1082.7L1075.92 637H1067.92L1074.7 602.824ZM1080.53 597.192C1079.12 597.192 1077.97 596.765 1077.07 595.912C1076.17 595.016 1075.73 593.949 1075.73 592.712C1075.73 591.261 1076.22 590.045 1077.2 589.064C1078.22 588.083 1079.55 587.592 1081.17 587.592C1082.57 587.592 1083.73 588.019 1084.62 588.872C1085.52 589.683 1085.97 590.685 1085.97 591.88C1085.97 593.459 1085.45 594.739 1084.43 595.72C1083.45 596.701 1082.15 597.192 1080.53 597.192ZM1111.83 602.44C1115.67 602.44 1118.7 603.443 1120.91 605.448C1123.18 607.453 1124.31 610.291 1124.31 613.96C1124.31 614.984 1124.16 616.349 1123.86 618.056L1120.08 637H1112.08L1115.79 618.248C1115.97 617.395 1116.05 616.52 1116.05 615.624C1116.05 611.485 1113.77 609.416 1109.2 609.416C1106.26 609.416 1103.83 610.248 1101.91 611.912C1099.99 613.533 1098.69 615.987 1098 619.272L1094.42 637H1086.42L1093.2 602.824H1100.82L1100.05 606.6C1103.12 603.827 1107.05 602.44 1111.83 602.44ZM1147.44 637.448C1144.11 637.448 1141.19 636.829 1138.67 635.592C1136.2 634.312 1134.28 632.541 1132.91 630.28C1131.55 628.019 1130.86 625.395 1130.86 622.408C1130.86 618.611 1131.72 615.197 1133.42 612.168C1135.17 609.139 1137.58 606.771 1140.66 605.064C1143.77 603.315 1147.27 602.44 1151.15 602.44C1154.48 602.44 1157.4 603.059 1159.92 604.296C1162.44 605.533 1164.38 607.283 1165.74 609.544C1167.11 611.805 1167.79 614.429 1167.79 617.416C1167.79 621.213 1166.92 624.627 1165.17 627.656C1163.42 630.685 1160.99 633.075 1157.87 634.824C1154.8 636.573 1151.32 637.448 1147.44 637.448ZM1147.95 630.6C1150.21 630.6 1152.22 630.067 1153.97 629C1155.76 627.891 1157.17 626.376 1158.19 624.456C1159.22 622.493 1159.73 620.275 1159.73 617.8C1159.73 615.112 1158.94 613.021 1157.36 611.528C1155.78 609.992 1153.56 609.224 1150.7 609.224C1148.44 609.224 1146.42 609.779 1144.62 610.888C1142.87 611.955 1141.49 613.469 1140.46 615.432C1139.44 617.352 1138.93 619.549 1138.93 622.024C1138.93 624.712 1139.72 626.824 1141.3 628.36C1142.87 629.853 1145.09 630.6 1147.95 630.6Z" fill="black"/>
<path d="M969.408 752.768C964.928 752.768 961.003 751.957 957.632 750.336C954.304 748.715 951.744 746.432 949.952 743.488C948.16 740.544 947.264 737.152 947.264 733.312C947.264 728.235 948.416 723.669 950.72 719.616C953.067 715.52 956.352 712.299 960.576 709.952C964.8 707.605 969.643 706.432 975.104 706.432C979.115 706.432 982.656 707.115 985.728 708.48C988.8 709.845 991.125 711.808 992.704 714.368L985.216 720.512C982.827 717.013 979.221 715.264 974.4 715.264C971.115 715.264 968.213 716.032 965.696 717.568C963.179 719.104 961.216 721.195 959.808 723.84C958.443 726.485 957.76 729.429 957.76 732.672C957.76 736.128 958.848 738.88 961.024 740.928C963.243 742.933 966.336 743.936 970.304 743.936C975.04 743.936 979.008 742.208 982.208 738.752L988.352 745.024C983.915 750.187 977.6 752.768 969.408 752.768ZM1032.76 717.568L1025.91 752H1016.44L1017.08 748.608C1014.22 751.211 1010.7 752.512 1006.52 752.512C1003.83 752.512 1001.36 751.893 999.094 750.656C996.833 749.419 995.019 747.648 993.654 745.344C992.331 742.997 991.67 740.245 991.67 737.088C991.67 733.291 992.502 729.877 994.166 726.848C995.873 723.776 998.177 721.387 1001.08 719.68C1003.98 717.931 1007.18 717.056 1010.68 717.056C1015.97 717.056 1019.7 718.784 1021.88 722.24L1022.77 717.568H1032.76ZM1009.59 744.256C1011.55 744.256 1013.3 743.787 1014.84 742.848C1016.37 741.867 1017.57 740.523 1018.42 738.816C1019.28 737.109 1019.7 735.147 1019.7 732.928C1019.7 730.581 1019 728.725 1017.59 727.36C1016.22 725.995 1014.3 725.312 1011.83 725.312C1009.87 725.312 1008.12 725.803 1006.58 726.784C1005.05 727.723 1003.85 729.045 1003 730.752C1002.14 732.459 1001.72 734.421 1001.72 736.64C1001.72 738.987 1002.4 740.843 1003.77 742.208C1005.17 743.573 1007.12 744.256 1009.59 744.256ZM1047.7 752.512C1044.71 752.512 1041.87 752.192 1039.19 751.552C1036.54 750.869 1034.47 749.995 1032.98 748.928L1036.82 741.696C1038.31 742.677 1040.12 743.467 1042.26 744.064C1044.43 744.661 1046.61 744.96 1048.79 744.96C1051.05 744.96 1052.73 744.683 1053.84 744.128C1054.95 743.531 1055.51 742.699 1055.51 741.632C1055.51 740.779 1055.01 740.16 1054.03 739.776C1053.05 739.392 1051.47 738.987 1049.3 738.56C1046.82 738.091 1044.77 737.579 1043.15 737.024C1041.57 736.469 1040.19 735.573 1038.99 734.336C1037.84 733.056 1037.27 731.328 1037.27 729.152C1037.27 725.355 1038.84 722.389 1042 720.256C1045.2 718.123 1049.38 717.056 1054.55 717.056C1056.93 717.056 1059.26 717.312 1061.52 717.824C1063.78 718.336 1065.7 719.04 1067.28 719.936L1063.7 727.232C1060.88 725.483 1057.49 724.608 1053.52 724.608C1051.35 724.608 1049.68 724.928 1048.53 725.568C1047.42 726.208 1046.87 727.019 1046.87 728C1046.87 728.896 1047.36 729.557 1048.34 729.984C1049.32 730.368 1050.96 730.795 1053.27 731.264C1055.7 731.733 1057.68 732.245 1059.22 732.8C1060.8 733.312 1062.16 734.187 1063.31 735.424C1064.47 736.661 1065.04 738.347 1065.04 740.48C1065.04 744.32 1063.42 747.285 1060.18 749.376C1056.98 751.467 1052.82 752.512 1047.7 752.512ZM1076 717.568H1085.92L1079.07 752H1069.15L1076 717.568ZM1082.66 712.768C1080.95 712.768 1079.54 712.277 1078.43 711.296C1077.37 710.272 1076.83 709.035 1076.83 707.584C1076.83 705.877 1077.43 704.469 1078.63 703.36C1079.86 702.208 1081.46 701.632 1083.43 701.632C1085.17 701.632 1086.58 702.123 1087.65 703.104C1088.76 704.043 1089.31 705.216 1089.31 706.624C1089.31 708.459 1088.69 709.952 1087.46 711.104C1086.22 712.213 1084.62 712.768 1082.66 712.768ZM1115.22 717.056C1119.06 717.056 1122.11 718.08 1124.37 720.128C1126.63 722.133 1127.77 725.013 1127.77 728.768C1127.77 730.176 1127.62 731.563 1127.32 732.928L1123.48 752H1113.49L1117.21 733.568C1117.38 732.843 1117.46 732.053 1117.46 731.2C1117.46 729.408 1116.97 728.043 1115.99 727.104C1115.01 726.165 1113.54 725.696 1111.57 725.696C1109.01 725.696 1106.88 726.443 1105.17 727.936C1103.51 729.387 1102.38 731.584 1101.78 734.528L1098.33 752H1088.34L1095.19 717.568H1104.66L1103.89 721.28C1106.97 718.464 1110.74 717.056 1115.22 717.056ZM1150.95 752.512C1147.49 752.512 1144.44 751.872 1141.8 750.592C1139.2 749.312 1137.17 747.52 1135.72 745.216C1134.31 742.869 1133.61 740.16 1133.61 737.088C1133.61 733.291 1134.5 729.877 1136.29 726.848C1138.09 723.819 1140.56 721.429 1143.72 719.68C1146.88 717.931 1150.44 717.056 1154.41 717.056C1157.9 717.056 1160.96 717.696 1163.56 718.976C1166.16 720.256 1168.17 722.069 1169.57 724.416C1171.02 726.72 1171.75 729.408 1171.75 732.48C1171.75 736.277 1170.85 739.691 1169.06 742.72C1167.31 745.749 1164.84 748.139 1161.64 749.888C1158.48 751.637 1154.92 752.512 1150.95 752.512ZM1151.59 744.256C1153.51 744.256 1155.24 743.787 1156.77 742.848C1158.31 741.867 1159.5 740.523 1160.36 738.816C1161.21 737.109 1161.64 735.147 1161.64 732.928C1161.64 730.581 1160.96 728.725 1159.59 727.36C1158.22 725.995 1156.3 725.312 1153.83 725.312C1151.87 725.312 1150.12 725.803 1148.58 726.784C1147.05 727.723 1145.85 729.045 1145 730.752C1144.14 732.459 1143.72 734.421 1143.72 736.64C1143.72 738.987 1144.4 740.843 1145.77 742.208C1147.17 743.573 1149.12 744.256 1151.59 744.256Z" fill="black"/>
<path d="M969.472 867.896C964.949 867.896 960.981 867.085 957.568 865.464C954.155 863.8 951.531 861.475 949.696 858.488C947.861 855.501 946.944 852.067 946.944 848.184C946.944 843.064 948.117 838.456 950.464 834.36C952.853 830.264 956.181 827.064 960.448 824.76C964.715 822.456 969.579 821.304 975.04 821.304C979.179 821.304 982.848 822.051 986.048 823.544C989.248 824.995 991.637 827.064 993.216 829.752L984.064 837.048C981.888 833.549 978.603 831.8 974.208 831.8C971.349 831.8 968.832 832.483 966.656 833.848C964.48 835.171 962.773 837.027 961.536 839.416C960.341 841.763 959.744 844.408 959.744 847.352C959.744 850.381 960.725 852.813 962.688 854.648C964.651 856.483 967.317 857.4 970.688 857.4C974.955 857.4 978.603 855.672 981.632 852.216L989.12 859.576C986.688 862.52 983.851 864.653 980.608 865.976C977.365 867.256 973.653 867.896 969.472 867.896ZM1034.22 832.312L1027.31 867H1015.79L1016.49 863.736C1013.72 866.296 1010.37 867.576 1006.44 867.576C1003.88 867.576 1001.47 866.957 999.212 865.72C996.993 864.44 995.201 862.605 993.836 860.216C992.47 857.827 991.788 855.011 991.788 851.768C991.788 848.013 992.62 844.621 994.284 841.592C995.99 838.52 998.273 836.109 1001.13 834.36C1004.03 832.611 1007.19 831.736 1010.6 831.736C1015.64 831.736 1019.18 833.315 1021.23 836.472L1022.06 832.312H1034.22ZM1010.67 857.784C1013.1 857.784 1015.08 856.888 1016.62 855.096C1018.16 853.304 1018.92 850.979 1018.92 848.12C1018.92 846.072 1018.33 844.451 1017.13 843.256C1015.98 842.061 1014.38 841.464 1012.33 841.464C1009.9 841.464 1007.92 842.36 1006.38 844.152C1004.84 845.944 1004.08 848.291 1004.08 851.192C1004.08 853.24 1004.65 854.861 1005.8 856.056C1007 857.208 1008.62 857.784 1010.67 857.784ZM1048.7 867.576C1045.72 867.576 1042.84 867.256 1040.06 866.616C1037.33 865.976 1035.2 865.165 1033.66 864.184L1038.08 855.672C1039.66 856.653 1041.54 857.443 1043.71 858.04C1045.89 858.595 1048.02 858.872 1050.11 858.872C1053.82 858.872 1055.68 858.04 1055.68 856.376C1055.68 855.693 1055.23 855.203 1054.34 854.904C1053.48 854.563 1052.1 854.243 1050.18 853.944C1047.62 853.475 1045.5 852.984 1043.84 852.472C1042.22 851.917 1040.79 851 1039.55 849.72C1038.31 848.44 1037.7 846.648 1037.7 844.344C1037.7 840.333 1039.4 837.24 1042.82 835.064C1046.27 832.845 1050.73 831.736 1056.19 831.736C1058.67 831.736 1061.06 831.992 1063.36 832.504C1065.66 832.973 1067.67 833.635 1069.38 834.488L1065.09 843C1062.19 841.251 1058.75 840.376 1054.78 840.376C1052.91 840.376 1051.5 840.632 1050.56 841.144C1049.66 841.613 1049.22 842.232 1049.22 843C1049.22 843.683 1049.64 844.195 1050.5 844.536C1051.39 844.835 1052.84 845.176 1054.85 845.56C1057.32 845.987 1059.37 846.477 1060.99 847.032C1062.66 847.587 1064.08 848.504 1065.28 849.784C1066.52 851.064 1067.14 852.813 1067.14 855.032C1067.14 859.043 1065.41 862.136 1061.95 864.312C1058.5 866.488 1054.08 867.576 1048.7 867.576ZM1077.05 832.312H1089.14L1082.23 867H1070.14L1077.05 832.312ZM1084.79 828.472C1082.7 828.472 1081.02 827.896 1079.74 826.744C1078.46 825.592 1077.82 824.163 1077.82 822.456C1077.82 820.451 1078.52 818.808 1079.93 817.528C1081.38 816.205 1083.28 815.544 1085.62 815.544C1087.76 815.544 1089.46 816.099 1090.74 817.208C1092.02 818.275 1092.66 819.661 1092.66 821.368C1092.66 823.459 1091.94 825.165 1090.49 826.488C1089.04 827.811 1087.14 828.472 1084.79 828.472ZM1118.68 831.736C1122.48 831.736 1125.51 832.76 1127.77 834.808C1130.07 836.813 1131.23 839.715 1131.23 843.512C1131.23 844.92 1131.08 846.349 1130.78 847.8L1126.94 867H1114.78L1118.36 848.952C1118.53 848.227 1118.62 847.459 1118.62 846.648C1118.62 843.576 1117.02 842.04 1113.82 842.04C1111.68 842.04 1109.93 842.701 1108.57 844.024C1107.2 845.304 1106.24 847.245 1105.69 849.848L1102.23 867H1090.07L1096.99 832.312H1108.51L1107.8 835.896C1109.29 834.488 1110.98 833.443 1112.86 832.76C1114.73 832.077 1116.68 831.736 1118.68 831.736ZM1154.4 867.576C1150.73 867.576 1147.53 866.936 1144.8 865.656C1142.07 864.333 1139.96 862.477 1138.46 860.088C1136.97 857.699 1136.22 854.925 1136.22 851.768C1136.22 847.971 1137.14 844.557 1138.98 841.528C1140.81 838.499 1143.35 836.109 1146.59 834.36C1149.83 832.611 1153.48 831.736 1157.54 831.736C1161.2 831.736 1164.4 832.397 1167.14 833.72C1169.87 835 1171.98 836.835 1173.47 839.224C1174.96 841.571 1175.71 844.323 1175.71 847.48C1175.71 851.277 1174.79 854.712 1172.96 857.784C1171.12 860.813 1168.59 863.203 1165.34 864.952C1162.14 866.701 1158.5 867.576 1154.4 867.576ZM1155.1 857.784C1157.54 857.784 1159.52 856.888 1161.06 855.096C1162.59 853.304 1163.36 850.979 1163.36 848.12C1163.36 846.072 1162.78 844.451 1161.63 843.256C1160.48 842.061 1158.88 841.464 1156.83 841.464C1154.4 841.464 1152.42 842.36 1150.88 844.152C1149.34 845.944 1148.58 848.291 1148.58 851.192C1148.58 853.24 1149.15 854.861 1150.3 856.056C1151.46 857.208 1153.06 857.784 1155.1 857.784Z" fill="black"/>
<path d="M971.6 983.024C967.035 983.024 963.003 982.192 959.504 980.528C956.048 978.821 953.36 976.453 951.44 973.424C949.563 970.395 948.624 966.917 948.624 962.992C948.624 957.787 949.819 953.157 952.208 949.104C954.64 945.051 957.989 941.893 962.256 939.632C966.565 937.328 971.451 936.176 976.912 936.176C981.221 936.176 985.04 936.965 988.368 938.544C991.696 940.08 994.171 942.277 995.792 945.136L984.912 953.648C982.907 950.149 979.92 948.4 975.952 948.4C973.605 948.4 971.515 948.976 969.68 950.128C967.845 951.28 966.416 952.901 965.392 954.992C964.368 957.04 963.856 959.387 963.856 962.032C963.856 964.677 964.688 966.811 966.352 968.432C968.059 970.011 970.299 970.8 973.072 970.8C976.869 970.8 980.197 969.072 983.056 965.616L991.952 974.128C989.349 977.328 986.384 979.611 983.056 980.976C979.771 982.341 975.952 983.024 971.6 983.024ZM1037.81 946.992L1030.83 982H1017.2L1017.84 978.8C1015.19 981.36 1012.04 982.64 1008.37 982.64C1005.98 982.64 1003.67 982 1001.46 980.72C999.237 979.44 997.424 977.584 996.016 975.152C994.65 972.677 993.968 969.776 993.968 966.448C993.968 962.693 994.8 959.28 996.464 956.208C998.17 953.136 1000.45 950.725 1003.31 948.976C1006.17 947.227 1009.26 946.352 1012.59 946.352C1017.28 946.352 1020.61 947.803 1022.58 950.704L1023.34 946.992H1037.81ZM1008.62 965.744C1008.62 967.408 1009.07 968.752 1009.97 969.776C1010.91 970.757 1012.19 971.248 1013.81 971.248C1015.68 971.248 1017.2 970.523 1018.35 969.072C1019.55 967.621 1020.14 965.68 1020.14 963.248C1020.14 961.584 1019.67 960.261 1018.74 959.28C1017.84 958.256 1016.58 957.744 1014.96 957.744C1013.08 957.744 1011.55 958.469 1010.35 959.92C1009.2 961.371 1008.62 963.312 1008.62 965.744ZM1051.77 982.64C1048.74 982.64 1045.82 982.341 1043 981.744C1040.19 981.147 1037.99 980.379 1036.41 979.44L1041.4 969.584C1043.07 970.608 1044.99 971.397 1047.16 971.952C1049.38 972.507 1051.52 972.784 1053.56 972.784C1056.42 972.784 1057.85 972.229 1057.85 971.12C1057.85 970.651 1057.47 970.309 1056.7 970.096C1055.97 969.84 1054.8 969.605 1053.18 969.392C1050.66 969.008 1048.53 968.56 1046.78 968.048C1045.03 967.493 1043.49 966.555 1042.17 965.232C1040.85 963.867 1040.19 961.989 1040.19 959.6C1040.19 955.291 1042.02 952.005 1045.69 949.744C1049.36 947.483 1054.1 946.352 1059.9 946.352C1062.46 946.352 1064.91 946.587 1067.26 947.056C1069.65 947.483 1071.76 948.123 1073.6 948.976L1068.6 958.832C1065.57 957.083 1062.1 956.208 1058.17 956.208C1056.64 956.208 1055.51 956.379 1054.78 956.72C1054.1 957.061 1053.76 957.467 1053.76 957.936C1053.76 958.405 1054.12 958.768 1054.84 959.024C1055.57 959.237 1056.81 959.493 1058.56 959.792C1061.03 960.176 1063.12 960.645 1064.83 961.2C1066.58 961.712 1068.09 962.651 1069.37 964.016C1070.69 965.339 1071.36 967.173 1071.36 969.52C1071.36 972.336 1070.48 974.747 1068.73 976.752C1067.03 978.715 1064.68 980.187 1061.69 981.168C1058.75 982.149 1055.44 982.64 1051.77 982.64ZM1080.34 946.992H1094.74L1087.77 982H1073.37L1080.34 946.992ZM1089.11 944.176C1086.64 944.176 1084.65 943.536 1083.16 942.256C1081.67 940.933 1080.92 939.291 1080.92 937.328C1080.92 935.067 1081.77 933.189 1083.48 931.696C1085.19 930.203 1087.4 929.456 1090.14 929.456C1092.61 929.456 1094.59 930.075 1096.09 931.312C1097.58 932.507 1098.33 934.085 1098.33 936.048C1098.33 938.48 1097.47 940.443 1095.77 941.936C1094.1 943.429 1091.88 944.176 1089.11 944.176ZM1124.58 946.352C1128.38 946.352 1131.41 947.376 1133.67 949.424C1135.97 951.472 1137.12 954.416 1137.12 958.256C1137.12 959.707 1136.97 961.179 1136.68 962.672L1132.84 982H1118.37L1121.89 964.4C1122.06 963.376 1122.15 962.672 1122.15 962.288C1122.15 959.771 1120.93 958.512 1118.5 958.512C1115.09 958.512 1112.93 960.731 1112.04 965.168L1108.64 982H1094.18L1101.16 946.992H1114.79L1114.08 950.512C1115.58 949.104 1117.22 948.059 1119.01 947.376C1120.85 946.693 1122.7 946.352 1124.58 946.352ZM1160.29 982.64C1156.45 982.64 1153.1 981.979 1150.24 980.656C1147.38 979.291 1145.16 977.392 1143.58 974.96C1142.05 972.528 1141.28 969.691 1141.28 966.448C1141.28 962.651 1142.22 959.237 1144.09 956.208C1145.97 953.136 1148.55 950.725 1151.84 948.976C1155.17 947.227 1158.92 946.352 1163.1 946.352C1166.94 946.352 1170.29 947.035 1173.15 948.4C1176.01 949.723 1178.21 951.6 1179.74 954.032C1181.32 956.464 1182.11 959.301 1182.11 962.544C1182.11 966.341 1181.17 969.776 1179.29 972.848C1177.42 975.877 1174.81 978.267 1171.49 980.016C1168.2 981.765 1164.47 982.64 1160.29 982.64ZM1161.12 971.248C1163 971.248 1164.51 970.523 1165.66 969.072C1166.86 967.621 1167.45 965.68 1167.45 963.248C1167.45 961.584 1166.99 960.261 1166.05 959.28C1165.15 958.256 1163.89 957.744 1162.27 957.744C1160.39 957.744 1158.86 958.469 1157.66 959.92C1156.51 961.371 1155.93 963.312 1155.93 965.744C1155.93 967.408 1156.38 968.752 1157.28 969.776C1158.22 970.757 1159.5 971.248 1161.12 971.248Z" fill="black"/>
<path d="M540.2 362V502H525.8V374.8H492.8V362H540.2ZM653.866 428.6C662.666 431.533 669.399 435.933 674.066 441.8C678.866 447.667 681.266 454.733 681.266 463C681.266 471.133 679.066 478.267 674.666 484.4C670.266 490.4 663.932 495.067 655.666 498.4C647.532 501.6 637.932 503.2 626.866 503.2C610.066 503.2 596.866 499.6 587.266 492.4C577.666 485.2 572.866 475.4 572.866 463C572.866 454.6 575.132 447.533 579.666 441.8C584.332 435.933 591.066 431.533 599.866 428.6C592.666 425.8 587.199 421.8 583.466 416.6C579.732 411.267 577.866 405 577.866 397.8C577.866 386.467 582.266 377.467 591.066 370.8C599.999 364.133 611.932 360.8 626.866 360.8C636.732 360.8 645.332 362.333 652.666 365.4C660.132 368.333 665.932 372.6 670.066 378.2C674.199 383.8 676.266 390.333 676.266 397.8C676.266 405 674.332 411.267 670.466 416.6C666.599 421.8 661.066 425.8 653.866 428.6ZM592.266 398.2C592.266 405.933 595.332 412.067 601.466 416.6C607.599 421.133 616.066 423.4 626.866 423.4C637.666 423.4 646.132 421.133 652.266 416.6C658.532 412.067 661.666 406 661.666 398.4C661.666 390.533 658.466 384.333 652.066 379.8C645.799 375.267 637.399 373 626.866 373C616.199 373 607.732 375.267 601.466 379.8C595.332 384.333 592.266 390.467 592.266 398.2ZM626.866 491C639.266 491 648.932 488.467 655.866 483.4C662.932 478.333 666.466 471.467 666.466 462.8C666.466 454.133 662.932 447.333 655.866 442.4C648.932 437.333 639.266 434.8 626.866 434.8C614.599 434.8 604.932 437.333 597.866 442.4C590.932 447.333 587.466 454.133 587.466 462.8C587.466 471.6 590.932 478.533 597.866 483.6C604.799 488.533 614.466 491 626.866 491Z" fill="#0B0A0A"/>
<path d="M855 409.2C855 416.6 853.9 422.1 851.7 425.7C849.5 429.3 845.9 432 840.9 433.8C845.9 435.6 849.5 438.3 851.7 441.9C853.9 445.5 855 451 855 458.4V532.5C855 548.5 862.6 556.5 877.8 556.5H885.9V574.2H874.8C847.4 574.2 833.7 560.9 833.7 534.3V458.1C833.7 447.9 829.2 442.8 820.2 442.8H810V424.8H820.2C829.2 424.8 833.7 419.7 833.7 409.5V333.3C833.7 306.7 847.4 293.4 874.8 293.4H885.9V311.1H877.8C862.6 311.1 855 319.1 855 335.1V409.2Z" fill="black"/>
<path d="M335 409.2C335 416.6 336.1 422.1 338.3 425.7C340.5 429.3 344.1 432 349.1 433.8C344.1 435.6 340.5 438.3 338.3 441.9C336.1 445.5 335 451 335 458.4V532.5C335 548.5 327.4 556.5 312.2 556.5H304.1V574.2H315.2C342.6 574.2 356.3 560.9 356.3 534.3V458.1C356.3 447.9 360.8 442.8 369.8 442.8H380V424.8H369.8C360.8 424.8 356.3 419.7 356.3 409.5V333.3C356.3 306.7 342.6 293.4 315.2 293.4H304.1V311.1H312.2C327.4 311.1 335 319.1 335 335.1V409.2Z" fill="black"/>
</svg>
