<svg width="1265" height="701" viewBox="0 0 1265 701" fill="none" xmlns="http://www.w3.org/2000/svg">
<path d="M196.129 479.91L180.925 466.671L186.913 485.049L184.606 487.686L165.952 484.439L180.799 497.43L175.995 502.921L150.708 480.796L154.944 475.955L178.939 480.24L171.38 457.171L175.584 452.366L200.933 474.419L196.129 479.91ZM214.216 459.823C212.425 461.87 210.391 463.343 208.115 464.243C205.837 465.098 203.538 465.319 201.22 464.907C198.902 464.495 196.78 463.446 194.854 461.76C192.927 460.074 191.605 458.11 190.889 455.867C190.172 453.625 190.099 451.328 190.668 448.977C191.234 446.58 192.412 444.359 194.203 442.312C195.994 440.265 198.029 438.814 200.308 437.959C202.563 437.083 204.849 436.851 207.167 437.263C209.485 437.676 211.607 438.725 213.534 440.411C215.46 442.096 216.782 444.061 217.498 446.303C218.215 448.546 218.301 450.853 217.756 453.225C217.187 455.577 216.007 457.776 214.216 459.823ZM209.592 455.777C210.856 454.332 211.407 452.73 211.245 450.972C211.079 449.169 210.177 447.551 208.54 446.118C206.902 444.685 205.191 444.017 203.406 444.113C201.618 444.165 200.091 444.913 198.827 446.358C197.563 447.803 197.013 449.427 197.179 451.23C197.32 453.012 198.21 454.619 199.848 456.052C201.485 457.485 203.209 458.164 205.018 458.089C206.803 457.992 208.328 457.222 209.592 455.777ZM217.159 416.076C219.266 413.668 221.685 412.361 224.416 412.156C227.167 411.928 229.964 413.057 232.805 415.543L243.931 425.278L239.001 430.914L228.741 421.937C227.2 420.588 225.761 419.925 224.425 419.946C223.064 419.946 221.825 420.584 220.708 421.86C219.465 423.281 218.92 424.803 219.074 426.425C219.203 428.027 220.135 429.586 221.869 431.103L231.478 439.511L226.547 445.146L207.112 428.141L211.822 422.759L214.098 424.75C213.932 423.287 214.117 421.812 214.653 420.325C215.165 418.817 216 417.4 217.159 416.076ZM258.43 406.813C258.355 407.725 258.067 408.686 257.567 409.694C257.065 410.658 256.423 411.585 255.644 412.476C253.621 414.788 251.461 416.066 249.164 416.309C246.888 416.529 244.607 415.638 242.319 413.636L234.335 406.651L231.712 409.649L227.377 405.856L230 402.858L225.268 398.717L230.199 393.082L234.931 397.223L239.167 392.382L243.502 396.175L239.266 401.016L247.177 407.938C247.996 408.654 248.813 409.008 249.629 408.999C250.442 408.945 251.185 408.532 251.86 407.762C252.639 406.871 253.062 405.901 253.129 404.854L258.43 406.813ZM268.147 398.186C266.735 399.8 265.162 401.209 263.428 402.413C261.67 403.596 260.09 404.381 258.687 404.77L256.285 399.351C257.597 398.969 258.972 398.322 260.407 397.41C261.819 396.476 263.041 395.42 264.074 394.24C266.16 391.856 266.613 390.147 265.433 389.115C264.879 388.63 264.197 388.607 263.388 389.047C262.578 389.486 261.499 390.307 260.15 391.508C258.518 392.887 257.093 393.957 255.874 394.718C254.655 395.48 253.311 395.898 251.842 395.974C250.394 396.025 248.935 395.408 247.466 394.122C246.238 393.048 245.46 391.75 245.132 390.23C244.8 388.665 244.96 386.976 245.61 385.164C246.282 383.327 247.428 381.482 249.051 379.628C250.252 378.255 251.599 377.031 253.092 375.957C254.582 374.837 255.982 374.063 257.292 373.636L259.658 379.023C257.198 379.89 255.084 381.335 253.314 383.358C252.26 384.562 251.638 385.612 251.449 386.509C251.259 387.406 251.429 388.087 251.959 388.55C252.561 389.077 253.267 389.121 254.077 388.681C254.887 388.242 256.021 387.406 257.481 386.175C259.137 384.818 260.564 383.77 261.762 383.032C262.936 382.274 264.247 381.869 265.695 381.818C267.143 381.767 268.577 382.363 269.998 383.606C271.202 384.659 271.958 385.958 272.265 387.503C272.572 389.047 272.379 390.749 271.687 392.61C270.992 394.425 269.812 396.284 268.147 398.186ZM285.941 357.804C286.013 357.868 286.487 358.346 287.363 359.24L274.499 373.943C275.935 374.731 277.434 374.938 278.996 374.561C280.559 374.185 281.983 373.262 283.268 371.793C284.153 370.782 284.788 369.764 285.173 368.741C285.556 367.672 285.717 366.516 285.657 365.273L291.531 365.119C292.025 368.783 290.734 372.373 287.657 375.889C285.739 378.08 283.622 379.65 281.304 380.598C278.962 381.526 276.632 381.783 274.314 381.371C271.996 380.958 269.874 379.909 267.947 378.223C266.045 376.559 264.724 374.617 263.987 372.398C263.246 370.135 263.14 367.851 263.666 365.549C264.19 363.2 265.305 361.051 267.012 359.1C268.677 357.198 270.593 355.834 272.76 355.009C274.928 354.185 277.161 354.013 279.461 354.495C281.758 354.931 283.918 356.034 285.941 357.804ZM271.306 362.794C270.19 364.07 269.613 365.458 269.577 366.957C269.541 368.456 270.065 369.85 271.148 371.139L279.525 361.566C278.128 360.684 276.689 360.36 275.208 360.595C273.703 360.809 272.402 361.542 271.306 362.794ZM286.709 342.349C286.359 340.852 286.439 339.328 286.948 337.774C287.478 336.197 288.396 334.662 289.702 333.169L294.904 337.72C294.308 338.304 293.915 338.704 293.726 338.921C292.314 340.535 291.665 342.199 291.78 343.915C291.87 345.61 292.818 347.248 294.624 348.828L303.8 356.857L298.869 362.492L279.434 345.487L284.144 340.104L286.709 342.349ZM300.198 326.932C299.848 325.436 299.928 323.912 300.437 322.358C300.967 320.781 301.885 319.246 303.191 317.752L308.393 322.304C307.797 322.888 307.404 323.288 307.215 323.505C305.803 325.119 305.154 326.783 305.268 328.499C305.359 330.194 306.307 331.832 308.113 333.412L317.289 341.44L312.358 347.076L292.923 330.071L297.633 324.688L300.198 326.932ZM312.89 306.669C315.524 303.658 318.269 301.979 321.126 301.629C323.958 301.259 326.82 302.338 329.71 304.867L340.8 314.57L336.185 319.845L333.765 317.727C334.644 320.367 333.819 323.132 331.29 326.022C329.984 327.515 328.593 328.594 327.118 329.259C325.664 329.901 324.239 330.12 322.842 329.919C321.445 329.717 320.181 329.121 319.049 328.131C317.243 326.55 316.412 324.633 316.556 322.378C316.722 320.099 318.048 317.539 320.534 314.697L324.454 310.218C323.225 309.143 321.96 308.694 320.656 308.872C319.329 309.029 318.012 309.853 316.705 311.347C315.799 312.382 315.072 313.553 314.524 314.86C313.973 316.121 313.669 317.343 313.612 318.526L307.905 317.104C308.085 315.391 308.613 313.621 309.489 311.794C310.386 309.942 311.52 308.234 312.89 306.669ZM328.73 321.294C329.573 320.331 330.104 319.286 330.324 318.16C330.519 317.013 330.321 315.904 329.728 314.832L327.741 313.094L324.359 316.959C322.336 319.271 322.083 321.091 323.6 322.418C324.323 323.051 325.143 323.279 326.061 323.105C326.976 322.885 327.866 322.281 328.73 321.294ZM355.291 296.113C355.216 297.026 354.928 297.986 354.429 298.994C353.926 299.958 353.285 300.885 352.505 301.776C350.482 304.088 348.322 305.366 346.025 305.61C343.75 305.829 341.468 304.938 339.18 302.936L331.197 295.951L328.573 298.949L324.238 295.156L326.862 292.158L322.129 288.017L327.06 282.382L331.793 286.523L336.028 281.682L340.363 285.475L336.127 290.316L344.039 297.238C344.857 297.954 345.675 298.308 346.49 298.299C347.303 298.245 348.047 297.832 348.721 297.062C349.501 296.171 349.924 295.201 349.99 294.154L355.291 296.113Z" fill="black"/>
<path d="M467.469 270.065C464.82 270.259 462.225 270.097 459.684 269.578C457.173 269.024 455.125 268.228 453.541 267.189L455.745 261.156C457.258 262.103 459.028 262.824 461.053 263.317C463.079 263.809 465.081 263.983 467.059 263.838C469.262 263.676 470.866 263.237 471.872 262.522C472.876 261.774 473.338 260.858 473.258 259.773C473.2 258.975 472.833 258.344 472.157 257.881C471.511 257.383 470.681 257.01 469.668 256.764C468.687 256.515 467.353 256.26 465.666 255.999C463.068 255.58 460.933 255.127 459.261 254.64C457.589 254.154 456.113 253.283 454.834 252.03C453.586 250.774 452.881 249.029 452.716 246.795C452.574 244.848 452.971 243.054 453.909 241.413C454.845 239.74 456.333 238.363 458.371 237.283C460.441 236.2 463.008 235.547 466.072 235.322C468.21 235.165 470.319 235.266 472.399 235.627C474.479 235.988 476.32 236.59 477.923 237.435L475.962 243.499C472.737 241.971 469.577 241.321 466.481 241.548C464.311 241.708 462.725 242.177 461.724 242.957C460.754 243.734 460.311 244.697 460.396 245.846C460.48 246.995 461.134 247.813 462.357 248.301C463.609 248.754 465.484 249.162 467.981 249.524C470.579 249.943 472.714 250.396 474.386 250.882C476.058 251.369 477.517 252.225 478.762 253.449C480.039 254.671 480.759 256.398 480.923 258.632C481.064 260.547 480.65 262.342 479.683 264.018C478.744 265.659 477.24 267.021 475.17 268.103C473.099 269.186 470.532 269.84 467.469 270.065ZM494.885 241.195C498.874 240.902 502.008 241.634 504.287 243.392C506.564 245.118 507.843 247.896 508.124 251.725L509.203 266.422L502.214 266.935L501.979 263.728C500.75 266.224 498.221 267.613 494.391 267.895C492.413 268.04 490.665 267.832 489.148 267.269C487.662 266.704 486.493 265.86 485.641 264.735C484.788 263.611 484.306 262.298 484.196 260.798C484.02 258.405 484.776 256.456 486.462 254.953C488.18 253.447 490.923 252.556 494.688 252.279L500.624 251.843C500.505 250.215 499.919 249.007 498.866 248.218C497.811 247.397 496.294 247.059 494.316 247.205C492.943 247.305 491.603 247.628 490.296 248.174C489.018 248.685 487.943 249.341 487.071 250.143L484.007 245.122C485.339 244.03 486.958 243.141 488.865 242.455C490.804 241.767 492.811 241.347 494.885 241.195ZM495.889 262.731C497.166 262.637 498.278 262.267 499.225 261.62C500.17 260.941 500.807 260.012 501.138 258.832L500.944 256.199L495.822 256.575C492.758 256.801 491.3 257.918 491.448 259.929C491.518 260.886 491.942 261.625 492.718 262.146C493.524 262.632 494.581 262.827 495.889 262.731ZM529.696 238.638C532.888 238.404 535.527 239.172 537.614 240.944C539.734 242.714 540.932 245.481 541.208 249.247L542.291 263.991L534.823 264.54L533.825 250.945C533.675 248.902 533.117 247.419 532.15 246.495C531.182 245.54 529.852 245.124 528.16 245.248C526.277 245.386 524.821 246.087 523.79 247.35C522.758 248.581 522.326 250.345 522.495 252.643L523.43 265.377L515.962 265.925L514.07 240.171L521.203 239.647L521.425 242.663C522.334 241.505 523.502 240.585 524.928 239.903C526.352 239.188 527.941 238.767 529.696 238.638ZM557.753 263.241C555.615 263.398 553.506 263.296 551.426 262.935C549.344 262.543 547.667 261.992 546.395 261.284L548.491 255.739C549.694 256.389 551.126 256.893 552.789 257.252C554.45 257.58 556.062 257.686 557.626 257.571C560.785 257.339 562.307 256.441 562.193 254.877C562.139 254.143 561.669 253.648 560.784 253.392C559.899 253.136 558.555 252.962 556.751 252.87C554.621 252.706 552.855 252.467 551.452 252.153C550.049 251.838 548.799 251.192 547.7 250.214C546.633 249.234 546.028 247.77 545.886 245.823C545.766 244.196 546.123 242.726 546.957 241.413C547.821 240.066 549.121 238.976 550.856 238.143C552.624 237.307 554.736 236.799 557.194 236.618C559.013 236.485 560.831 236.56 562.649 236.843C564.496 237.093 566.036 237.525 567.268 238.14L565.169 243.637C562.809 242.527 560.289 242.07 557.608 242.267C556.013 242.384 554.832 242.696 554.067 243.201C553.302 243.706 552.946 244.31 552.997 245.012C553.056 245.81 553.528 246.337 554.413 246.593C555.298 246.849 556.692 247.051 558.596 247.2C560.729 247.396 562.48 247.653 563.851 247.969C565.219 248.254 566.437 248.886 567.504 249.867C568.57 250.847 569.173 252.279 569.311 254.162C569.428 255.757 569.054 257.213 568.188 258.528C567.322 259.843 565.989 260.919 564.19 261.757C562.42 262.561 560.274 263.056 557.753 263.241Z" fill="black"/>
<path d="M732.907 258.879C730.393 258.022 728.068 256.858 725.933 255.386C723.838 253.894 722.265 252.361 721.213 250.785L725.601 246.094C726.623 247.558 727.97 248.913 729.642 250.159C731.313 251.405 733.088 252.348 734.965 252.988C737.055 253.701 738.703 253.924 739.909 253.659C741.126 253.364 741.909 252.702 742.26 251.672C742.519 250.914 742.427 250.19 741.987 249.499C741.587 248.788 740.969 248.121 740.133 247.498C739.328 246.885 738.2 246.129 736.749 245.229C734.522 243.827 732.734 242.575 731.385 241.473C730.037 240.371 729.019 238.993 728.332 237.339C727.675 235.695 727.708 233.813 728.431 231.693C729.061 229.845 730.129 228.35 731.634 227.206C733.15 226.033 735.057 225.347 737.356 225.151C739.684 224.964 742.303 225.366 745.21 226.358C747.24 227.049 749.141 227.968 750.914 229.113C752.687 230.259 754.146 231.534 755.29 232.938L751.113 237.752C748.743 235.084 746.089 233.25 743.151 232.248C741.092 231.546 739.449 231.358 738.222 231.684C737.026 232.019 736.242 232.733 735.87 233.823C735.498 234.913 735.78 235.922 736.714 236.849C737.69 237.757 739.256 238.865 741.413 240.175C743.64 241.577 745.427 242.829 746.776 243.931C748.124 245.033 749.132 246.39 749.799 248.004C750.496 249.628 750.484 251.5 749.761 253.62C749.141 255.437 748.059 256.928 746.513 258.091C745.007 259.234 743.09 259.899 740.761 260.086C738.432 260.273 735.814 259.87 732.907 258.879ZM779.194 260.51C779.163 260.6 778.9 261.221 778.407 262.371L759.916 256.068C759.733 257.696 760.112 259.16 761.055 260.462C761.997 261.764 763.392 262.73 765.24 263.359C766.512 263.793 767.694 263.993 768.788 263.96C769.921 263.907 771.052 263.617 772.178 263.088L774.555 268.462C771.355 270.313 767.544 270.484 763.122 268.977C760.366 268.037 758.108 266.676 756.349 264.893C754.601 263.08 753.476 261.023 752.976 258.722C752.476 256.422 752.638 254.06 753.464 251.637C754.28 249.244 755.573 247.285 757.345 245.759C759.156 244.212 761.227 243.245 763.557 242.856C765.928 242.447 768.34 242.661 770.794 243.497C773.186 244.313 775.177 245.566 776.764 247.257C778.351 248.947 779.36 250.948 779.789 253.258C780.26 255.548 780.061 257.965 779.194 260.51ZM769.011 248.874C767.406 248.326 765.903 248.321 764.503 248.858C763.103 249.395 762.014 250.41 761.234 251.902L773.274 256.007C773.558 254.379 773.31 252.925 772.529 251.645C771.759 250.334 770.586 249.411 769.011 248.874ZM793.779 255.339C795.03 254.447 796.47 253.941 798.101 253.82C799.761 253.71 801.53 253.975 803.408 254.615L801.178 261.158C800.411 260.829 799.891 260.618 799.618 260.525C797.589 259.833 795.803 259.866 794.259 260.625C792.726 261.353 791.573 262.853 790.798 265.125L786.864 276.665L779.777 274.249L788.109 249.806L794.879 252.114L793.779 255.339ZM807.498 256.415L814.586 258.832L806.253 283.274L799.166 280.858L807.498 256.415ZM812.204 254.216C810.901 253.772 809.97 253.032 809.41 251.996C808.851 250.96 808.762 249.882 809.144 248.761C809.526 247.64 810.255 246.841 811.331 246.362C812.407 245.884 813.596 245.867 814.898 246.311C816.201 246.755 817.137 247.48 817.707 248.485C818.277 249.491 818.376 250.539 818.004 251.629C817.602 252.811 816.857 253.656 815.771 254.164C814.695 254.643 813.506 254.66 812.204 254.216ZM828.747 264.268L835.016 266.405L833.158 271.857L827.07 269.781L820.782 288.227L813.694 285.811L819.982 267.365L816.211 266.08L818.07 260.628L821.841 261.913L822.213 260.823C823.162 258.037 824.734 256.104 826.927 255.026C829.151 253.959 831.762 253.936 834.76 254.958C835.82 255.319 836.778 255.781 837.635 256.344C838.532 256.886 839.226 257.478 839.717 258.119L836.105 262.618C835.483 261.763 834.627 261.15 833.537 260.779C831.386 260.045 829.908 260.86 829.103 263.223L828.747 264.268Z" fill="black"/>
<line x1="2.02092" y1="375.323" x2="205.826" y2="143.212" stroke="black" stroke-width="4"/>
<path d="M371.505 699.333L2.81656 375.227" stroke="black" stroke-width="4"/>
<path d="M354.521 271.202L206.869 145.069" stroke="black" stroke-width="4"/>
<line x1="329.616" y1="55.1259" x2="380.407" y2="474.077" stroke="black" stroke-width="4"/>
<line x1="328.852" y1="54.64" x2="635.949" y2="24.7971" stroke="black" stroke-width="4"/>
<path d="M637.5 22.5L654.555 193.805" stroke="black" stroke-width="4"/>
<line x1="724.377" y1="3.69637" x2="577.185" y2="399.984" stroke="black" stroke-width="4"/>
<line x1="723.193" y1="2.53813" x2="1011.92" y2="108.687" stroke="black" stroke-width="4"/>
<line x1="864.988" y1="500.497" x2="1009.35" y2="109.87" stroke="black" stroke-width="4"/>
<path d="M939.753 302.339L1078.5 196.5" stroke="black" stroke-width="4"/>
<line x1="1076.5" y1="197.09" x2="1262.58" y2="437.777" stroke="black" stroke-width="4"/>
<line x1="894.011" y1="697.704" x2="1259.84" y2="437.37" stroke="black" stroke-width="4"/>
<line x1="575.97" y1="397.399" x2="867.524" y2="499.302" stroke="black" stroke-width="4"/>
<line x1="378.435" y1="473.72" x2="651.576" y2="453.699" stroke="black" stroke-width="4"/>
<line x1="649.745" y1="454.666" x2="646.915" y2="423.529" stroke="black" stroke-width="4"/>
<path d="M894.592 699.741L728.164 464.392" stroke="black" stroke-width="4"/>
<path d="M727.729 465.249L740.194 455.9" stroke="black" stroke-width="4"/>
<line x1="370.027" y1="697.987" x2="573.832" y2="474.367" stroke="black" stroke-width="4"/>
<path d="M575.31 475.715L559.742 461.562" stroke="black" stroke-width="4"/>
<path d="M957.333 349.362L951.097 340.603L956.259 336.928L973.24 360.781L968.079 364.455L961.843 355.696L939.633 371.509L935.123 365.174L957.333 349.362ZM982.995 387.889L953.902 394.283C950.791 395.045 948.23 395.061 946.219 394.333C944.226 393.63 942.515 392.275 941.086 390.268C940.307 389.173 939.706 387.971 939.284 386.661C938.862 385.351 938.709 384.143 938.826 383.039L944.754 382.177C944.67 382.944 944.725 383.71 944.917 384.477C945.128 385.269 945.447 385.965 945.874 386.565C946.468 387.399 947.159 387.928 947.947 388.153C948.709 388.396 949.708 388.392 950.944 388.141L951.195 388.08L965.902 363.88L970.384 370.176L960.315 386.241L978.819 382.024L982.995 387.889ZM993.932 402.59C995.324 404.545 996.13 406.643 996.35 408.883C996.614 411.13 996.25 413.294 995.257 415.376C994.291 417.439 992.726 419.241 990.562 420.781C988.398 422.321 986.17 423.22 983.879 423.477C981.613 423.715 979.448 423.351 977.385 422.384C975.367 421.425 973.662 419.968 972.27 418.013C970.358 415.328 969.702 412.613 970.301 409.869L960.487 416.856L956.144 410.756L984.767 390.378L988.915 396.205L986.491 397.931C989.392 398.143 991.872 399.697 993.932 402.59ZM976.523 413.394C977.637 414.958 979.067 415.864 980.815 416.112C982.608 416.368 984.391 415.865 986.163 414.603C987.936 413.341 988.982 411.83 989.301 410.071C989.664 408.32 989.289 406.662 988.176 405.098C987.062 403.534 985.609 402.624 983.816 402.368C982.068 402.12 980.308 402.627 978.536 403.889C976.763 405.151 975.695 406.658 975.331 408.409C975.012 410.168 975.41 411.83 976.523 413.394ZM1008.06 445.527C1007.98 445.583 1007.41 445.934 1006.34 446.579L995.006 430.664C993.906 431.879 993.359 433.29 993.364 434.897C993.369 436.504 993.938 438.103 995.07 439.693C995.849 440.788 996.692 441.641 997.599 442.252C998.55 442.871 999.638 443.295 1000.86 443.524L999.653 449.275C995.974 448.908 992.78 446.822 990.071 443.016C988.382 440.644 987.344 438.221 986.957 435.746C986.596 433.253 986.885 430.927 987.822 428.767C988.759 426.607 990.27 424.785 992.355 423.3C994.415 421.834 996.609 420.999 998.938 420.794C1001.31 420.597 1003.56 421.021 1005.68 422.066C1007.84 423.118 1009.67 424.7 1011.18 426.811C1012.64 428.871 1013.53 431.05 1013.83 433.35C1014.13 435.649 1013.78 437.862 1012.78 439.988C1011.82 442.122 1010.25 443.968 1008.06 445.527ZM1006.59 430.136C1005.61 428.754 1004.39 427.872 1002.94 427.491C1001.49 427.109 1000.01 427.296 998.508 428.053L1005.89 438.415C1007.07 437.26 1007.71 435.935 1007.83 434.44C1007.97 432.926 1007.56 431.491 1006.59 430.136ZM1025.84 449.065L1029.68 454.461L1024.99 457.801L1021.26 452.562L1005.38 463.864L1001.04 457.764L1016.92 446.462L1014.61 443.216L1019.3 439.876L1021.61 443.121L1022.55 442.453C1024.95 440.745 1027.35 440.095 1029.76 440.5C1032.19 440.932 1034.32 442.438 1036.16 445.018C1036.81 445.931 1037.32 446.865 1037.68 447.822C1038.1 448.786 1038.31 449.672 1038.34 450.479L1032.78 452.022C1032.77 450.965 1032.44 449.968 1031.77 449.029C1030.45 447.178 1028.77 446.977 1026.74 448.424L1025.84 449.065ZM1038.4 465.046C1040.72 468.305 1041.72 471.364 1041.4 474.224C1041.1 477.066 1039.39 479.6 1036.26 481.827L1024.26 490.374L1020.19 484.665L1022.81 482.8C1020.04 483.045 1017.54 481.603 1015.32 478.475C1014.16 476.859 1013.44 475.256 1013.13 473.667C1012.84 472.104 1012.96 470.667 1013.48 469.354C1014 468.042 1014.87 466.95 1016.09 466.078C1018.05 464.686 1020.11 464.32 1022.27 464.982C1024.45 465.67 1026.63 467.552 1028.82 470.628L1032.27 475.477C1033.6 474.53 1034.33 473.402 1034.46 472.093C1034.61 470.765 1034.12 469.293 1032.96 467.677C1032.17 466.556 1031.2 465.578 1030.05 464.743C1028.95 463.916 1027.83 463.337 1026.69 463.008L1029.4 457.784C1031.02 458.356 1032.62 459.279 1034.2 460.554C1035.79 461.854 1037.19 463.352 1038.4 465.046ZM1020.51 477.077C1021.25 478.119 1022.14 478.878 1023.19 479.352C1024.26 479.807 1025.38 479.871 1026.56 479.541L1028.71 478.01L1025.73 473.826C1023.95 471.324 1022.24 470.657 1020.6 471.826C1019.82 472.383 1019.4 473.128 1019.36 474.062C1019.36 475.003 1019.75 476.008 1020.51 477.077ZM1035.28 506.513C1033.68 504.271 1032.7 501.926 1032.33 499.478C1032.01 497.037 1032.3 494.724 1033.22 492.538C1034.16 490.378 1035.67 488.556 1037.76 487.071C1039.84 485.586 1042.06 484.755 1044.41 484.576C1046.77 484.423 1049.04 484.909 1051.22 486.032C1053.44 487.162 1055.34 488.849 1056.94 491.09C1058.52 493.306 1059.42 495.569 1059.65 497.88C1059.93 500.198 1059.47 502.347 1058.29 504.328L1052.38 501.406C1053.53 498.938 1053.37 496.674 1051.91 494.615C1050.77 493.025 1049.32 492.079 1047.53 491.779C1045.75 491.479 1043.95 491.969 1042.16 493.249C1040.36 494.53 1039.31 496.063 1039.01 497.848C1038.71 499.633 1039.12 501.321 1040.25 502.911C1041.74 504.996 1043.83 505.887 1046.52 505.582L1047.3 512.151C1045.1 512.583 1042.93 512.298 1040.8 511.298C1038.7 510.324 1036.85 508.729 1035.28 506.513ZM1069.72 532.133C1069.64 532.189 1069.07 532.539 1067.99 533.185L1056.66 517.27C1055.56 518.485 1055.02 519.896 1055.02 521.503C1055.03 523.11 1055.6 524.708 1056.73 526.299C1057.51 527.394 1058.35 528.247 1059.26 528.858C1060.21 529.477 1061.3 529.901 1062.52 530.13L1061.31 535.881C1057.63 535.514 1054.44 533.428 1051.73 529.622C1050.04 527.25 1049 524.827 1048.62 522.352C1048.25 519.859 1048.54 517.533 1049.48 515.373C1050.42 513.213 1051.93 511.391 1054.01 509.906C1056.07 508.44 1058.27 507.605 1060.6 507.4C1062.97 507.203 1065.22 507.627 1067.34 508.672C1069.5 509.724 1071.33 511.306 1072.84 513.417C1074.3 515.477 1075.19 517.656 1075.49 519.956C1075.79 522.255 1075.44 524.468 1074.44 526.594C1073.48 528.728 1071.91 530.574 1069.72 532.133ZM1068.25 516.741C1067.27 515.36 1066.05 514.478 1064.6 514.096C1063.15 513.715 1061.67 513.902 1060.17 514.659L1067.54 525.021C1068.73 523.866 1069.37 522.541 1069.49 521.045C1069.63 519.532 1069.21 518.097 1068.25 516.741Z" fill="black"/>
</svg>
