<svg width="554" height="182" viewBox="0 0 554 182" fill="none" xmlns="http://www.w3.org/2000/svg">
<path d="M275.432 141.152C269 141.152 262.712 140.384 256.568 138.848C250.424 137.216 245.528 135.2 241.88 132.8L249.368 116.672C252.824 118.88 257 120.704 261.896 122.144C266.792 123.488 271.592 124.16 276.296 124.16C285.8 124.16 290.552 121.808 290.552 117.104C290.552 114.896 289.256 113.312 286.664 112.352C284.072 111.392 280.088 110.576 274.712 109.904C268.376 108.944 263.144 107.84 259.016 106.592C254.888 105.344 251.288 103.136 248.216 99.968C245.24 96.8 243.752 92.288 243.752 86.432C243.752 81.536 245.144 77.216 247.928 73.472C250.808 69.632 254.936 66.656 260.312 64.544C265.784 62.432 272.216 61.376 279.608 61.376C285.08 61.376 290.504 62 295.88 63.248C301.352 64.4 305.864 66.032 309.416 68.144L301.928 84.128C295.112 80.288 287.672 78.368 279.608 78.368C274.808 78.368 271.208 79.04 268.808 80.384C266.408 81.728 265.208 83.456 265.208 85.568C265.208 87.968 266.504 89.648 269.096 90.608C271.688 91.568 275.816 92.48 281.48 93.344C287.816 94.4 293 95.552 297.032 96.8C301.064 97.952 304.568 100.112 307.544 103.28C310.52 106.448 312.008 110.864 312.008 116.528C312.008 121.328 310.568 125.6 307.688 129.344C304.808 133.088 300.584 136.016 295.016 138.128C289.544 140.144 283.016 141.152 275.432 141.152ZM325.868 62.528H348.332V140H325.868V62.528ZM337.1 51.728C332.972 51.728 329.612 50.528 327.02 48.128C324.428 45.728 323.132 42.752 323.132 39.2C323.132 35.648 324.428 32.672 327.02 30.272C329.612 27.872 332.972 26.672 337.1 26.672C341.228 26.672 344.588 27.824 347.18 30.128C349.772 32.432 351.068 35.312 351.068 38.768C351.068 42.512 349.772 45.632 347.18 48.128C344.588 50.528 341.228 51.728 337.1 51.728ZM416.269 61.376C425.869 61.376 433.597 64.256 439.453 70.016C445.405 75.776 448.381 84.32 448.381 95.648V140H425.917V99.104C425.917 92.96 424.573 88.4 421.885 85.424C419.197 82.352 415.309 80.816 410.221 80.816C404.557 80.816 400.045 82.592 396.685 86.144C393.325 89.6 391.645 94.784 391.645 101.696V140H369.181V62.528H390.637V71.6C393.613 68.336 397.309 65.84 401.725 64.112C406.141 62.288 410.989 61.376 416.269 61.376ZM506.451 141.152C498.291 141.152 490.947 139.472 484.419 136.112C477.987 132.656 472.947 127.904 469.299 121.856C465.651 115.808 463.827 108.944 463.827 101.264C463.827 93.584 465.651 86.72 469.299 80.672C472.947 74.624 477.987 69.92 484.419 66.56C490.947 63.104 498.291 61.376 506.451 61.376C514.611 61.376 521.907 63.104 528.339 66.56C534.771 69.92 539.811 74.624 543.459 80.672C547.107 86.72 548.931 93.584 548.931 101.264C548.931 108.944 547.107 115.808 543.459 121.856C539.811 127.904 534.771 132.656 528.339 136.112C521.907 139.472 514.611 141.152 506.451 141.152ZM506.451 122.72C512.211 122.72 516.915 120.8 520.563 116.96C524.307 113.024 526.179 107.792 526.179 101.264C526.179 94.736 524.307 89.552 520.563 85.712C516.915 81.776 512.211 79.808 506.451 79.808C500.691 79.808 495.939 81.776 492.195 85.712C488.451 89.552 486.579 94.736 486.579 101.264C486.579 107.792 488.451 113.024 492.195 116.96C495.939 120.8 500.691 122.72 506.451 122.72Z" fill="black"/>
<path d="M226.039 107.902L226.028 107.929L226.02 107.957C223.707 115.978 220.198 119.852 216.065 121.297C211.893 122.755 206.932 121.799 201.584 119.781C197.895 118.39 194.093 116.523 190.301 114.662C188.598 113.826 186.896 112.991 185.208 112.2C179.806 109.671 174.535 107.595 169.954 107.595C165.383 107.595 159.724 109.633 153.772 112.121C152.11 112.815 150.423 113.546 148.725 114.281C144.298 116.198 139.794 118.149 135.448 119.585C129.429 121.573 123.847 122.523 119.334 121.079C114.89 119.657 111.353 115.865 109.5 108.037C109.515 101.651 112.053 94.5015 116.152 87.1491C120.259 79.7818 125.91 72.2534 132.076 65.1473C144.264 51.1009 158.42 38.7506 166.515 32.6151C173.839 37.6455 190.247 52.3939 204.089 67.9493C211.102 75.8304 217.436 83.8961 221.591 90.9889C223.668 94.536 225.189 97.8209 225.983 100.704C226.778 103.595 226.827 106.023 226.039 107.902Z" fill="black" stroke="black"/>
<path d="M170 105.5L197.28 140.75H142.72L170 105.5Z" fill="black"/>
<path d="M60.192 147.728C49.92 147.728 40.608 145.52 32.256 141.104C24 136.592 17.472 130.4 12.672 122.528C7.968 114.56 5.616 105.584 5.616 95.6C5.616 85.616 7.968 76.688 12.672 68.816C17.472 60.848 24 54.656 32.256 50.24C40.608 45.728 49.968 43.472 60.336 43.472C69.072 43.472 76.944 45.008 83.952 48.08C91.056 51.152 97.008 55.568 101.808 61.328L86.832 75.152C80.016 67.28 71.568 63.344 61.488 63.344C55.248 63.344 49.68 64.736 44.784 67.52C39.888 70.208 36.048 74 33.264 78.896C30.576 83.792 29.232 89.36 29.232 95.6C29.232 101.84 30.576 107.408 33.264 112.304C36.048 117.2 39.888 121.04 44.784 123.824C49.68 126.512 55.248 127.856 61.488 127.856C71.568 127.856 80.016 123.872 86.832 115.904L101.808 129.728C97.008 135.584 91.056 140.048 83.952 143.12C76.848 146.192 68.928 147.728 60.192 147.728Z" fill="black"/>
</svg>
