<svg width="1215" height="292" viewBox="0 0 1215 292" fill="none" xmlns="http://www.w3.org/2000/svg">
<path d="M803.921 119.076C801.818 135.254 786.192 146.833 768.72 144.562C751.249 142.291 739.101 127.102 741.204 110.924C743.307 94.7456 758.934 83.1668 776.406 85.4379C793.877 87.709 806.024 102.898 803.921 119.076Z" fill="black" fill-opacity="0.87" stroke="black" stroke-width="6"/>
<path d="M769.195 82.7446L770.205 82.5812L772.634 82.6024L773.839 82.6854L775.109 82.8505L778.024 83.2294L779.573 83.5332L781.108 83.9378L779.527 93.8833L768.018 92.3873L769.195 82.7446Z" fill="#C4C4C4"/>
<path d="M741.528 98.8902L742.025 98.005L743.549 96.1423L744.363 95.2651L745.282 94.3905L747.391 92.384L748.592 91.3845L749.865 90.4602L756.754 98.1107L748.428 106.034L741.528 98.8902Z" fill="#C4C4C4"/>
<path d="M743.949 133.209L743.283 132.442L742.045 130.379L741.493 129.317L740.98 128.156L739.804 125.494L739.268 124.026L738.828 122.515L748.355 118.613L753.002 129.125L743.949 133.209Z" fill="#C4C4C4"/>
<path d="M802.857 130.768L802.425 131.686L801.037 133.653L800.288 134.586L799.434 135.524L797.474 137.676L796.347 138.759L795.143 139.771L787.725 132.632L795.465 124.135L802.857 130.768Z" fill="#C4C4C4"/>
<path d="M800.544 97.2203L801.235 97.9638L802.544 99.9838L803.131 101.026L803.683 102.169L804.951 104.789L805.536 106.238L806.028 107.732L796.639 111.958L791.636 101.611L800.544 97.2203Z" fill="#C4C4C4"/>
<path d="M760.987 145.893L761.919 146.321L764.272 146.932L765.458 147.163L766.728 147.328L769.643 147.707L771.218 147.805L772.807 147.799L773.871 137.396L762.362 135.9L760.987 145.893Z" fill="#C4C4C4"/>
<path d="M430.712 252.92C428.168 272.498 409.275 286.455 388.216 283.717C367.157 280.98 352.46 262.657 355.005 243.079C357.549 223.502 376.443 209.545 397.501 212.282C418.56 215.02 433.257 233.343 430.712 252.92Z" fill="black" fill-opacity="0.87" stroke="black" stroke-width="6"/>
<path d="M388.854 209.642L390.054 209.448L392.943 209.473L394.376 209.572L395.887 209.768L399.353 210.219L401.194 210.58L403.02 211.061L401.14 222.888L387.454 221.109L388.854 209.642Z" fill="#C4C4C4"/>
<path d="M355.952 228.842L356.543 227.789L358.356 225.574L359.323 224.531L360.416 223.491L362.924 221.105L364.352 219.916L365.866 218.817L374.059 227.915L364.157 237.337L355.952 228.842Z" fill="#C4C4C4"/>
<path d="M358.831 269.654L358.04 268.742L356.566 266.288L355.911 265.025L355.301 263.645L353.901 260.479L353.265 258.734L352.741 256.938L364.071 252.296L369.597 264.798L358.831 269.654Z" fill="#C4C4C4"/>
<path d="M428.885 266.75L428.37 267.843L426.72 270.181L425.83 271.291L424.814 272.407L422.483 274.965L421.143 276.253L419.711 277.457L410.89 268.968L420.094 258.863L428.885 266.75Z" fill="#C4C4C4"/>
<path d="M426.134 226.856L426.956 227.74L428.512 230.143L429.21 231.382L429.867 232.741L431.374 235.857L432.07 237.58L432.654 239.357L421.49 244.383L415.54 232.078L426.134 226.856Z" fill="#C4C4C4"/>
<path d="M379.092 284.738L380.201 285.246L382.999 285.973L384.409 286.248L385.92 286.444L389.386 286.895L391.259 287.011L393.148 287.004L394.414 274.633L380.727 272.854L379.092 284.738Z" fill="#C4C4C4"/>
<path fill-rule="evenodd" clip-rule="evenodd" d="M389.744 270.874C403.569 272.671 415.956 263.829 417.58 251.334C419.204 238.84 409.489 227.125 395.664 225.328C381.839 223.531 369.452 232.373 367.828 244.867C366.204 257.362 375.918 269.076 389.744 270.874ZM389.585 272.091C404.004 273.966 417.089 264.744 418.811 251.494C420.534 238.245 410.241 225.984 395.822 224.11C381.404 222.236 368.319 231.457 366.596 244.707C364.874 257.957 375.167 270.217 389.585 272.091Z" fill="white"/>
<path fill-rule="evenodd" clip-rule="evenodd" d="M769.944 134.234C781.569 135.746 791.986 128.31 793.351 117.804C794.717 107.297 786.548 97.4457 774.922 95.9345C763.296 94.4232 752.88 101.858 751.514 112.365C750.149 122.872 758.318 132.723 769.944 134.234ZM769.81 135.258C781.935 136.834 792.939 129.08 794.387 117.938C795.835 106.796 787.18 96.4865 775.055 94.9104C762.93 93.3343 751.927 101.089 750.479 112.231C749.031 123.372 757.686 133.682 769.81 135.258Z" fill="white"/>
<path d="M76.4188 46.7717C74.1076 64.5514 56.942 77.2505 37.7804 74.7597C18.6189 72.2689 5.27033 55.6033 7.58147 37.8237C9.89262 20.044 27.0582 7.34492 46.2198 9.8357C65.3814 12.3265 78.7299 28.9921 76.4188 46.7717Z" fill="black" fill-opacity="0.87" stroke="black" stroke-width="6"/>
<path d="M38.3323 7.16747L39.4315 6.98949L42.0772 7.01254L43.3898 7.10294L44.7736 7.28282L47.9481 7.69546L49.6344 8.02634L51.3065 8.46704L49.5851 19.299L37.0499 17.6696L38.3323 7.16747Z" fill="#C4C4C4"/>
<path d="M8.19876 24.7519L8.74007 23.7878L10.4003 21.7591L11.2864 20.8037L12.2875 19.8512L14.5842 17.6659L15.8926 16.5772L17.279 15.5706L24.7825 23.903L15.7137 32.532L8.19876 24.7519Z" fill="#C4C4C4"/>
<path d="M10.8353 62.1298L10.1105 61.2949L8.76128 59.0473L8.16104 57.8907L7.60231 56.6268L6.32051 53.7273L5.73739 52.1283L5.25782 50.4834L15.634 46.2328L20.6954 57.682L10.8353 62.1298Z" fill="#C4C4C4"/>
<path d="M74.9944 59.471L74.5233 60.4713L73.0122 62.6133L72.1965 63.6296L71.266 64.6512L69.1312 66.9948L67.9039 68.1741L66.5928 69.2772L58.5136 61.5017L66.9432 52.2473L74.9944 59.471Z" fill="#C4C4C4"/>
<path d="M72.475 22.9334L73.2279 23.7431L74.6531 25.9432L75.2925 27.0787L75.8941 28.3227L77.2742 31.1767L77.9116 32.755L78.4471 34.3825L68.2222 38.9851L62.7726 27.7154L72.475 22.9334Z" fill="#C4C4C4"/>
<path d="M29.3917 75.9449L30.4073 76.4101L32.9694 77.0763L34.2611 77.3276L35.6449 77.5074L38.8194 77.9201L40.5349 78.0271L42.2651 78.0201L43.4246 66.6898L30.8894 65.0604L29.3917 75.9449Z" fill="#C4C4C4"/>
<path fill-rule="evenodd" clip-rule="evenodd" d="M39.1472 63.2466C51.8092 64.8925 63.1538 56.7945 64.6412 45.3513C66.1287 33.9081 57.2315 23.1789 44.5694 21.533C31.9074 19.8871 20.5628 27.9851 19.0753 39.4283C17.5879 50.8715 26.4851 61.6007 39.1472 63.2466ZM39.0022 64.3619C52.2078 66.0785 64.1917 57.6328 65.7691 45.4979C67.3465 33.3631 57.92 22.1343 44.7144 20.4177C31.5088 18.7011 19.5249 27.1468 17.9475 39.2817C16.3701 51.4165 25.7966 62.6453 39.0022 64.3619Z" fill="white"/>
<path d="M128.88 38.768C131.909 39.4933 134.192 40.7947 135.728 42.672C137.307 44.5067 138.096 46.8747 138.096 49.776C138.096 53.6587 136.667 56.6667 133.808 58.8C130.992 60.9333 126.875 62 121.456 62H100.976V17.2H120.24C125.147 17.2 128.965 18.2027 131.696 20.208C134.469 22.1707 135.856 25.008 135.856 28.72C135.856 31.152 135.237 33.2213 134 34.928C132.805 36.6347 131.099 37.9147 128.88 38.768ZM107.312 36.912H119.792C122.907 36.912 125.275 36.2933 126.896 35.056C128.56 33.8187 129.392 32.0053 129.392 29.616C129.392 27.2267 128.56 25.4133 126.896 24.176C125.232 22.896 122.864 22.256 119.792 22.256H107.312V36.912ZM121.328 56.944C128.197 56.944 131.632 54.384 131.632 49.264C131.632 46.704 130.757 44.8267 129.008 43.632C127.301 42.3947 124.741 41.776 121.328 41.776H107.312V56.944H121.328ZM178.421 45.232C178.421 45.7013 178.378 46.32 178.293 47.088H150.773C151.157 50.0747 152.458 52.4853 154.677 54.32C156.938 56.112 159.733 57.008 163.061 57.008C167.114 57.008 170.378 55.6427 172.853 52.912L176.245 56.88C174.709 58.672 172.789 60.0373 170.485 60.976C168.223 61.9147 165.685 62.384 162.869 62.384C159.285 62.384 156.106 61.6587 153.333 60.208C150.559 58.7147 148.405 56.6453 146.869 54C145.375 51.3547 144.629 48.368 144.629 45.04C144.629 41.7547 145.354 38.7893 146.805 36.144C148.298 33.4987 150.325 31.4507 152.885 30C155.487 28.5067 158.41 27.76 161.653 27.76C164.895 27.76 167.775 28.5067 170.293 30C172.853 31.4507 174.837 33.4987 176.245 36.144C177.695 38.7893 178.421 41.8187 178.421 45.232ZM161.653 32.944C158.709 32.944 156.234 33.84 154.229 35.632C152.266 37.424 151.114 39.7707 150.773 42.672H172.533C172.191 39.8133 171.018 37.488 169.013 35.696C167.05 33.8613 164.597 32.944 161.653 32.944ZM205.232 29.232C208.389 29.232 211.205 29.936 213.68 31.344C216.155 32.752 218.075 34.7147 219.44 37.232C220.848 39.7067 221.552 42.544 221.552 45.744C221.552 49.0293 220.805 51.952 219.312 54.512C217.861 57.0293 215.792 58.992 213.104 60.4C210.459 61.808 207.429 62.512 204.016 62.512C198.256 62.512 193.797 60.5493 190.64 56.624C187.525 52.656 185.968 47.088 185.968 39.92C185.968 32.9653 187.397 27.5253 190.256 23.6C193.115 19.632 197.488 17.008 203.376 15.728L218.864 12.272L219.76 17.904L205.488 20.976C201.051 21.9573 197.744 23.6213 195.568 25.968C193.392 28.3147 192.155 31.6853 191.856 36.08C193.307 33.904 195.184 32.2187 197.488 31.024C199.792 29.8293 202.373 29.232 205.232 29.232ZM204.144 57.392C206.32 57.392 208.24 56.9013 209.904 55.92C211.611 54.9387 212.933 53.5947 213.872 51.888C214.811 50.1387 215.28 48.1547 215.28 45.936C215.28 42.5653 214.256 39.856 212.208 37.808C210.16 35.76 207.472 34.736 204.144 34.736C200.816 34.736 198.107 35.76 196.016 37.808C193.968 39.856 192.944 42.5653 192.944 45.936C192.944 48.1547 193.413 50.1387 194.352 51.888C195.333 53.5947 196.677 54.9387 198.384 55.92C200.091 56.9013 202.011 57.392 204.144 57.392ZM228.648 41.776H245.864V47.088H228.648V41.776ZM279.545 33.456H267.128V62H260.985V33.456H248.569V28.08H279.545V33.456ZM285.827 28.08H291.971V52.784L312.771 28.08H318.339V62H312.195V37.296L291.459 62H285.827V28.08ZM361.689 28.08V62H355.545V33.456H336.409V62H330.265V28.08H361.689ZM388.105 62.384C384.734 62.384 381.705 61.6373 379.017 60.144C376.329 58.6507 374.217 56.6027 372.681 54C371.188 51.3547 370.441 48.368 370.441 45.04C370.441 41.712 371.188 38.7467 372.681 36.144C374.217 33.4987 376.329 31.4507 379.017 30C381.705 28.5067 384.734 27.76 388.105 27.76C391.476 27.76 394.484 28.5067 397.129 30C399.817 31.4507 401.908 33.4987 403.401 36.144C404.937 38.7467 405.705 41.712 405.705 45.04C405.705 48.368 404.937 51.3547 403.401 54C401.908 56.6027 399.817 58.6507 397.129 60.144C394.484 61.6373 391.476 62.384 388.105 62.384ZM388.105 57.008C390.281 57.008 392.222 56.5173 393.929 55.536C395.678 54.512 397.044 53.104 398.025 51.312C399.006 49.4773 399.497 47.3867 399.497 45.04C399.497 42.6933 399.006 40.624 398.025 38.832C397.044 36.9973 395.678 35.5893 393.929 34.608C392.222 33.6267 390.281 33.136 388.105 33.136C385.929 33.136 383.966 33.6267 382.217 34.608C380.51 35.5893 379.145 36.9973 378.121 38.832C377.14 40.624 376.649 42.6933 376.649 45.04C376.649 47.3867 377.14 49.4773 378.121 51.312C379.145 53.104 380.51 54.512 382.217 55.536C383.966 56.5173 385.929 57.008 388.105 57.008ZM439.537 33.456H420.721V62H414.577V28.08H439.537V33.456ZM463.811 27.76C467.096 27.76 470.04 28.4853 472.643 29.936C475.246 31.3867 477.272 33.4133 478.723 36.016C480.216 38.6187 480.963 41.6267 480.963 45.04C480.963 48.4533 480.216 51.4827 478.723 54.128C477.272 56.7307 475.246 58.7573 472.643 60.208C470.04 61.6587 467.096 62.384 463.811 62.384C461.379 62.384 459.139 61.9147 457.091 60.976C455.086 60.0373 453.379 58.672 451.971 56.88V74.416H445.827V28.08H451.715V33.456C453.08 31.5787 454.808 30.1707 456.899 29.232C458.99 28.2507 461.294 27.76 463.811 27.76ZM463.299 57.008C465.475 57.008 467.416 56.5173 469.123 55.536C470.872 54.512 472.238 53.104 473.219 51.312C474.243 49.4773 474.755 47.3867 474.755 45.04C474.755 42.6933 474.243 40.624 473.219 38.832C472.238 36.9973 470.872 35.5893 469.123 34.608C467.416 33.6267 465.475 33.136 463.299 33.136C461.166 33.136 459.224 33.648 457.475 34.672C455.768 35.6533 454.403 37.04 453.379 38.832C452.398 40.624 451.907 42.6933 451.907 45.04C451.907 47.3867 452.398 49.4773 453.379 51.312C454.36 53.104 455.726 54.512 457.475 55.536C459.224 56.5173 461.166 57.008 463.299 57.008ZM501.673 27.76C506.366 27.76 509.95 28.912 512.425 31.216C514.942 33.52 516.201 36.9547 516.201 41.52V62H510.377V57.52C509.353 59.0987 507.881 60.3147 505.961 61.168C504.084 61.9787 501.844 62.384 499.241 62.384C495.444 62.384 492.393 61.4667 490.089 59.632C487.828 57.7973 486.697 55.3867 486.697 52.4C486.697 49.4133 487.785 47.024 489.961 45.232C492.137 43.3973 495.593 42.48 500.329 42.48H510.057V41.264C510.057 38.6187 509.289 36.592 507.753 35.184C506.217 33.776 503.956 33.072 500.969 33.072C498.964 33.072 497.001 33.4133 495.081 34.096C493.161 34.736 491.54 35.6107 490.217 36.72L487.657 32.112C489.406 30.704 491.497 29.6373 493.929 28.912C496.361 28.144 498.942 27.76 501.673 27.76ZM500.265 57.648C502.612 57.648 504.638 57.136 506.345 56.112C508.052 55.0453 509.289 53.552 510.057 51.632V46.896H500.585C495.38 46.896 492.777 48.6453 492.777 52.144C492.777 53.8507 493.438 55.1947 494.761 56.176C496.084 57.1573 497.918 57.648 500.265 57.648ZM570.081 44.976C570.081 50.224 568.331 54.3627 564.833 57.392C561.334 60.4213 556.406 62.1067 550.049 62.448V74.416H544.033V62.448C537.675 62.1067 532.747 60.4427 529.249 57.456C525.793 54.4267 524.065 50.2667 524.065 44.976C524.065 39.728 525.793 35.632 529.249 32.688C532.705 29.744 537.633 28.1013 544.033 27.76V14.512H550.049V27.76C556.406 28.1013 561.334 29.7653 564.833 32.752C568.331 35.696 570.081 39.7707 570.081 44.976ZM530.145 44.976C530.145 48.6027 531.297 51.44 533.601 53.488C535.947 55.536 539.425 56.7093 544.033 57.008V33.2C539.382 33.4987 535.905 34.6507 533.601 36.656C531.297 38.6613 530.145 41.4347 530.145 44.976ZM550.049 57.072C559.35 56.3467 564.001 52.3147 564.001 44.976C564.001 41.392 562.827 38.6187 560.481 36.656C558.134 34.6507 554.657 33.4987 550.049 33.2V57.072ZM578.765 28.08H584.909V52.784L605.708 28.08H611.277V62H605.132V37.296L584.397 62H578.765V28.08ZM636.386 47.664H629.346V62H623.202V28.08H629.346V42.416H636.514L647.522 28.08H654.114L641.25 44.4L655.01 62H647.778L636.386 47.664ZM672.923 27.76C677.616 27.76 681.2 28.912 683.675 31.216C686.192 33.52 687.451 36.9547 687.451 41.52V62H681.627V57.52C680.603 59.0987 679.131 60.3147 677.211 61.168C675.334 61.9787 673.094 62.384 670.491 62.384C666.694 62.384 663.643 61.4667 661.339 59.632C659.078 57.7973 657.947 55.3867 657.947 52.4C657.947 49.4133 659.035 47.024 661.211 45.232C663.387 43.3973 666.843 42.48 671.579 42.48H681.307V41.264C681.307 38.6187 680.539 36.592 679.003 35.184C677.467 33.776 675.206 33.072 672.219 33.072C670.214 33.072 668.251 33.4133 666.331 34.096C664.411 34.736 662.79 35.6107 661.467 36.72L658.907 32.112C660.656 30.704 662.747 29.6373 665.179 28.912C667.611 28.144 670.192 27.76 672.923 27.76ZM671.515 57.648C673.862 57.648 675.888 57.136 677.595 56.112C679.302 55.0453 680.539 53.552 681.307 51.632V46.896H671.835C666.63 46.896 664.027 48.6453 664.027 52.144C664.027 53.8507 664.688 55.1947 666.011 56.176C667.334 57.1573 669.168 57.648 671.515 57.648Z" fill="black"/>
<path d="M480.824 247.64C483.512 248.493 485.603 249.88 487.096 251.8C488.632 253.677 489.4 255.896 489.4 258.456C489.4 261.144 488.525 263.491 486.776 265.496C485.027 267.459 482.68 268.973 479.736 270.04C476.835 271.107 473.656 271.64 470.2 271.64C467.213 271.64 464.205 271.235 461.176 270.424C458.189 269.571 455.416 268.312 452.856 266.648L455.544 260.568C457.507 261.891 459.683 262.915 462.072 263.64C464.461 264.323 466.829 264.664 469.176 264.664C472.547 264.664 475.341 264.003 477.56 262.68C479.821 261.357 480.952 259.544 480.952 257.24C480.952 255.277 480.141 253.784 478.52 252.76C476.899 251.736 474.659 251.224 471.8 251.224H461.368V244.696H471.16C473.635 244.696 475.576 244.184 476.984 243.16C478.392 242.136 479.096 240.749 479.096 239C479.096 236.909 478.136 235.288 476.216 234.136C474.339 232.984 471.928 232.408 468.984 232.408C466.979 232.408 464.909 232.707 462.776 233.304C460.643 233.859 458.637 234.691 456.76 235.8L454.136 229.08C456.44 227.843 458.872 226.925 461.432 226.328C464.035 225.688 466.616 225.368 469.176 225.368C472.504 225.368 475.555 225.88 478.328 226.904C481.144 227.928 483.384 229.4 485.048 231.32C486.712 233.197 487.544 235.416 487.544 237.976C487.544 240.195 486.947 242.136 485.752 243.8C484.557 245.464 482.915 246.744 480.824 247.64ZM510.675 236.44C515.709 236.44 519.549 237.656 522.195 240.088C524.883 242.477 526.227 246.104 526.227 250.968V271H518.675V266.84C517.693 268.333 516.285 269.485 514.451 270.296C512.659 271.064 510.483 271.448 507.923 271.448C505.363 271.448 503.123 271.021 501.203 270.168C499.283 269.272 497.789 268.056 496.723 266.52C495.699 264.941 495.187 263.171 495.187 261.208C495.187 258.136 496.317 255.683 498.579 253.848C500.883 251.971 504.488 251.032 509.395 251.032H518.227V250.52C518.227 248.131 517.501 246.296 516.051 245.016C514.643 243.736 512.531 243.096 509.715 243.096C507.795 243.096 505.896 243.395 504.019 243.992C502.184 244.589 500.627 245.421 499.347 246.488L496.211 240.664C498.003 239.299 500.157 238.253 502.675 237.528C505.192 236.803 507.859 236.44 510.675 236.44ZM509.587 265.624C511.592 265.624 513.363 265.176 514.899 264.28C516.477 263.341 517.587 262.019 518.227 260.312V256.344H509.971C505.363 256.344 503.059 257.859 503.059 260.888C503.059 262.339 503.635 263.491 504.787 264.344C505.939 265.197 507.539 265.624 509.587 265.624ZM562.366 243.608H544.126V271H536.126V236.824H562.366V243.608ZM581.921 271.448C578.465 271.448 575.35 270.701 572.577 269.208C569.803 267.715 567.627 265.645 566.049 263C564.513 260.312 563.745 257.283 563.745 253.912C563.745 250.541 564.513 247.533 566.049 244.888C567.627 242.243 569.803 240.173 572.577 238.68C575.35 237.187 578.465 236.44 581.921 236.44C585.419 236.44 588.555 237.187 591.329 238.68C594.102 240.173 596.257 242.243 597.793 244.888C599.371 247.533 600.161 250.541 600.161 253.912C600.161 257.283 599.371 260.312 597.793 263C596.257 265.645 594.102 267.715 591.329 269.208C588.555 270.701 585.419 271.448 581.921 271.448ZM581.921 264.6C584.865 264.6 587.297 263.619 589.217 261.656C591.137 259.693 592.097 257.112 592.097 253.912C592.097 250.712 591.137 248.131 589.217 246.168C587.297 244.205 584.865 243.224 581.921 243.224C578.977 243.224 576.545 244.205 574.625 246.168C572.747 248.131 571.809 250.712 571.809 253.912C571.809 257.112 572.747 259.693 574.625 261.656C576.545 263.619 578.977 264.6 581.921 264.6ZM638.665 236.824V271H630.665V243.608H617.865L617.545 250.392C617.331 254.915 616.905 258.712 616.265 261.784C615.667 264.813 614.622 267.224 613.129 269.016C611.678 270.765 609.673 271.64 607.113 271.64C605.918 271.64 604.446 271.405 602.697 270.936L603.081 264.216C603.678 264.344 604.19 264.408 604.617 264.408C606.238 264.408 607.454 263.768 608.265 262.488C609.075 261.165 609.587 259.608 609.801 257.816C610.057 255.981 610.27 253.379 610.441 250.008L611.017 236.824H638.665ZM664.671 271.448C661.215 271.448 658.1 270.701 655.327 269.208C652.553 267.715 650.377 265.645 648.799 263C647.263 260.312 646.495 257.283 646.495 253.912C646.495 250.541 647.263 247.533 648.799 244.888C650.377 242.243 652.553 240.173 655.327 238.68C658.1 237.187 661.215 236.44 664.671 236.44C668.169 236.44 671.305 237.187 674.079 238.68C676.852 240.173 679.007 242.243 680.543 244.888C682.121 247.533 682.911 250.541 682.911 253.912C682.911 257.283 682.121 260.312 680.543 263C679.007 265.645 676.852 267.715 674.079 269.208C671.305 270.701 668.169 271.448 664.671 271.448ZM664.671 264.6C667.615 264.6 670.047 263.619 671.967 261.656C673.887 259.693 674.847 257.112 674.847 253.912C674.847 250.712 673.887 248.131 671.967 246.168C670.047 244.205 667.615 243.224 664.671 243.224C661.727 243.224 659.295 244.205 657.375 246.168C655.497 248.131 654.559 250.712 654.559 253.912C654.559 257.112 655.497 259.693 657.375 261.656C659.295 263.619 661.727 264.6 664.671 264.6ZM715.582 253.208C719.806 254.488 721.918 257.219 721.918 261.4C721.918 264.472 720.766 266.84 718.462 268.504C716.158 270.168 712.744 271 708.222 271H690.814V236.824H707.518C711.699 236.824 714.963 237.592 717.31 239.128C719.656 240.664 720.83 242.84 720.83 245.656C720.83 247.405 720.36 248.92 719.422 250.2C718.526 251.48 717.246 252.483 715.582 253.208ZM698.43 251.096H706.814C710.952 251.096 713.022 249.667 713.022 246.808C713.022 244.035 710.952 242.648 706.814 242.648H698.43V251.096ZM707.582 265.176C711.976 265.176 714.174 263.747 714.174 260.888C714.174 259.395 713.662 258.285 712.638 257.56C711.614 256.792 710.014 256.408 707.838 256.408H698.43V265.176H707.582ZM744.647 257.304H738.439V271H730.439V236.824H738.439V250.648H744.839L754.951 236.824H763.527L751.111 253.272L764.359 271H754.951L744.647 257.304ZM770.001 236.824H778.001V259.352L796.881 236.824H804.177V271H796.177V248.472L777.361 271H770.001V236.824Z" fill="black"/>
<path d="M839.4 129.288C836.072 129.288 833.048 128.552 830.328 127.08C827.64 125.576 825.528 123.528 823.992 120.936C822.488 118.344 821.736 115.432 821.736 112.2C821.736 108.968 822.488 106.056 823.992 103.464C825.528 100.872 827.64 98.84 830.328 97.368C833.048 95.864 836.072 95.112 839.4 95.112C842.728 95.112 845.72 95.848 848.376 97.32C851.064 98.792 853.176 100.84 854.712 103.464C856.248 106.056 857.016 108.968 857.016 112.2C857.016 115.432 856.248 118.36 854.712 120.984C853.176 123.576 851.064 125.608 848.376 127.08C845.72 128.552 842.728 129.288 839.4 129.288ZM839.4 126.12C842.056 126.12 844.456 125.528 846.6 124.344C848.744 123.128 850.424 121.464 851.64 119.352C852.856 117.208 853.464 114.824 853.464 112.2C853.464 109.576 852.856 107.208 851.64 105.096C850.424 102.952 848.744 101.288 846.6 100.104C844.456 98.888 842.056 98.28 839.4 98.28C836.744 98.28 834.328 98.888 832.152 100.104C830.008 101.288 828.312 102.952 827.064 105.096C825.848 107.208 825.24 109.576 825.24 112.2C825.24 114.824 825.848 117.208 827.064 119.352C828.312 121.464 830.008 123.128 832.152 124.344C834.328 125.528 836.744 126.12 839.4 126.12ZM875.236 129.24C872.74 129.24 870.5 128.696 868.516 127.608C866.564 126.52 865.028 125 863.908 123.048C862.788 121.064 862.228 118.84 862.228 116.376C862.228 113.912 862.788 111.704 863.908 109.752C865.028 107.8 866.564 106.28 868.516 105.192C870.5 104.104 872.74 103.56 875.236 103.56C877.412 103.56 879.348 103.992 881.044 104.856C882.772 105.688 884.132 106.92 885.124 108.552L882.58 110.28C881.748 109.032 880.692 108.104 879.412 107.496C878.132 106.856 876.74 106.536 875.236 106.536C873.412 106.536 871.764 106.952 870.292 107.784C868.852 108.584 867.716 109.736 866.884 111.24C866.084 112.744 865.684 114.456 865.684 116.376C865.684 118.328 866.084 120.056 866.884 121.56C867.716 123.032 868.852 124.184 870.292 125.016C871.764 125.816 873.412 126.216 875.236 126.216C876.74 126.216 878.132 125.912 879.412 125.304C880.692 124.696 881.748 123.768 882.58 122.52L885.124 124.248C884.132 125.88 882.772 127.128 881.044 127.992C879.316 128.824 877.38 129.24 875.236 129.24ZM891.723 103.752H895.131V114.936H911.019V103.752H914.427V129H911.019V117.864H895.131V129H891.723V103.752ZM934.53 129.24C932.098 129.24 929.906 128.696 927.954 127.608C926.002 126.488 924.466 124.952 923.346 123C922.226 121.048 921.666 118.84 921.666 116.376C921.666 113.912 922.226 111.704 923.346 109.752C924.466 107.8 926.002 106.28 927.954 105.192C929.906 104.104 932.098 103.56 934.53 103.56C936.962 103.56 939.154 104.104 941.106 105.192C943.058 106.28 944.578 107.8 945.666 109.752C946.786 111.704 947.346 113.912 947.346 116.376C947.346 118.84 946.786 121.048 945.666 123C944.578 124.952 943.058 126.488 941.106 127.608C939.154 128.696 936.962 129.24 934.53 129.24ZM934.53 126.216C936.322 126.216 937.922 125.816 939.33 125.016C940.77 124.184 941.89 123.016 942.69 121.512C943.49 120.008 943.89 118.296 943.89 116.376C943.89 114.456 943.49 112.744 942.69 111.24C941.89 109.736 940.77 108.584 939.33 107.784C937.922 106.952 936.322 106.536 934.53 106.536C932.738 106.536 931.122 106.952 929.682 107.784C928.274 108.584 927.154 109.736 926.322 111.24C925.522 112.744 925.122 114.456 925.122 116.376C925.122 118.296 925.522 120.008 926.322 121.512C927.154 123.016 928.274 124.184 929.682 125.016C931.122 125.816 932.738 126.216 934.53 126.216ZM970.709 115.944C974.133 116.744 975.845 118.808 975.845 122.136C975.845 124.344 975.029 126.04 973.397 127.224C971.765 128.408 969.333 129 966.101 129H954.629V103.752H965.765C968.645 103.752 970.901 104.312 972.533 105.432C974.165 106.552 974.981 108.152 974.981 110.232C974.981 111.608 974.597 112.792 973.829 113.784C973.093 114.744 972.053 115.464 970.709 115.944ZM957.941 114.984H965.525C967.477 114.984 968.965 114.616 969.989 113.88C971.045 113.144 971.573 112.072 971.573 110.664C971.573 109.256 971.045 108.2 969.989 107.496C968.965 106.792 967.477 106.44 965.525 106.44H957.941V114.984ZM965.957 126.312C968.133 126.312 969.765 125.96 970.853 125.256C971.941 124.552 972.485 123.448 972.485 121.944C972.485 120.44 971.989 119.336 970.997 118.632C970.005 117.896 968.437 117.528 966.293 117.528H957.941V126.312H965.957ZM983.832 103.752H987.24V114.936H1003.13V103.752H1006.54V129H1003.13V117.864H987.24V129H983.832V103.752ZM1026.64 129.24C1024.21 129.24 1022.02 128.696 1020.06 127.608C1018.11 126.488 1016.58 124.952 1015.46 123C1014.34 121.048 1013.78 118.84 1013.78 116.376C1013.78 113.912 1014.34 111.704 1015.46 109.752C1016.58 107.8 1018.11 106.28 1020.06 105.192C1022.02 104.104 1024.21 103.56 1026.64 103.56C1029.07 103.56 1031.26 104.104 1033.22 105.192C1035.17 106.28 1036.69 107.8 1037.78 109.752C1038.9 111.704 1039.46 113.912 1039.46 116.376C1039.46 118.84 1038.9 121.048 1037.78 123C1036.69 124.952 1035.17 126.488 1033.22 127.608C1031.26 128.696 1029.07 129.24 1026.64 129.24ZM1026.64 126.216C1028.43 126.216 1030.03 125.816 1031.44 125.016C1032.88 124.184 1034 123.016 1034.8 121.512C1035.6 120.008 1036 118.296 1036 116.376C1036 114.456 1035.6 112.744 1034.8 111.24C1034 109.736 1032.88 108.584 1031.44 107.784C1030.03 106.952 1028.43 106.536 1026.64 106.536C1024.85 106.536 1023.23 106.952 1021.79 107.784C1020.38 108.584 1019.26 109.736 1018.43 111.24C1017.63 112.744 1017.23 114.456 1017.23 116.376C1017.23 118.296 1017.63 120.008 1018.43 121.512C1019.26 123.016 1020.38 124.184 1021.79 125.016C1023.23 125.816 1024.85 126.216 1026.64 126.216ZM1046.74 103.752H1050.15V123.816L1066.99 103.752H1070.02V129H1066.61V108.936L1049.81 129H1046.74V103.752ZM1058.21 100.104C1056.03 100.104 1054.31 99.56 1053.03 98.472C1051.75 97.384 1051.09 95.848 1051.06 93.864H1053.51C1053.54 95.112 1053.99 96.12 1054.85 96.888C1055.71 97.624 1056.83 97.992 1058.21 97.992C1059.59 97.992 1060.71 97.624 1061.57 96.888C1062.47 96.12 1062.93 95.112 1062.96 93.864H1065.41C1065.38 95.848 1064.71 97.384 1063.39 98.472C1062.11 99.56 1060.39 100.104 1058.21 100.104ZM1110.11 106.776H1100.56V129H1097.15V106.776H1087.6V103.752H1110.11V106.776ZM1135.94 117.432H1114.82C1115.02 120.056 1116.02 122.184 1117.85 123.816C1119.67 125.416 1121.98 126.216 1124.76 126.216C1126.33 126.216 1127.77 125.944 1129.08 125.4C1130.39 124.824 1131.53 123.992 1132.49 122.904L1134.41 125.112C1133.29 126.456 1131.88 127.48 1130.18 128.184C1128.52 128.888 1126.68 129.24 1124.66 129.24C1122.07 129.24 1119.77 128.696 1117.75 127.608C1115.77 126.488 1114.22 124.952 1113.1 123C1111.98 121.048 1111.42 118.84 1111.42 116.376C1111.42 113.912 1111.94 111.704 1113 109.752C1114.09 107.8 1115.56 106.28 1117.42 105.192C1119.3 104.104 1121.42 103.56 1123.75 103.56C1126.09 103.56 1128.18 104.104 1130.04 105.192C1131.9 106.28 1133.35 107.8 1134.41 109.752C1135.46 111.672 1135.99 113.88 1135.99 116.376L1135.94 117.432ZM1123.75 106.488C1121.32 106.488 1119.27 107.272 1117.61 108.84C1115.98 110.376 1115.05 112.392 1114.82 114.888H1132.73C1132.5 112.392 1131.56 110.376 1129.9 108.84C1128.26 107.272 1126.22 106.488 1123.75 106.488ZM1152.7 117.768H1146.94V129H1143.54V103.752H1146.94V114.84H1152.75L1161.63 103.752H1165.33L1155.39 115.992L1166.05 129H1162.02L1152.7 117.768ZM1181.1 129.24C1178.6 129.24 1176.36 128.696 1174.38 127.608C1172.42 126.52 1170.89 125 1169.77 123.048C1168.65 121.064 1168.09 118.84 1168.09 116.376C1168.09 113.912 1168.65 111.704 1169.77 109.752C1170.89 107.8 1172.42 106.28 1174.38 105.192C1176.36 104.104 1178.6 103.56 1181.1 103.56C1183.27 103.56 1185.21 103.992 1186.9 104.856C1188.63 105.688 1189.99 106.92 1190.98 108.552L1188.44 110.28C1187.61 109.032 1186.55 108.104 1185.27 107.496C1183.99 106.856 1182.6 106.536 1181.1 106.536C1179.27 106.536 1177.62 106.952 1176.15 107.784C1174.71 108.584 1173.58 109.736 1172.74 111.24C1171.94 112.744 1171.54 114.456 1171.54 116.376C1171.54 118.328 1171.94 120.056 1172.74 121.56C1173.58 123.032 1174.71 124.184 1176.15 125.016C1177.62 125.816 1179.27 126.216 1181.1 126.216C1182.6 126.216 1183.99 125.912 1185.27 125.304C1186.55 124.696 1187.61 123.768 1188.44 122.52L1190.98 124.248C1189.99 125.88 1188.63 127.128 1186.9 127.992C1185.18 128.824 1183.24 129.24 1181.1 129.24ZM1214.87 106.776H1205.32V129H1201.91V106.776H1192.36V103.752H1214.87V106.776Z" fill="black"/>
</svg>
