<svg width="167" height="159" viewBox="0 0 167 159" fill="none" xmlns="http://www.w3.org/2000/svg">
<path d="M154.22 88.0029C149.499 124.644 113.959 150.651 74.4952 145.659C35.0314 140.666 7.2275 106.647 11.9493 70.006C16.6712 33.3653 52.2106 7.35828 91.6745 12.3504C131.138 17.3424 158.942 51.3622 154.22 88.0029Z" fill="white" fill-opacity="0.87" stroke="white" stroke-width="6"/>
<path d="M76.9437 8.11323L79.1208 7.75854L84.3631 7.79158L86.9643 7.9631L89.7068 8.31002L95.9985 9.1059L99.3412 9.74805L102.656 10.606L99.2925 31.8909L74.4485 28.7482L76.9437 8.11323Z" fill="#373434"/>
<path d="M17.3143 42.7936L18.3827 40.8974L21.6633 36.9048L23.4149 35.0239L25.3944 33.1482L29.9354 28.8451L32.5231 26.7006L35.2658 24.7169L50.1693 41.0494L32.238 58.0411L17.3143 42.7936Z" fill="#373434"/>
<path d="M22.7014 116.202L21.2617 114.565L18.5786 110.156L17.3842 107.887L16.2717 105.407L13.7194 99.7177L12.557 96.5794L11.5997 93.3507L32.1403 84.9533L42.2186 107.419L22.7014 116.202Z" fill="#373434"/>
<path d="M149.813 110.681L148.884 112.648L145.899 116.863L144.287 118.863L142.448 120.874L138.229 125.487L135.802 127.809L133.209 129.982L117.167 114.746L133.829 96.5291L149.813 110.681Z" fill="#373434"/>
<path d="M144.662 38.9234L146.158 40.5104L148.991 44.8255L150.263 47.0529L151.46 49.4938L154.207 55.0935L155.477 58.1906L156.545 61.385L136.306 70.473L125.459 48.3615L144.662 38.9234Z" fill="#373434"/>
<path d="M59.5285 143.252L61.5427 144.161L66.6222 145.458L69.1826 145.945L71.9251 146.292L78.2168 147.088L81.6162 147.29L85.0445 147.268L87.2926 125.007L62.4486 121.865L59.5285 143.252Z" fill="#373434"/>
<path fill-rule="evenodd" clip-rule="evenodd" d="M78.8024 118.264C103.898 121.439 126.34 105.48 129.238 82.9949C132.136 60.5104 114.46 39.4764 89.3648 36.3019C64.2694 33.1274 41.8268 49.0865 38.9292 71.5711C36.0317 94.0557 53.707 115.09 78.8024 118.264ZM78.52 120.456C104.693 123.766 128.401 107.121 131.473 83.2777C134.546 59.4341 115.82 37.4212 89.6472 34.1104C63.4746 30.7996 39.7665 47.4448 36.6939 71.2883C33.6212 95.1319 52.3474 117.145 78.52 120.456Z" fill="white"/>
</svg>
