<svg width="986" height="117" viewBox="0 0 986 117" fill="none" xmlns="http://www.w3.org/2000/svg">
<path d="M534.79 67.3317C533.236 79.2866 521.666 87.9114 508.651 86.2196C495.636 84.5278 486.656 73.2318 488.21 61.277C489.764 49.3221 501.334 40.6972 514.349 42.3891C527.364 44.0809 536.344 55.3769 534.79 67.3317Z" fill="black" fill-opacity="0.87" stroke="black" stroke-width="6"/>
<path d="M508.924 39.6295L509.696 39.5045L511.554 39.5207L512.476 39.5842L513.448 39.7105L515.678 40.0004L516.862 40.2328L518.037 40.5423L516.828 48.1505L508.023 47.006L508.924 39.6295Z" fill="#C4C4C4"/>
<path d="M487.759 51.9804L488.139 51.3032L489.305 49.8783L489.927 49.2072L490.63 48.5381L492.244 47.0032L493.163 46.2386L494.136 45.5316L499.407 51.3841L493.037 57.4449L487.759 51.9804Z" fill="#C4C4C4"/>
<path d="M489.611 78.234L489.102 77.6476L488.154 76.0689L487.732 75.2565L487.34 74.3688L486.44 72.3323L486.03 71.2091L485.693 70.0538L492.981 67.0683L496.536 75.11L489.611 78.234Z" fill="#C4C4C4"/>
<path d="M534.675 76.3667L534.344 77.0693L533.283 78.5738L532.71 79.2876L532.056 80.0052L530.557 81.6513L529.695 82.4796L528.774 83.2544L523.099 77.793L529.02 71.2929L534.675 76.3667Z" fill="#C4C4C4"/>
<path d="M532.905 50.7033L533.434 51.272L534.435 52.8174L534.884 53.6149L535.307 54.4887L536.276 56.4933L536.724 57.6018L537.1 58.7449L529.918 61.9777L526.091 54.0621L532.905 50.7033Z" fill="#C4C4C4"/>
<path d="M502.644 87.9375L503.358 88.2642L505.157 88.7322L506.064 88.9087L507.036 89.035L509.266 89.3248L510.471 89.4L511.686 89.3951L512.501 81.4369L503.696 80.2925L502.644 87.9375Z" fill="#C4C4C4"/>
<path fill-rule="evenodd" clip-rule="evenodd" d="M509.496 79.0187C518.39 80.1748 526.358 74.4869 527.403 66.4494C528.448 58.4119 522.199 50.876 513.305 49.7199C504.411 48.5638 496.443 54.2517 495.398 62.2892C494.354 70.3267 500.603 77.8626 509.496 79.0187ZM509.395 79.8021C518.67 81.0078 527.087 75.0757 528.195 66.5524C529.303 58.0291 522.682 50.1422 513.407 48.9365C504.131 47.7308 495.714 53.6629 494.606 62.1862C493.498 70.7095 500.119 78.5964 509.395 79.8021Z" fill="white"/>
<path d="M69.984 25.8V93H54.432V65.448H23.904V93H8.352V25.8H23.904V52.296H54.432V25.8H69.984ZM135.877 67.368C135.877 67.56 135.781 68.904 135.589 71.4H96.5168C97.2208 74.6 98.8848 77.128 101.509 78.984C104.133 80.84 107.397 81.768 111.301 81.768C113.989 81.768 116.357 81.384 118.405 80.616C120.517 79.784 122.469 78.504 124.261 76.776L132.229 85.416C127.365 90.984 120.261 93.768 110.917 93.768C105.093 93.768 99.9408 92.648 95.4608 90.408C90.9808 88.104 87.5248 84.936 85.0928 80.904C82.6608 76.872 81.4448 72.296 81.4448 67.176C81.4448 62.12 82.6288 57.576 84.9968 53.544C87.4288 49.448 90.7248 46.28 94.8848 44.04C99.1088 41.736 103.813 40.584 108.997 40.584C114.053 40.584 118.629 41.672 122.725 43.848C126.821 46.024 130.021 49.16 132.325 53.256C134.693 57.288 135.877 61.992 135.877 67.368ZM109.093 51.912C105.701 51.912 102.853 52.872 100.549 54.792C98.2448 56.712 96.8368 59.336 96.3248 62.664H121.765C121.253 59.4 119.845 56.808 117.541 54.888C115.237 52.904 112.421 51.912 109.093 51.912ZM197.756 93V62.088L182.3 88.008H175.964L160.892 61.992V93H147.356V41.352H163.004L179.516 71.208L197.084 41.352H211.1L211.292 93H197.756ZM225.638 41.352H240.518V61.512H262.982V41.352H277.958V93H262.982V73.704H240.518V93H225.638V41.352ZM316.486 93.768C311.046 93.768 306.15 92.648 301.798 90.408C297.51 88.104 294.15 84.936 291.718 80.904C289.286 76.872 288.07 72.296 288.07 67.176C288.07 62.056 289.286 57.48 291.718 53.448C294.15 49.416 297.51 46.28 301.798 44.04C306.15 41.736 311.046 40.584 316.486 40.584C321.926 40.584 326.79 41.736 331.078 44.04C335.366 46.28 338.726 49.416 341.158 53.448C343.59 57.48 344.806 62.056 344.806 67.176C344.806 72.296 343.59 76.872 341.158 80.904C338.726 84.936 335.366 88.104 331.078 90.408C326.79 92.648 321.926 93.768 316.486 93.768ZM316.486 81.48C320.326 81.48 323.462 80.2 325.894 77.64C328.39 75.016 329.638 71.528 329.638 67.176C329.638 62.824 328.39 59.368 325.894 56.808C323.462 54.184 320.326 52.872 316.486 52.872C312.646 52.872 309.478 54.184 306.982 56.808C304.486 59.368 303.238 62.824 303.238 67.176C303.238 71.528 304.486 75.016 306.982 77.64C309.478 80.2 312.646 81.48 316.486 81.48ZM396.482 53.64H369.986V93H355.106V41.352H396.482V53.64ZM426.455 93.768C421.015 93.768 416.119 92.648 411.767 90.408C407.479 88.104 404.119 84.936 401.687 80.904C399.255 76.872 398.039 72.296 398.039 67.176C398.039 62.056 399.255 57.48 401.687 53.448C404.119 49.416 407.479 46.28 411.767 44.04C416.119 41.736 421.015 40.584 426.455 40.584C431.895 40.584 436.759 41.736 441.047 44.04C445.335 46.28 448.695 49.416 451.127 53.448C453.559 57.48 454.775 62.056 454.775 67.176C454.775 72.296 453.559 76.872 451.127 80.904C448.695 84.936 445.335 88.104 441.047 90.408C436.759 92.648 431.895 93.768 426.455 93.768ZM426.455 81.48C430.295 81.48 433.431 80.2 435.863 77.64C438.359 75.016 439.607 71.528 439.607 67.176C439.607 62.824 438.359 59.368 435.863 56.808C433.431 54.184 430.295 52.872 426.455 52.872C422.615 52.872 419.447 54.184 416.951 56.808C414.455 59.368 413.207 62.824 413.207 67.176C413.207 71.528 414.455 75.016 416.951 77.64C419.447 80.2 422.615 81.48 426.455 81.48ZM652.641 41.352V93H573.825V41.352H588.705V80.712H605.889V41.352H620.769V80.712H637.761V41.352H652.641ZM697.445 40.584C702.245 40.584 706.597 41.704 710.5 43.944C714.469 46.12 717.573 49.224 719.812 53.256C722.053 57.224 723.173 61.864 723.173 67.176C723.173 72.488 722.053 77.16 719.812 81.192C717.573 85.16 714.469 88.264 710.5 90.504C706.597 92.68 702.245 93.768 697.445 93.768C690.853 93.768 685.669 91.688 681.893 87.528V111.624H666.917V41.352H681.221V47.304C684.933 42.824 690.341 40.584 697.445 40.584ZM694.853 81.48C698.693 81.48 701.829 80.2 704.261 77.64C706.757 75.016 708.005 71.528 708.005 67.176C708.005 62.824 706.757 59.368 704.261 56.808C701.829 54.184 698.693 52.872 694.853 52.872C691.013 52.872 687.845 54.184 685.349 56.808C682.917 59.368 681.701 62.824 681.701 67.176C681.701 71.528 682.917 75.016 685.349 77.64C687.845 80.2 691.013 81.48 694.853 81.48ZM733.669 41.352H748.549V72.072L773.701 41.352H787.429V93H772.549V62.28L747.493 93H733.669V41.352ZM873.153 66.984C873.153 74.984 870.465 81.32 865.089 85.992C859.777 90.6 852.161 93.256 842.241 93.96V111.624H828.513V93.96C818.593 93.256 810.945 90.632 805.569 86.088C800.257 81.48 797.601 75.112 797.601 66.984C797.601 58.984 800.225 52.776 805.473 48.36C810.785 43.944 818.465 41.384 828.513 40.68V21.768H842.241V40.68C852.161 41.384 859.777 43.976 865.089 48.456C870.465 52.936 873.153 59.112 873.153 66.984ZM812.097 66.984C812.097 71.592 813.409 75.144 816.033 77.64C818.657 80.136 822.817 81.704 828.513 82.344V52.296C822.817 52.872 818.657 54.376 816.033 56.808C813.409 59.176 812.097 62.568 812.097 66.984ZM842.241 82.344C847.937 81.704 852.097 80.136 854.721 77.64C857.409 75.144 858.753 71.592 858.753 66.984C858.753 62.568 857.409 59.176 854.721 56.808C852.097 54.376 847.937 52.872 842.241 52.296V82.344ZM924.811 53.64H907.339V93H892.459V53.64H874.987V41.352H924.811V53.64ZM980.846 67.368C980.846 67.56 980.75 68.904 980.558 71.4H941.486C942.19 74.6 943.854 77.128 946.478 78.984C949.102 80.84 952.366 81.768 956.27 81.768C958.958 81.768 961.326 81.384 963.374 80.616C965.486 79.784 967.438 78.504 969.23 76.776L977.198 85.416C972.334 90.984 965.23 93.768 955.886 93.768C950.062 93.768 944.91 92.648 940.43 90.408C935.95 88.104 932.494 84.936 930.062 80.904C927.63 76.872 926.414 72.296 926.414 67.176C926.414 62.12 927.598 57.576 929.966 53.544C932.398 49.448 935.694 46.28 939.854 44.04C944.078 41.736 948.782 40.584 953.966 40.584C959.022 40.584 963.598 41.672 967.694 43.848C971.79 46.024 974.99 49.16 977.294 53.256C979.662 57.288 980.846 61.992 980.846 67.368ZM954.062 51.912C950.67 51.912 947.822 52.872 945.518 54.792C943.214 56.712 941.806 59.336 941.294 62.664H966.734C966.222 59.4 964.814 56.808 962.51 54.888C960.206 52.904 957.39 51.912 954.062 51.912Z" fill="black"/>
</svg>
